<svg xmlns="http://www.w3.org/2000/svg" width="24" height="24" viewBox="0 0 24 24" fill="none">
  <path d="M11.9997 4.00049C9.23769 4.00049 6.99969 6.23849 6.99969 9.00049C6.99969 9.2657 7.10505 9.52006 7.29259 9.70759C7.48012 9.89513 7.73448 10.0005 7.99969 10.0005C8.26491 10.0005 8.51927 9.89513 8.7068 9.70759C8.89434 9.52006 8.99969 9.2657 8.99969 9.00049C8.99969 7.34249 10.3417 6.00049 11.9997 6.00049C13.6577 6.00049 14.9997 7.34249 14.9997 9.00049C14.9997 9.81649 14.8007 10.2945 14.5617 10.6295C14.2997 10.9945 13.9367 11.2675 13.4337 11.6145L13.3177 11.6925C12.8707 11.9985 12.2947 12.3915 11.8487 12.9395C11.3217 13.5875 10.9997 14.4065 10.9997 15.5005V16.0005C10.9997 16.2657 11.1051 16.5201 11.2926 16.7076C11.4801 16.8951 11.7345 17.0005 11.9997 17.0005C12.2649 17.0005 12.5193 16.8951 12.7068 16.7076C12.8943 16.5201 12.9997 16.2657 12.9997 16.0005V15.5005C12.9997 14.8445 13.1777 14.4765 13.3997 14.2015C13.6567 13.8875 14.0027 13.6495 14.5137 13.2985L14.5667 13.2615C15.0627 12.9215 15.6997 12.4755 16.1867 11.7935C16.6997 11.0815 16.9997 10.1835 16.9997 9.00049C16.9997 6.23849 14.7617 4.00049 11.9997 4.00049ZM11.9997 21.2505C12.3312 21.2505 12.6492 21.1188 12.8836 20.8844C13.118 20.65 13.2497 20.332 13.2497 20.0005C13.2497 19.669 13.118 19.351 12.8836 19.1166C12.6492 18.8822 12.3312 18.7505 11.9997 18.7505C11.6682 18.7505 11.3502 18.8822 11.1158 19.1166C10.8814 19.351 10.7497 19.669 10.7497 20.0005C10.7497 20.332 10.8814 20.65 11.1158 20.8844C11.3502 21.1188 11.6682 21.2505 11.9997 21.2505Z" fill="white"/>
</svg>