<svg xmlns="http://www.w3.org/2000/svg" width="24" height="24" viewBox="0 0 24 24" fill="none">
  <path d="M11.923 17.4999C11.9214 16.2593 12.2765 15.0443 12.946 13.9999H5.17603C4.88051 13.9998 4.58787 14.0579 4.31483 14.1709C4.04179 14.2839 3.7937 14.4496 3.58474 14.6586C3.37578 14.8676 3.21006 15.1156 3.09703 15.3887C2.984 15.6617 2.92589 15.9544 2.92603 16.2499V17.1689C2.92603 17.7409 3.10603 18.2989 3.43703 18.7649C4.97903 20.9289 7.50303 21.9999 10.923 21.9999C11.855 21.9999 12.72 21.9199 13.515 21.7599C12.4872 20.5796 11.9216 19.067 11.923 17.5019V17.4999ZM15.923 7.00488C15.923 5.6788 15.3962 4.40703 14.4586 3.46935C13.5209 2.53167 12.2491 2.00488 10.923 2.00488C9.59694 2.00488 8.32517 2.53167 7.38749 3.46935C6.44981 4.40703 5.92303 5.6788 5.92303 7.00488C5.92303 8.33096 6.44981 9.60273 7.38749 10.5404C8.32517 11.4781 9.59694 12.0049 10.923 12.0049C12.2491 12.0049 13.5209 11.4781 14.4586 10.5404C15.3962 9.60273 15.923 8.33096 15.923 7.00488Z" fill="white"/>
  <path d="M23.9231 17.5C23.9231 16.0413 23.3436 14.6424 22.3122 13.6109C21.2807 12.5795 19.8818 12 18.4231 12C16.9644 12 15.5655 12.5795 14.534 13.6109C13.5026 14.6424 12.9231 16.0413 12.9231 17.5C12.9231 18.9587 13.5026 20.3576 14.534 21.3891C15.5655 22.4205 16.9644 23 18.4231 23C19.8818 23 21.2807 22.4205 22.3122 21.3891C23.3436 20.3576 23.9231 18.9587 23.9231 17.5ZM18.3331 14.008L18.4231 14L18.5131 14.008C18.613 14.0263 18.705 14.0745 18.7768 14.1463C18.8486 14.2181 18.8968 14.3101 18.9151 14.41L18.9231 14.5V17H21.4271L21.5171 17.008C21.617 17.0263 21.709 17.0745 21.7808 17.1463C21.8526 17.2181 21.9008 17.3101 21.9191 17.41L21.9271 17.5L21.9191 17.59C21.9008 17.6899 21.8526 17.7819 21.7808 17.8537C21.709 17.9255 21.617 17.9737 21.5171 17.992L21.4271 18H18.9231V20.5L18.9151 20.59C18.8968 20.6899 18.8486 20.7819 18.7768 20.8537C18.705 20.9255 18.613 20.9737 18.5131 20.992L18.4231 21L18.3331 20.992C18.2332 20.9737 18.1412 20.9255 18.0694 20.8537C17.9976 20.7819 17.9493 20.6899 17.9311 20.59L17.9231 20.5V18H15.4271L15.3371 17.992C15.2372 17.9737 15.1452 17.9255 15.0734 17.8537C15.0016 17.7819 14.9533 17.6899 14.9351 17.59L14.9271 17.5L14.9351 17.41C14.9533 17.3101 15.0016 17.2181 15.0734 17.1463C15.1452 17.0745 15.2372 17.0263 15.3371 17.008L15.4271 17H17.9231V14.5L17.9311 14.41C17.9493 14.3101 17.9976 14.2181 18.0694 14.1463C18.1412 14.0745 18.2332 14.0263 18.3331 14.008Z" fill="white"/>
</svg>