<svg xmlns="http://www.w3.org/2000/svg" width="23" height="22" viewBox="0 0 23 22" fill="none">
  <path d="M10.1249 4.58337C10.1249 5.31272 9.83519 6.01219 9.31946 6.52792C8.80374 7.04364 8.10426 7.33337 7.37492 7.33337C6.64557 7.33337 5.9461 7.04364 5.43037 6.52792C4.91465 6.01219 4.62492 5.31272 4.62492 4.58337C4.62492 3.85403 4.91465 3.15456 5.43037 2.63883C5.9461 2.12311 6.64557 1.83337 7.37492 1.83337C8.10426 1.83337 8.80374 2.12311 9.31946 2.63883C9.83519 3.15456 10.1249 3.85403 10.1249 4.58337ZM15.6249 9.16671C16.2327 9.16671 16.8156 8.92526 17.2454 8.49549C17.6751 8.06572 17.9166 7.48283 17.9166 6.87504C17.9166 6.26725 17.6751 5.68436 17.2454 5.25459C16.8156 4.82482 16.2327 4.58337 15.6249 4.58337C15.0171 4.58337 14.4342 4.82482 14.0045 5.25459C13.5747 5.68436 13.3333 6.26725 13.3333 6.87504C13.3333 7.48283 13.5747 8.06572 14.0045 8.49549C14.4342 8.92526 15.0171 9.16671 15.6249 9.16671ZM12.7796 9.85421C12.8419 10.0724 12.8749 10.3034 12.8749 10.5417V13.2917C12.875 13.5715 12.811 13.8477 12.6878 14.099C12.5647 14.3503 12.3857 14.57 12.1645 14.7414C11.9432 14.9128 11.6857 15.0313 11.4117 15.0878C11.1376 15.1443 10.8542 15.1373 10.5833 15.0673V18.3334C10.5832 18.6788 10.4856 19.0171 10.3017 19.3094C10.1178 19.6018 9.855 19.8362 9.54367 19.9857C9.23234 20.1353 8.8851 20.1938 8.54195 20.1546C8.1988 20.1155 7.8737 19.9802 7.60408 19.7643C7.33447 19.9802 7.00937 20.1155 6.66622 20.1546C6.32307 20.1938 5.97583 20.1353 5.6645 19.9857C5.35317 19.8362 5.09041 19.6018 4.90649 19.3094C4.72257 19.0171 4.62496 18.6788 4.62492 18.3334V15.0673C4.35397 15.1373 4.07059 15.1443 3.79652 15.0878C3.52244 15.0313 3.26493 14.9128 3.04372 14.7414C2.82251 14.57 2.64347 14.3503 2.52032 14.099C2.39717 13.8477 2.33318 13.5715 2.33325 13.2917V10.5417C2.33325 9.87314 2.59884 9.23196 3.07159 8.75921C3.54433 8.28646 4.18552 8.02087 4.85409 8.02087H10.3541C11.5082 8.02087 12.4808 8.79637 12.7796 9.85421ZM13.7228 9.85421H18.6041C19.2727 9.85421 19.9138 10.1198 20.3866 10.5925C20.8593 11.0653 21.1249 11.7065 21.1249 12.375V13.9792C21.125 14.259 21.061 14.5352 20.9378 14.7865C20.8147 15.0378 20.6357 15.2575 20.4145 15.4289C20.1932 15.6003 19.9357 15.7188 19.6617 15.7753C19.3876 15.8318 19.1042 15.8248 18.8333 15.7548V18.3334C18.8332 18.6788 18.7356 19.0171 18.5517 19.3094C18.3678 19.6018 18.105 19.8362 17.7937 19.9857C17.4823 20.1353 17.1351 20.1938 16.792 20.1546C16.4488 20.1155 16.1237 19.9802 15.8541 19.7643C15.5845 19.9802 15.2594 20.1155 14.9162 20.1546C14.5731 20.1938 14.2258 20.1353 13.9145 19.9857C13.6032 19.8362 13.3404 19.6018 13.1565 19.3094C12.9726 19.0171 12.875 18.6788 12.8749 18.3334V15.3414C13.4378 14.8372 13.7916 14.1057 13.7916 13.2917V10.5417C13.7916 10.3061 13.7678 10.076 13.7228 9.85421Z" fill="#171E26" fill-opacity="0.5"/>
</svg>