<svg xmlns="http://www.w3.org/2000/svg" width="23" height="22" viewBox="0 0 23 22" fill="none">
  <g clip-path="url(#clip0_510_61438)">
    <path d="M12.5083 7.33337H11.9583V8.75421H12.5542C12.9208 8.75421 13.2417 8.43337 13.2417 8.06671C13.2417 7.65421 12.9208 7.33337 12.5083 7.33337ZM12.5083 7.33337H11.9583V8.75421H12.5542C12.9208 8.75421 13.2417 8.43337 13.2417 8.06671C13.2417 7.65421 12.9208 7.33337 12.5083 7.33337ZM3.02083 3.89587V14.4375H19.9792V3.89587H3.02083ZM10.125 11.9625H9.20833V10.2667H7.925V11.9625H7.00833V7.97504C7.00833 7.10421 7.69583 6.41671 8.56667 6.41671C9.4375 6.41671 10.125 7.10421 10.125 7.97504V11.9625ZM12.5083 9.67087H11.9583V11.9625H11.0417V6.41671H12.5542C13.425 6.41671 14.1583 7.15004 14.1583 8.06671C14.1583 8.93754 13.425 9.67087 12.5083 9.67087ZM15.9917 11.9625H15.075V6.46254H15.9917V11.9625ZM12.5083 7.33337H11.9583V8.75421H12.5542C12.9208 8.75421 13.2417 8.43337 13.2417 8.06671C13.2417 7.65421 12.9208 7.33337 12.5083 7.33337ZM8.56667 7.33337C8.2 7.33337 7.925 7.60837 7.925 7.97504V9.35004H9.20833V7.97504C9.20833 7.60837 8.8875 7.33337 8.56667 7.33337ZM21.4458 18.1042H1.55417L0.5 15.4H22.5L21.4458 18.1042Z" fill="#171E26" fill-opacity="0.5"/>
  </g>
  <defs>
    <clipPath id="clip0_510_61438">
      <rect width="22" height="22" fill="white" transform="translate(0.5)"/>
    </clipPath>
  </defs>
</svg>