<svg xmlns="http://www.w3.org/2000/svg" width="15" height="15" viewBox="0 0 15 15" fill="none">
  <path d="M7.5 1.71875C7.91125 1.71875 8.31375 1.76188 8.70188 1.84375C8.78219 1.86074 8.85837 1.89338 8.92606 1.93981C8.99376 1.98624 9.05165 2.04555 9.09642 2.11436C9.1412 2.18316 9.17198 2.26011 9.18702 2.34081C9.20206 2.42151 9.20105 2.50438 9.18406 2.58469C9.16707 2.665 9.13443 2.74118 9.088 2.80888C9.04157 2.87657 8.98226 2.93446 8.91346 2.97924C8.84466 3.02401 8.76771 3.0548 8.68701 3.06983C8.60631 3.08487 8.52344 3.08387 8.44313 3.06688C7.82127 2.93519 7.17873 2.93519 6.55688 3.06688C6.47656 3.08387 6.39369 3.08487 6.31299 3.06983C6.23229 3.0548 6.15535 3.02401 6.08654 2.97924C6.01774 2.93446 5.95843 2.87657 5.912 2.80888C5.86557 2.74118 5.83293 2.665 5.81594 2.58469C5.79895 2.50438 5.79794 2.42151 5.81298 2.34081C5.82802 2.26011 5.8588 2.18316 5.90358 2.11436C5.94835 2.04555 6.00624 1.98624 6.07394 1.93981C6.14164 1.89338 6.21781 1.86074 6.29813 1.84375C6.69331 1.76037 7.09612 1.71847 7.5 1.71875ZM3.90625 2.97125V2.65625C3.90625 2.49049 3.8404 2.33152 3.72319 2.21431C3.60598 2.0971 3.44701 2.03125 3.28125 2.03125C3.11549 2.03125 2.95652 2.0971 2.83931 2.21431C2.7221 2.33152 2.65625 2.49049 2.65625 2.65625V4.53125C2.65625 4.69701 2.7221 4.85598 2.83931 4.97319C2.95652 5.0904 3.11549 5.15625 3.28125 5.15625H5.15625C5.32201 5.15625 5.48098 5.0904 5.59819 4.97319C5.7154 4.85598 5.78125 4.69701 5.78125 4.53125C5.78125 4.36549 5.7154 4.20652 5.59819 4.08931C5.48098 3.9721 5.32201 3.90625 5.15625 3.90625H4.73938C4.83438 3.83313 4.93188 3.76438 5.0325 3.69875C5.17141 3.60825 5.26867 3.46627 5.3029 3.30405C5.33712 3.14183 5.30551 2.97266 5.215 2.83375C5.1245 2.69484 4.98252 2.59758 4.8203 2.56335C4.65808 2.52913 4.48891 2.56075 4.35 2.65125C4.19688 2.75125 4.04875 2.8575 3.90625 2.97125ZM9.785 2.83375C9.87548 2.695 10.0173 2.59783 10.1794 2.56361C10.3415 2.52939 10.5105 2.56091 10.6494 2.65125C11.3281 3.09304 11.907 3.67189 12.3488 4.35063C12.3961 4.41937 12.4293 4.49691 12.4462 4.57867C12.4632 4.66044 12.4635 4.74476 12.4473 4.82668C12.4311 4.90859 12.3987 4.98642 12.3519 5.05559C12.3051 5.12475 12.245 5.18384 12.175 5.22936C12.105 5.27488 12.0266 5.30592 11.9444 5.32063C11.8622 5.33535 11.7779 5.33345 11.6964 5.31504C11.615 5.29663 11.538 5.26209 11.4702 5.21345C11.4023 5.16482 11.3449 5.10308 11.3013 5.03188C10.9544 4.4994 10.5001 4.04531 9.9675 3.69875C9.82874 3.60827 9.73158 3.46641 9.69736 3.30433C9.66314 3.14226 9.69466 2.9726 9.785 2.83375ZM12.415 5.81625C12.4953 5.7992 12.5782 5.79814 12.6589 5.81313C12.7396 5.82812 12.8166 5.85887 12.8855 5.90361C12.9543 5.94836 13.0136 6.00624 13.0601 6.07393C13.1066 6.14162 13.1392 6.2178 13.1563 6.29813C13.3241 7.09059 13.3241 7.90941 13.1563 8.70188C13.1393 8.78219 13.1066 8.85837 13.0602 8.92606C13.0138 8.99376 12.9544 9.05165 12.8856 9.09642C12.7467 9.18685 12.5775 9.21838 12.4153 9.18406C12.2531 9.14975 12.1112 9.05241 12.0208 8.91346C11.9303 8.77451 11.8988 8.60532 11.9331 8.44313C12.0647 7.82126 12.0647 7.17874 11.9331 6.55688C11.8989 6.39477 11.9304 6.22569 12.0207 6.08681C12.1111 5.94793 12.2529 5.85061 12.415 5.81625ZM2.34375 6.40625C2.50951 6.40625 2.66848 6.4721 2.78569 6.58931C2.9029 6.70652 2.96875 6.86549 2.96875 7.03125V7.5C2.96875 7.82375 3.0025 8.13938 3.06688 8.44313C3.08387 8.52344 3.08487 8.60631 3.06983 8.68701C3.0548 8.76771 3.02401 8.84466 2.97924 8.91346C2.93446 8.98226 2.87657 9.04157 2.80888 9.088C2.74118 9.13443 2.665 9.16707 2.58469 9.18406C2.50438 9.20105 2.42151 9.20206 2.34081 9.18702C2.26011 9.17198 2.18316 9.1412 2.11436 9.09642C2.04555 9.05165 1.98624 8.99376 1.93981 8.92606C1.89338 8.85837 1.86074 8.78219 1.84375 8.70188C1.76037 8.30669 1.71847 7.90388 1.71875 7.5V7.03125C1.71875 6.86549 1.7846 6.70652 1.90181 6.58931C2.01902 6.4721 2.17799 6.40625 2.34375 6.40625ZM2.83438 9.785C2.97322 9.69466 3.14226 9.66314 3.30433 9.69736C3.46641 9.73158 3.60827 9.82874 3.69875 9.9675C4.04549 10.5002 4.4998 10.9545 5.0325 11.3013C5.16895 11.3927 5.26389 11.5343 5.29678 11.6952C5.32966 11.8562 5.29785 12.0236 5.20822 12.1613C5.1186 12.299 4.97837 12.3959 4.81787 12.4309C4.65737 12.466 4.48952 12.4365 4.35063 12.3488C3.67189 11.907 3.09304 11.3281 2.65125 10.6494C2.56097 10.5105 2.52955 10.3414 2.56389 10.1793C2.59823 10.0172 2.69552 9.87538 2.83438 9.785ZM11.3013 9.9675C11.3927 9.83105 11.5343 9.73611 11.6952 9.70323C11.8562 9.67034 12.0236 9.70215 12.1613 9.79178C12.299 9.8814 12.3959 10.0216 12.4309 10.1821C12.466 10.3426 12.4365 10.5105 12.3488 10.6494C11.907 11.3281 11.3281 11.907 10.6494 12.3488C10.5806 12.3961 10.5031 12.4293 10.4213 12.4462C10.3396 12.4632 10.2552 12.4635 10.1733 12.4473C10.0914 12.4311 10.0136 12.3987 9.94442 12.3519C9.87525 12.3051 9.81617 12.245 9.77064 12.175C9.72512 12.105 9.69408 12.0266 9.67937 11.9444C9.66465 11.8622 9.66656 11.7779 9.68496 11.6964C9.70337 11.615 9.73791 11.538 9.78655 11.4702C9.83518 11.4023 9.89692 11.3449 9.96813 11.3013C10.5006 10.9545 10.9547 10.5002 11.3013 9.9675ZM8.44313 11.9331C8.60532 11.8988 8.77451 11.9303 8.91346 12.0208C9.05241 12.1112 9.14975 12.2531 9.18406 12.4153C9.21838 12.5775 9.18685 12.7467 9.09642 12.8856C9.006 13.0246 8.86407 13.1219 8.70188 13.1563C7.90941 13.3241 7.09059 13.3241 6.29813 13.1563C6.13593 13.1219 5.99401 13.0246 5.90358 12.8856C5.81315 12.7467 5.78163 12.5775 5.81594 12.4153C5.85025 12.2531 5.94759 12.1112 6.08654 12.0208C6.2255 11.9303 6.39468 11.8988 6.55688 11.9331C7.17874 12.0647 7.82126 12.0647 8.44313 11.9331Z" fill="#E47B00"/>
</svg>