<svg xmlns="http://www.w3.org/2000/svg" width="26" height="26" viewBox="0 0 26 26" fill="none">
  <path d="M7.85433 5.95817C7.85433 4.95256 8.25381 3.98813 8.96488 3.27706C9.67596 2.56598 10.6404 2.1665 11.646 2.1665C12.6516 2.1665 13.616 2.56598 14.3271 3.27706C15.0382 3.98813 15.4377 4.95256 15.4377 5.95817V7.0415H16.521C17.1675 7.0415 17.7874 7.29831 18.2446 7.75543C18.7017 8.21255 18.9585 8.83254 18.9585 9.479V17.604C18.9585 18.2505 18.7017 18.8705 18.2446 19.3276C17.7874 19.7847 17.1675 20.0415 16.521 20.0415H6.771C6.12453 20.0415 5.50454 19.7847 5.04742 19.3276C4.5903 18.8705 4.3335 18.2505 4.3335 17.604V9.479C4.3335 8.83254 4.5903 8.21255 5.04742 7.75543C5.50454 7.29831 6.12453 7.0415 6.771 7.0415H7.85433V5.95817ZM13.8127 5.95817C13.8127 5.38353 13.5844 4.83243 13.1781 4.42611C12.7717 4.01978 12.2206 3.7915 11.646 3.7915C11.0714 3.7915 10.5203 4.01978 10.1139 4.42611C9.7076 4.83243 9.47933 5.38353 9.47933 5.95817V7.0415H13.8127V5.95817ZM11.646 14.8957C12.0051 14.8957 12.3496 14.753 12.6035 14.499C12.8575 14.2451 13.0002 13.9007 13.0002 13.5415C13.0002 13.1824 12.8575 12.8379 12.6035 12.584C12.3496 12.33 12.0051 12.1873 11.646 12.1873C11.2868 12.1873 10.9424 12.33 10.6885 12.584C10.4345 12.8379 10.2918 13.1824 10.2918 13.5415C10.2918 13.9007 10.4345 14.2451 10.6885 14.499C10.9424 14.753 11.2868 14.8957 11.646 14.8957Z" fill="white" fill-opacity="0.8"/>
  <path d="M8.26367 21.1252C8.43173 21.6005 8.74307 22.0121 9.15478 22.3031C9.56649 22.5941 10.0583 22.7503 10.5625 22.7502H17.0625C17.6671 22.7502 18.2658 22.6311 18.8244 22.3997C19.383 22.1683 19.8906 21.8292 20.3181 21.4016C20.7457 20.9741 21.0848 20.4665 21.3162 19.9079C21.5476 19.3493 21.6667 18.7506 21.6667 18.146V13.271C21.6668 12.7668 21.5106 12.275 21.2196 11.8633C20.9286 11.4516 20.517 11.1402 20.0417 10.9722V18.146C20.0417 18.9361 19.7278 19.6939 19.1691 20.2526C18.6104 20.8113 17.8526 21.1252 17.0625 21.1252H8.26367Z" fill="white" fill-opacity="0.8"/>
</svg>