<svg xmlns="http://www.w3.org/2000/svg" width="18" height="18" viewBox="0 0 18 18" fill="none">
  <path d="M2.28034 14.571H15.7197C16.121 14.571 16.4348 14.477 16.6609 14.2889C16.887 14.1008 17 13.8499 17 13.5364C17 13.2513 16.918 12.9748 16.7541 12.7069C16.5902 12.439 16.3853 12.1767 16.1394 11.9202C15.8935 11.6637 15.649 11.4071 15.406 11.1506C15.2194 10.9568 15.0739 10.7031 14.9693 10.3895C14.8647 10.076 14.787 9.74253 14.7361 9.38913C14.6852 9.03567 14.6485 8.69361 14.6259 8.36296C14.609 7.26842 14.4917 6.2936 14.274 5.43849C14.0564 4.58338 13.7186 3.86509 13.2608 3.28362C12.8029 2.70215 12.198 2.27459 11.4462 2.00096C11.2879 1.44228 10.9968 0.96912 10.5729 0.581473C10.149 0.193824 9.62324 0 8.99577 0C8.37398 0 7.8511 0.193824 7.42714 0.581473C7.00319 0.96912 6.71207 1.44228 6.5538 2.00096C5.80199 2.27459 5.19574 2.70215 4.73504 3.28362C4.27434 3.86509 3.93659 4.58338 3.72179 5.43849C3.50698 6.2936 3.3911 7.26842 3.37415 8.36296C3.35153 8.69361 3.31479 9.03567 3.26391 9.38913C3.21304 9.74253 3.13532 10.076 3.03074 10.3895C2.92616 10.7031 2.78061 10.9568 2.59407 11.1506C2.351 11.4071 2.10652 11.6637 1.86063 11.9202C1.61473 12.1767 1.40982 12.439 1.24589 12.7069C1.08196 12.9748 1 13.2513 1 13.5364C1 13.8499 1.11305 14.1008 1.33916 14.2889C1.56527 14.477 1.879 14.571 2.28034 14.571ZM8.99577 18C9.47628 18 9.9059 17.8945 10.2846 17.6836C10.6634 17.4727 10.9672 17.1962 11.1961 16.8541C11.4251 16.5121 11.5593 16.1416 11.5988 15.7425H6.40117C6.43509 16.1416 6.56793 16.5121 6.7997 16.8541C7.03146 17.1962 7.3367 17.4727 7.71544 17.6836C8.09417 17.8945 8.52094 18 8.99577 18Z" fill="white" fill-opacity="0.72"/>
</svg>