<svg xmlns="http://www.w3.org/2000/svg" width="18" height="18" viewBox="0 0 18 18" fill="none">
  <path d="M2.2801 14.571H15.7194C16.1208 14.571 16.4345 14.477 16.6606 14.2889C16.8867 14.1008 16.9998 13.8499 16.9998 13.5364C16.9998 13.2513 16.9178 12.9748 16.7539 12.7069C16.5899 12.439 16.385 12.1767 16.1391 11.9202C15.8932 11.6637 15.6488 11.4071 15.4057 11.1506C15.2192 10.9568 15.0736 10.7031 14.9691 10.3895C14.8645 10.076 14.7867 9.74253 14.7359 9.38913C14.685 9.03567 14.6483 8.69361 14.6257 8.36296C14.6087 7.26842 14.4914 6.2936 14.2738 5.43849C14.0561 4.58338 13.7184 3.86509 13.2605 3.28362C12.8027 2.70215 12.1978 2.27459 11.4459 2.00096C11.2877 1.44228 10.9966 0.96912 10.5726 0.581473C10.1487 0.193824 9.623 0 8.99553 0C8.37373 0 7.85086 0.193824 7.4269 0.581473C7.00294 0.96912 6.71183 1.44228 6.55355 2.00096C5.80174 2.27459 5.19549 2.70215 4.73479 3.28362C4.2741 3.86509 3.93635 4.58338 3.72155 5.43849C3.50674 6.2936 3.39086 7.26842 3.3739 8.36296C3.35129 8.69361 3.31454 9.03567 3.26367 9.38913C3.2128 9.74253 3.13507 10.076 3.0305 10.3895C2.92592 10.7031 2.78036 10.9568 2.59383 11.1506C2.35076 11.4071 2.10628 11.6637 1.86038 11.9202C1.61449 12.1767 1.40958 12.439 1.24565 12.7069C1.08172 12.9748 0.999756 13.2513 0.999756 13.5364C0.999756 13.8499 1.11281 14.1008 1.33892 14.2889C1.56503 14.477 1.87875 14.571 2.2801 14.571ZM8.99553 18C9.47603 18 9.90565 17.8945 10.2844 17.6836C10.6631 17.4727 10.967 17.1962 11.1959 16.8541C11.4248 16.5121 11.559 16.1416 11.5986 15.7425H6.40093C6.43485 16.1416 6.56769 16.5121 6.79945 16.8541C7.03121 17.1962 7.33646 17.4727 7.71519 17.6836C8.09392 17.8945 8.5207 18 8.99553 18Z" fill="#15171C" fill-opacity="0.72"/>
</svg>