<svg xmlns="http://www.w3.org/2000/svg" width="20" height="20" viewBox="0 0 20 20" fill="none">
  <path d="M10.8337 5.62484V1.6665H7.29199C6.79471 1.6665 6.3178 1.86405 5.96617 2.21568C5.61454 2.56731 5.41699 3.04422 5.41699 3.5415V14.3748C5.41699 14.8721 5.61454 15.349 5.96617 15.7007C6.3178 16.0523 6.79471 16.2498 7.29199 16.2498H14.792C15.0382 16.2498 15.282 16.2013 15.5095 16.1071C15.737 16.0129 15.9437 15.8748 16.1178 15.7007C16.2919 15.5266 16.43 15.3199 16.5243 15.0924C16.6185 14.8649 16.667 14.6211 16.667 14.3748V7.49984H12.7087C12.2114 7.49984 11.7345 7.30229 11.3828 6.95066C11.0312 6.59903 10.8337 6.12212 10.8337 5.62484Z" fill="#15171C" fill-opacity="0.5"/>
  <path d="M12.083 5.62516V2.0835L16.2497 6.25016H12.708C12.5422 6.25016 12.3833 6.18432 12.2661 6.0671C12.1489 5.94989 12.083 5.79092 12.083 5.62516ZM4.58551 3.856C4.21932 3.98501 3.90218 4.22447 3.67785 4.54135C3.45351 4.85823 3.33302 5.23691 3.33301 5.62516V14.3785C3.33301 15.4283 3.75005 16.4351 4.49238 17.1775C5.23471 17.9198 6.24153 18.3368 7.29134 18.3368H12.703C13.5197 18.3368 14.2138 17.8152 14.4713 17.0868H7.29134C6.57305 17.0868 5.88417 16.8015 5.37626 16.2936C4.86835 15.7857 4.58301 15.0968 4.58301 14.3785L4.58551 3.856Z" fill="#15171C" fill-opacity="0.5"/>
</svg>