<svg xmlns="http://www.w3.org/2000/svg" width="17" height="16" viewBox="0 0 17 16" fill="none">
  <path d="M14.8337 4C14.8336 4.16329 14.7737 4.32089 14.6652 4.44291C14.5567 4.56494 14.4072 4.6429 14.245 4.662L14.167 4.66667H13.6037L12.783 13.0133C12.7383 13.4662 12.5268 13.8863 12.1895 14.1919C11.8523 14.4975 11.4134 14.6667 10.9583 14.6667H6.04233C5.58722 14.6667 5.14837 14.4975 4.81113 14.1919C4.47388 13.8863 4.26234 13.4662 4.21766 13.0133L3.39699 4.66667H2.83366C2.65685 4.66667 2.48728 4.59643 2.36225 4.4714C2.23723 4.34638 2.16699 4.17681 2.16699 4C2.16699 3.82319 2.23723 3.65362 2.36225 3.5286C2.48728 3.40357 2.65685 3.33333 2.83366 3.33333H6.16699C6.16699 3.02692 6.22735 2.7235 6.34461 2.44041C6.46187 2.15731 6.63374 1.90009 6.85041 1.68342C7.06708 1.46675 7.32431 1.29488 7.6074 1.17761C7.89049 1.06035 8.19391 1 8.50033 1C8.80674 1 9.11016 1.06035 9.39325 1.17761C9.67635 1.29488 9.93357 1.46675 10.1502 1.68342C10.3669 1.90009 10.5388 2.15731 10.656 2.44041C10.7733 2.7235 10.8337 3.02692 10.8337 3.33333H14.167C14.3438 3.33333 14.5134 3.40357 14.6384 3.5286C14.7634 3.65362 14.8337 3.82319 14.8337 4ZM10.0003 6.16667C9.8795 6.16667 9.76276 6.21043 9.67171 6.28984C9.58065 6.36926 9.52142 6.47896 9.50499 6.59867L9.50033 6.66667V11.3333L9.50499 11.4013C9.52146 11.521 9.5807 11.6307 9.67175 11.7101C9.76281 11.7894 9.87952 11.8332 10.0003 11.8332C10.1211 11.8332 10.2378 11.7894 10.3289 11.7101C10.42 11.6307 10.4792 11.521 10.4957 11.4013L10.5003 11.3333V6.66667L10.4957 6.59867C10.4792 6.47896 10.42 6.36926 10.3289 6.28984C10.2379 6.21043 10.1212 6.16667 10.0003 6.16667ZM7.00033 6.16667C6.8795 6.16667 6.76276 6.21043 6.67171 6.28984C6.58065 6.36926 6.52142 6.47896 6.50499 6.59867L6.50033 6.66667V11.3333L6.50499 11.4013C6.52146 11.521 6.58069 11.6307 6.67175 11.7101C6.76281 11.7894 6.87952 11.8332 7.00033 11.8332C7.12113 11.8332 7.23784 11.7894 7.3289 11.7101C7.41996 11.6307 7.47919 11.521 7.49566 11.4013L7.50033 11.3333V6.66667L7.49566 6.59867C7.47923 6.47896 7.42 6.36926 7.32895 6.28984C7.23789 6.21043 7.12115 6.16667 7.00033 6.16667ZM8.50033 2.33333C8.23511 2.33333 7.98076 2.43869 7.79322 2.62623C7.60568 2.81376 7.50033 3.06812 7.50033 3.33333H9.50033C9.50033 3.06812 9.39497 2.81376 9.20743 2.62623C9.0199 2.43869 8.76554 2.33333 8.50033 2.33333Z" fill="#FA5252" fill-opacity="0.4"/>
</svg>