<svg xmlns="http://www.w3.org/2000/svg" width="20" height="21" viewBox="0 0 20 21" fill="none">
  <path d="M2.08325 4.0415C2.08325 3.87574 2.1491 3.71677 2.26631 3.59956C2.38352 3.48235 2.54249 3.4165 2.70825 3.4165H3.17325C3.96492 3.4165 4.43992 3.949 4.71075 4.444C4.89159 4.774 5.02242 5.1565 5.12492 5.50317C5.15264 5.50098 5.18044 5.49987 5.20825 5.49984H15.6233C16.3149 5.49984 16.8149 6.1615 16.6249 6.82734L15.1016 12.1682C14.965 12.6472 14.6761 13.0687 14.2785 13.3688C13.8809 13.669 13.3964 13.8314 12.8983 13.8315H7.94159C7.4395 13.8315 6.9513 13.6667 6.55202 13.3622C6.15275 13.0578 5.8645 12.6307 5.73159 12.1465L5.09825 9.8365L4.04825 6.2965L4.04742 6.28984C3.91742 5.81734 3.79575 5.37484 3.61409 5.04484C3.43992 4.724 3.29992 4.6665 3.17409 4.6665H2.70825C2.54249 4.6665 2.38352 4.60066 2.26631 4.48345C2.1491 4.36624 2.08325 4.20726 2.08325 4.0415ZM7.49992 17.9998C7.94195 17.9998 8.36587 17.8242 8.67843 17.5117C8.99099 17.1991 9.16658 16.7752 9.16658 16.3332C9.16658 15.8911 8.99099 15.4672 8.67843 15.1547C8.36587 14.8421 7.94195 14.6665 7.49992 14.6665C7.05789 14.6665 6.63397 14.8421 6.32141 15.1547C6.00885 15.4672 5.83325 15.8911 5.83325 16.3332C5.83325 16.7752 6.00885 17.1991 6.32141 17.5117C6.63397 17.8242 7.05789 17.9998 7.49992 17.9998ZM13.3333 17.9998C13.7753 17.9998 14.1992 17.8242 14.5118 17.5117C14.8243 17.1991 14.9999 16.7752 14.9999 16.3332C14.9999 15.8911 14.8243 15.4672 14.5118 15.1547C14.1992 14.8421 13.7753 14.6665 13.3333 14.6665C12.8912 14.6665 12.4673 14.8421 12.1547 15.1547C11.8422 15.4672 11.6666 15.8911 11.6666 16.3332C11.6666 16.7752 11.8422 17.1991 12.1547 17.5117C12.4673 17.8242 12.8912 17.9998 13.3333 17.9998Z" fill="#026DEB" fill-opacity="0.8"/>
</svg>