<svg xmlns="http://www.w3.org/2000/svg" width="23" height="22" viewBox="0 0 23 22" fill="none">
  <path d="M2.79199 3.89551C2.79199 3.71317 2.86442 3.5383 2.99336 3.40937C3.12229 3.28044 3.29716 3.20801 3.47949 3.20801H3.99099C4.86183 3.20801 5.38433 3.79376 5.68224 4.33826C5.88116 4.70126 6.02508 5.12201 6.13783 5.50334C6.16832 5.50093 6.1989 5.49971 6.22949 5.49967H17.686C18.4468 5.49967 18.9968 6.22751 18.7878 6.95992L17.1122 12.8348C16.9619 13.3618 16.6441 13.8254 16.2068 14.1556C15.7694 14.4857 15.2364 14.6644 14.6885 14.6645H9.23616C8.68386 14.6645 8.14684 14.4832 7.70764 14.1483C7.26844 13.8134 6.95137 13.3436 6.80516 12.811L6.10849 10.27L4.95349 6.37601L4.95258 6.36867C4.80958 5.84892 4.67574 5.36217 4.47591 4.99917C4.28433 4.64626 4.13033 4.58301 3.99191 4.58301H3.47949C3.29716 4.58301 3.12229 4.51058 2.99336 4.38164C2.86442 4.25271 2.79199 4.07784 2.79199 3.89551ZM8.75033 19.2497C9.23656 19.2497 9.70287 19.0565 10.0467 18.7127C10.3905 18.3689 10.5837 17.9026 10.5837 17.4163C10.5837 16.9301 10.3905 16.4638 10.0467 16.12C9.70287 15.7762 9.23656 15.583 8.75033 15.583C8.2641 15.583 7.79778 15.7762 7.45396 16.12C7.11015 16.4638 6.91699 16.9301 6.91699 17.4163C6.91699 17.9026 7.11015 18.3689 7.45396 18.7127C7.79778 19.0565 8.2641 19.2497 8.75033 19.2497ZM15.167 19.2497C15.6532 19.2497 16.1195 19.0565 16.4634 18.7127C16.8072 18.3689 17.0003 17.9026 17.0003 17.4163C17.0003 16.9301 16.8072 16.4638 16.4634 16.12C16.1195 15.7762 15.6532 15.583 15.167 15.583C14.6808 15.583 14.2144 15.7762 13.8706 16.12C13.5268 16.4638 13.3337 16.9301 13.3337 17.4163C13.3337 17.9026 13.5268 18.3689 13.8706 18.7127C14.2144 19.0565 14.6808 19.2497 15.167 19.2497Z" fill="#15171C"/>
</svg>