<svg xmlns="http://www.w3.org/2000/svg" width="26" height="26" viewBox="0 0 26 26" fill="none">
  <path d="M5.68734 5.41663C4.75355 5.41663 3.85802 5.78757 3.19773 6.44785C2.53745 7.10814 2.1665 8.00368 2.1665 8.93746V17.0625C2.1665 17.9962 2.53745 18.8918 3.19773 19.5521C3.85802 20.2123 4.75355 20.5833 5.68734 20.5833H20.3123C20.7747 20.5833 21.2325 20.4922 21.6597 20.3153C22.0869 20.1383 22.475 19.879 22.8019 19.5521C23.1289 19.2251 23.3882 18.837 23.5652 18.4098C23.7421 17.9827 23.8332 17.5248 23.8332 17.0625V8.93746C23.8332 8.4751 23.7421 8.01726 23.5652 7.5901C23.3882 7.16293 23.1289 6.77479 22.8019 6.44785C22.475 6.12091 22.0869 5.86157 21.6597 5.68463C21.2325 5.5077 20.7747 5.41663 20.3123 5.41663H5.68734ZM6.80317 11.0716L7.58317 11.8516L8.36317 11.0716C8.43755 10.9918 8.52725 10.9278 8.62692 10.8834C8.72659 10.839 8.83418 10.8151 8.94327 10.8132C9.05237 10.8112 9.16073 10.8313 9.2619 10.8722C9.36307 10.913 9.45497 10.9738 9.53213 11.051C9.60928 11.1282 9.67011 11.2201 9.71097 11.3212C9.75183 11.4224 9.7719 11.5308 9.76998 11.6399C9.76805 11.749 9.74417 11.8565 9.69977 11.9562C9.65536 12.0559 9.59133 12.1456 9.5115 12.22L8.73259 13L9.51259 13.7778C9.58813 13.8533 9.64807 13.9429 9.68898 14.0415C9.72989 14.1401 9.75097 14.2459 9.75102 14.3527C9.75107 14.4594 9.73009 14.5652 9.68927 14.6639C9.64845 14.7625 9.5886 14.8522 9.51313 14.9278C9.43766 15.0033 9.34804 15.0632 9.24941 15.1041C9.15077 15.1451 9.04504 15.1661 8.93826 15.1662C8.83148 15.1662 8.72573 15.1453 8.62706 15.1044C8.52838 15.0636 8.43871 15.0038 8.36317 14.9283L7.58317 14.1483L6.80317 14.9283C6.64915 15.0718 6.44543 15.1499 6.23494 15.1462C6.02444 15.1425 5.82361 15.0572 5.67475 14.9084C5.52588 14.7595 5.44061 14.5587 5.4369 14.3482C5.43318 14.1377 5.51132 13.934 5.65484 13.78L6.43484 13L5.65484 12.22C5.51132 12.0659 5.43318 11.8622 5.4369 11.6517C5.44061 11.4412 5.52588 11.2404 5.67475 11.0915C5.82361 10.9427 6.02444 10.8574 6.23494 10.8537C6.44543 10.85 6.64915 10.9281 6.80317 11.0716ZM12.7615 11.0716L13.5415 11.8516L14.3215 11.0716C14.3959 10.9918 14.4856 10.9278 14.5853 10.8834C14.6849 10.839 14.7925 10.8151 14.9016 10.8132C15.0107 10.8112 15.1191 10.8313 15.2202 10.8722C15.3214 10.913 15.4133 10.9738 15.4905 11.051C15.5676 11.1282 15.6284 11.2201 15.6693 11.3212C15.7102 11.4224 15.7302 11.5308 15.7283 11.6399C15.7264 11.749 15.7025 11.8565 15.6581 11.9562C15.6137 12.0559 15.5497 12.1456 15.4698 12.22L14.6909 13L15.4709 13.7778C15.6233 13.9302 15.709 14.1369 15.709 14.3525C15.709 14.5681 15.6233 14.7748 15.4709 14.9272C15.3185 15.0796 15.1118 15.1653 14.8962 15.1653C14.6807 15.1653 14.4739 15.0796 14.3215 14.9272L13.5415 14.1483L12.7615 14.9283C12.6871 15.0081 12.5974 15.0721 12.4978 15.1166C12.3981 15.161 12.2905 15.1848 12.1814 15.1868C12.0723 15.1887 11.9639 15.1686 11.8628 15.1278C11.7616 15.0869 11.6697 15.0261 11.5925 14.9489C11.5154 14.8718 11.4546 14.7799 11.4137 14.6787C11.3728 14.5775 11.3528 14.4692 11.3547 14.3601C11.3566 14.251 11.3805 14.1434 11.4249 14.0437C11.4693 13.944 11.5333 13.8543 11.6132 13.78L12.3932 13L11.6132 12.22C11.4697 12.0659 11.3915 11.8622 11.3952 11.6517C11.3989 11.4412 11.4842 11.2404 11.6331 11.0915C11.7819 10.9427 11.9828 10.8574 12.1933 10.8537C12.4038 10.85 12.6075 10.9281 12.7615 11.0716ZM17.0623 15.4375C17.0623 15.222 17.1479 15.0153 17.3003 14.8629C17.4527 14.7106 17.6593 14.625 17.8748 14.625H19.7707C19.9862 14.625 20.1928 14.7106 20.3452 14.8629C20.4976 15.0153 20.5832 15.222 20.5832 15.4375C20.5832 15.6529 20.4976 15.8596 20.3452 16.012C20.1928 16.1644 19.9862 16.25 19.7707 16.25H17.8748C17.6593 16.25 17.4527 16.1644 17.3003 16.012C17.1479 15.8596 17.0623 15.6529 17.0623 15.4375Z" fill="#15171C" fill-opacity="0.8"/>
</svg>