<svg xmlns="http://www.w3.org/2000/svg" width="11" height="9" viewBox="0 0 11 9" fill="none">
  <path d="M3.42982 6.60857L1.05919 4.23795C0.941318 4.1241 0.783442 4.0611 0.619569 4.06252C0.455696 4.06395 0.298938 4.12968 0.183058 4.24556C0.0671782 4.36144 0.00144764 4.5182 2.36266e-05 4.68207C-0.00140039 4.84594 0.0615961 5.00382 0.175445 5.12169L2.98795 7.9342C3.10515 8.05136 3.26409 8.11719 3.42982 8.11719C3.59555 8.11719 3.75449 8.05136 3.87169 7.9342L10.7467 1.05919C10.8605 0.941319 10.9235 0.783442 10.9221 0.619569C10.9207 0.455696 10.855 0.298939 10.7391 0.183058C10.6232 0.0671784 10.4664 0.00144764 10.3026 2.36265e-05C10.1387 -0.00140039 9.98082 0.0615964 9.86294 0.175445L3.42982 6.60857Z" fill="white"/>
</svg>