<svg xmlns="http://www.w3.org/2000/svg" width="15" height="15" viewBox="0 0 15 15" fill="none">
  <path fill-rule="evenodd" clip-rule="evenodd" d="M13.75 7.50061C13.75 4.04874 10.9525 1.25061 7.5 1.25061C4.04875 1.25061 1.25 4.04874 1.25 7.50061C1.25 10.9525 4.04875 13.7506 7.5 13.7506C10.9525 13.7506 13.75 10.9525 13.75 7.50061ZM4.67884 7.61048L6.19817 9.07073L10.3212 5.10807C10.3967 5.03794 10.4979 4.99914 10.6029 5.00001C10.7079 5.00089 10.8084 5.04138 10.8827 5.11276C10.9569 5.18414 10.9991 5.2807 11 5.38164C11.0009 5.48258 10.9605 5.57983 10.8876 5.65244L6.48137 9.88728C6.40625 9.95946 6.30439 10 6.19817 10C6.09196 10 5.99009 9.95946 5.91497 9.88728L4.11244 8.15485C4.03948 8.08224 3.9991 7.98499 4.00002 7.88405C4.00093 7.7831 4.04305 7.68655 4.11732 7.61517C4.19159 7.54379 4.29206 7.5033 4.39708 7.50242C4.50211 7.50154 4.60329 7.54035 4.67884 7.61048Z" fill="#2AC869"/>
</svg>