<svg xmlns="http://www.w3.org/2000/svg" width="23" height="22" viewBox="0 0 23 22" fill="none">
  <path d="M15.6249 5.95837H10.3541C9.32085 5.95837 8.32993 6.36883 7.59932 7.09944C6.8687 7.83005 6.45825 8.82097 6.45825 9.85421V15.125H5.31242C4.52229 15.125 3.76453 14.8112 3.20583 14.2525C2.64713 13.6938 2.33325 12.936 2.33325 12.1459V4.81254C2.33325 4.02242 2.64713 3.26465 3.20583 2.70595C3.76453 2.14725 4.52229 1.83337 5.31242 1.83337H12.6458C13.4359 1.83337 14.1936 2.14725 14.7523 2.70595C15.311 3.26465 15.6249 4.02242 15.6249 4.81254V5.95837Z" fill="#171E26" fill-opacity="0.5"/>
  <path d="M20.6667 17.1875C20.6667 17.5787 20.5896 17.9661 20.4399 18.3276C20.2902 18.689 20.0707 19.0174 19.7941 19.2941C19.5174 19.5707 19.189 19.7902 18.8276 19.9399C18.4661 20.0896 18.0787 20.1667 17.6875 20.1667H10.3542C9.96294 20.1667 9.57554 20.0896 9.21409 19.9399C8.85264 19.7902 8.52422 19.5707 8.24758 19.2941C7.97094 19.0174 7.75149 18.689 7.60178 18.3276C7.45206 17.9661 7.375 17.5787 7.375 17.1875V9.85417C7.375 9.06404 7.68888 8.30628 8.24758 7.74758C8.80628 7.18888 9.56404 6.875 10.3542 6.875H17.6875C18.0787 6.875 18.4661 6.95206 18.8276 7.10178C19.189 7.25149 19.5174 7.47094 19.7941 7.74758C20.0707 8.02422 20.2902 8.35264 20.4399 8.71409C20.5896 9.07554 20.6667 9.46294 20.6667 9.85417V17.1875ZM17.6875 18.7917C18.113 18.7917 18.521 18.6227 18.8218 18.3218C19.1227 18.021 19.2917 17.613 19.2917 17.1875V9.85417C19.2917 9.42872 19.1227 9.02069 18.8218 8.71985C18.521 8.41901 18.113 8.25 17.6875 8.25H10.3542C9.92872 8.25 9.52069 8.41901 9.21985 8.71985C8.91901 9.02069 8.75 9.42872 8.75 9.85417V17.1875C8.75 18.073 9.46867 18.7917 10.3542 18.7917H17.6875Z" fill="#171E26" fill-opacity="0.5"/>
</svg>