<svg xmlns="http://www.w3.org/2000/svg" width="17" height="17" viewBox="0 0 17 17" fill="none">
  <path opacity="0.72" fill-rule="evenodd" clip-rule="evenodd" d="M3.97014 1.70708C3.57962 1.31655 2.94645 1.31655 2.55593 1.70708L2.20237 2.06063C1.81185 2.45116 1.81185 3.08432 2.20237 3.47485L6.72976 8.00224L1.70696 13.025C1.31643 13.4156 1.31643 14.0487 1.70696 14.4393L2.06051 14.7928C2.45103 15.1833 3.0842 15.1833 3.47472 14.7928L8.49753 9.77L13.5161 14.7886C13.9066 15.1791 14.5398 15.1791 14.9303 14.7886L15.2838 14.435C15.6744 14.0445 15.6744 13.4113 15.2838 13.0208L10.2653 8.00223L14.7884 3.4791C15.179 3.08858 15.179 2.45541 14.7884 2.06489L14.4349 1.71133C14.0444 1.32081 13.4112 1.32081 13.0207 1.71133L8.49753 6.23447L3.97014 1.70708Z" fill="white"/>
</svg>