<svg xmlns="http://www.w3.org/2000/svg" width="18" height="18" viewBox="0 0 18 18" fill="none">
  <path d="M9.00721 1.6875C9.55846 1.6935 10.1067 1.75725 10.6437 1.87725C10.7581 1.90279 10.8617 1.96343 10.9399 2.0507C11.0182 2.13796 11.0672 2.2475 11.0802 2.364L11.2077 3.50925C11.2257 3.67081 11.2813 3.82589 11.3702 3.96201C11.4591 4.09812 11.5787 4.21146 11.7193 4.2929C11.86 4.37433 12.0179 4.42158 12.1802 4.43085C12.3425 4.44012 12.5047 4.41114 12.6537 4.34625L13.7037 3.885C13.8104 3.83801 13.929 3.82533 14.0432 3.84871C14.1574 3.87209 14.2616 3.93037 14.3412 4.0155C15.1001 4.82633 15.6653 5.79872 15.9942 6.8595C16.0287 6.97098 16.0277 7.09042 15.9912 7.20128C15.9548 7.31214 15.8848 7.40894 15.791 7.47825L14.8595 8.16525C14.7284 8.26143 14.6218 8.38715 14.5483 8.53221C14.4749 8.67727 14.4367 8.8376 14.4367 9.00019C14.4368 9.16278 14.4752 9.32307 14.5488 9.46807C14.6223 9.61306 14.729 9.73868 14.8602 9.83475L15.7925 10.521C15.8865 10.5904 15.9566 10.6873 15.993 10.7983C16.0294 10.9093 16.0304 11.0289 15.9957 11.1405C15.6669 12.2012 15.102 13.1735 14.3435 13.9845C14.264 14.0696 14.16 14.1279 14.046 14.1514C13.9319 14.1749 13.8134 14.1625 13.7067 14.1157L12.6522 13.653C12.5034 13.5876 12.3412 13.5582 12.1789 13.5671C12.0166 13.5761 11.8586 13.6232 11.7179 13.7045C11.5771 13.7859 11.4575 13.8993 11.3688 14.0355C11.28 14.1717 11.2246 14.3269 11.207 14.4885L11.0802 15.633C11.0675 15.7481 11.0195 15.8565 10.9429 15.9434C10.8662 16.0302 10.7646 16.0913 10.652 16.1182C9.56562 16.3767 8.4338 16.3767 7.34746 16.1182C7.23466 16.0914 7.1329 16.0304 7.05611 15.9436C6.97931 15.8567 6.93124 15.7482 6.91846 15.633L6.79096 14.49C6.77251 14.3291 6.7166 14.1747 6.62772 14.0393C6.53884 13.9039 6.41947 13.7912 6.27917 13.7103C6.13887 13.6293 5.98155 13.5824 5.81983 13.5732C5.65812 13.5641 5.4965 13.5929 5.34796 13.6575L4.29271 14.1195C4.18604 14.1662 4.0675 14.1787 3.95345 14.1552C3.8394 14.1317 3.73545 14.0733 3.65596 13.9882C2.89701 13.1764 2.33209 12.203 2.00371 11.1412C1.96905 11.0297 1.97 10.9101 2.00642 10.799C2.04285 10.688 2.11294 10.5911 2.20696 10.5217L3.13996 9.83475C3.27109 9.73862 3.37774 9.61295 3.45125 9.46793C3.52476 9.3229 3.56306 9.16259 3.56306 9C3.56306 8.83741 3.52476 8.6771 3.45125 8.53207C3.37774 8.38704 3.27109 8.26138 3.13996 8.16525L2.20771 7.47975C2.11355 7.41048 2.04332 7.31361 2.00676 7.20258C1.9702 7.09156 1.96913 6.97191 2.00371 6.86025C2.33282 5.7994 2.89825 4.82701 3.65746 4.01625C3.73704 3.93128 3.84103 3.87309 3.95508 3.84972C4.06913 3.82635 4.18762 3.83893 4.29421 3.88575L5.34421 4.347C5.49347 4.4117 5.65583 4.4405 5.81824 4.43106C5.98066 4.42163 6.13859 4.37424 6.27936 4.2927C6.42013 4.21115 6.53982 4.09772 6.6288 3.96153C6.71778 3.82534 6.77358 3.67017 6.79171 3.5085L6.91921 2.364C6.93208 2.24727 6.98116 2.13749 7.05958 2.05006C7.13799 1.96263 7.24181 1.90194 7.35646 1.8765C7.89496 1.75725 8.44321 1.69425 9.00721 1.6875ZM10.1817 6H7.72771L10.0565 9L7.97671 11.6355C7.95048 11.6687 7.93414 11.7086 7.92956 11.7507C7.92499 11.7927 7.93236 11.8352 7.95084 11.8733C7.96933 11.9113 7.99816 11.9434 8.03404 11.9658C8.06993 11.9882 8.1114 12.0001 8.15371 12H10.1817C10.216 12 10.2499 11.9922 10.2807 11.9771C10.3115 11.962 10.3384 11.9401 10.3595 11.913L12.443 9.23025C12.4942 9.16442 12.522 9.0834 12.522 9C12.522 8.9166 12.4942 8.83558 12.443 8.76975L10.3595 6.087C10.3383 6.05981 10.3113 6.03783 10.2803 6.02274C10.2494 6.00766 10.2154 5.99988 10.181 6H10.1817ZM7.25821 6.60225L5.56021 8.769C5.51617 8.82523 5.48911 8.89286 5.4822 8.96394C5.47529 9.03502 5.48883 9.1066 5.52121 9.17025L5.56021 9.231L7.06171 11.148L7.09921 11.1855C7.13893 11.2169 7.18808 11.234 7.23871 11.234C7.28934 11.234 7.33849 11.2169 7.37821 11.1855L7.41496 11.1487L8.41696 9.88875C8.44196 9.85741 8.45813 9.81995 8.4638 9.78026C8.46947 9.74057 8.46443 9.70009 8.44921 9.663L8.41771 9.6105L7.93921 9L8.52421 8.253L7.25821 6.60225Z" fill="#15171C"/>
</svg>