<svg xmlns="http://www.w3.org/2000/svg" width="20" height="20" viewBox="0 0 20 20" fill="none">
  <path d="M8.06664 6.24996C8.1983 5.19663 8.40914 4.26163 8.67497 3.50663C8.9058 2.84746 9.16747 2.35829 9.42664 2.04663C9.68914 1.73079 9.88497 1.66663 9.99997 1.66663C10.1141 1.66663 10.3108 1.73079 10.5733 2.04663C10.8325 2.35829 11.0941 2.84746 11.325 3.50663C11.5908 4.26163 11.8016 5.19663 11.9333 6.24996H8.06664ZM7.49497 3.09163C7.6408 2.67829 7.8058 2.29496 7.99247 1.95496C6.94322 2.26627 5.98013 2.81592 5.17842 3.56097C4.3767 4.30601 3.75806 5.2263 3.3708 6.24996H6.80747C6.94664 5.05829 7.18247 3.98079 7.49497 3.09163ZM12.505 3.09163C12.3702 2.6999 12.2038 2.31976 12.0075 1.95496C13.0567 2.26627 14.0198 2.81592 14.8215 3.56097C15.6232 4.30601 16.2419 5.2263 16.6291 6.24996H13.1925C13.0533 5.05829 12.8175 3.98079 12.505 3.09163ZM13.2991 7.49996H16.9741C17.1215 8.32678 17.1215 9.17314 16.9741 9.99996H13.2991C13.3453 9.16727 13.3453 8.33265 13.2991 7.49996ZM13.1925 11.25H16.6291C16.3422 12.0097 15.9267 12.7144 15.4008 13.3333L15.3866 13.35C14.9911 13.8125 14.538 14.2225 14.0383 14.57C13.4179 15.0016 12.7323 15.3308 12.0075 15.545C12.1941 15.205 12.3591 14.8216 12.505 14.4075C12.8166 13.5191 13.0533 12.4416 13.1925 11.25ZM10.5733 15.4533C10.3108 15.7691 10.115 15.8333 9.99997 15.8333C9.8858 15.8333 9.68914 15.7691 9.42664 15.4533C9.16747 15.1416 8.9058 14.6525 8.67497 13.9933C8.40914 13.2383 8.1983 12.3033 8.06664 11.25H11.9333C11.8016 12.3033 11.5908 13.2383 11.325 13.9933C11.0941 14.6525 10.8333 15.1416 10.5733 15.4533ZM5.96164 14.57C6.57497 14.9966 7.25914 15.3283 7.99247 15.545C7.79613 15.1799 7.62976 14.7995 7.49497 14.4075C7.1833 13.5191 6.94664 12.4416 6.80747 11.25H3.3708C3.65997 12.0166 4.0783 12.72 4.59914 13.3333L4.6133 13.35C5.0088 13.8125 5.46193 14.2225 5.96164 14.57ZM6.7008 9.99996H3.0258C2.8785 9.17314 2.8785 8.32678 3.0258 7.49996H6.7008C6.6545 8.33265 6.6545 9.16727 6.7008 9.99996ZM7.9533 7.49996C7.90418 8.33257 7.90418 9.16735 7.9533 9.99996H12.0466C12.0957 9.16735 12.0957 8.33257 12.0466 7.49996H7.9533ZM3.3333 13.3333H3.54414C3.86713 13.7874 4.23694 14.2064 4.64747 14.5833H3.8083L3.11414 17.0833H16.8858L16.1916 14.5833H15.3525C15.763 14.2064 16.1328 13.7875 16.4558 13.3333H16.6666C16.8034 13.3333 16.9363 13.3781 17.0452 13.4609C17.154 13.5437 17.2327 13.6598 17.2691 13.7916L18.3108 17.5416C18.3365 17.6344 18.3404 17.7319 18.3222 17.8265C18.3039 17.9211 18.2641 18.0102 18.2058 18.0868C18.1475 18.1634 18.0722 18.2256 17.9859 18.2683C17.8996 18.3111 17.8046 18.3333 17.7083 18.3333H2.29164C2.19533 18.3333 2.10032 18.3111 2.01402 18.2683C1.92773 18.2256 1.85248 18.1634 1.79415 18.0868C1.73583 18.0102 1.696 17.9211 1.67779 17.8265C1.65957 17.7319 1.66345 17.6344 1.68914 17.5416L2.7308 13.7916C2.76727 13.6598 2.84594 13.5437 2.95477 13.4609C3.06359 13.3781 3.19657 13.3333 3.3333 13.3333Z" fill="#15171C" fill-opacity="0.5"/>
</svg>