<svg xmlns="http://www.w3.org/2000/svg" width="18" height="18" viewBox="0 0 18 18" fill="none">
  <path d="M3.93748 15.375H14.061C14.2034 15.3752 14.3405 15.4295 14.4445 15.5269C14.5485 15.6242 14.6117 15.7574 14.6213 15.8995C14.6309 16.0417 14.5862 16.1821 14.4963 16.2926C14.4064 16.4031 14.2779 16.4753 14.1367 16.4947L14.061 16.5H3.93748C3.79395 16.5015 3.65529 16.448 3.5499 16.3505C3.4445 16.2531 3.38035 16.119 3.37057 15.9758C3.36079 15.8326 3.40613 15.6911 3.49731 15.5802C3.58848 15.4694 3.71858 15.3976 3.86098 15.3795L3.93748 15.375ZM8.91223 1.5015L8.99998 1.49625C9.18368 1.49627 9.36099 1.56371 9.49826 1.68578C9.63554 1.80785 9.72324 1.97606 9.74473 2.1585L9.74998 2.24625V11.6887L12.2205 9.219C12.3496 9.08986 12.5215 9.01229 12.7037 9.00083C12.886 8.98937 13.0662 9.04481 13.2105 9.15675L13.281 9.21975C13.4101 9.34889 13.4877 9.52072 13.4992 9.70299C13.5106 9.88525 13.4552 10.0654 13.3432 10.2097L13.281 10.2802L9.53323 14.0272C9.40418 14.1565 9.23241 14.2342 9.05014 14.2458C8.86787 14.2574 8.68762 14.2021 8.54323 14.0902L8.47273 14.028L4.71973 10.2802C4.58379 10.1456 4.50446 9.96407 4.49797 9.77283C4.49148 9.5816 4.55833 9.39512 4.68483 9.25156C4.81133 9.108 4.98792 9.01822 5.17845 9.00059C5.36898 8.98297 5.55904 9.03883 5.70973 9.15675L5.78023 9.219L8.24998 11.685V2.24625C8.25001 2.06255 8.31745 1.88524 8.43952 1.74797C8.56159 1.61069 8.7298 1.52299 8.91223 1.5015Z" fill="#15171C"/>
</svg>