<svg xmlns="http://www.w3.org/2000/svg" width="17" height="16" viewBox="0 0 17 16" fill="none">
  <path d="M8.47101 8.9716L14.971 2.4716C15.0924 2.34587 15.1596 2.17747 15.1581 2.00267C15.1566 1.82787 15.0865 1.66066 14.9629 1.53706C14.8393 1.41345 14.6721 1.34334 14.4973 1.34182C14.3225 1.3403 14.1541 1.4075 14.0283 1.52894L7.52834 8.02894L7.33301 9.16694L8.47101 8.9716Z" fill="#15171C"/>
  <path d="M4.83333 2C4.21449 2 3.621 2.24583 3.18342 2.68342C2.74583 3.121 2.5 3.71449 2.5 4.33333V11.6667C2.5 12.2855 2.74583 12.879 3.18342 13.3166C3.621 13.7542 4.21449 14 4.83333 14H12.1667C12.7855 14 13.379 13.7542 13.8166 13.3166C14.2542 12.879 14.5 12.2855 14.5 11.6667V6.66667C14.5 6.48986 14.4298 6.32029 14.3047 6.19526C14.1797 6.07024 14.0101 6 13.8333 6C13.6565 6 13.487 6.07024 13.3619 6.19526C13.2369 6.32029 13.1667 6.48986 13.1667 6.66667V11.6667C13.1667 11.9319 13.0613 12.1862 12.8738 12.3738C12.6862 12.5613 12.4319 12.6667 12.1667 12.6667H4.83333C4.56812 12.6667 4.31376 12.5613 4.12623 12.3738C3.93869 12.1862 3.83333 11.9319 3.83333 11.6667V4.33333C3.83333 4.06812 3.93869 3.81376 4.12623 3.62623C4.31376 3.43869 4.56812 3.33333 4.83333 3.33333H9.83333C10.0101 3.33333 10.1797 3.2631 10.3047 3.13807C10.4298 3.01305 10.5 2.84348 10.5 2.66667C10.5 2.48986 10.4298 2.32029 10.3047 2.19526C10.1797 2.07024 10.0101 2 9.83333 2H4.83333Z" fill="#15171C"/>
</svg>