<svg xmlns="http://www.w3.org/2000/svg" width="19" height="19" viewBox="0 0 19 19" fill="none">
  <g clip-path="url(#clip0_510_69755)">
    <path d="M18.1119 10.9849C16.9306 10.9427 16.0559 10.383 15.53 9.92174C15.3781 9.78955 15.1503 9.78674 14.9984 9.92174C14.7847 10.1102 14.5091 10.3127 14.18 10.4927V3.64424C14.18 3.42205 14 3.24205 13.7778 3.24205H0.913437C0.69125 3.24205 0.51125 3.42205 0.51125 3.64424L0.5 14.6889C0.5 14.9111 0.68 15.0911 0.902187 15.0911L12.4391 15.0939C12.5375 15.2683 12.6528 15.4314 12.7822 15.5833C13.3559 16.2471 14.135 16.8039 15.0969 17.2342C15.1503 17.2567 15.2066 17.2708 15.2628 17.2708C15.3191 17.2708 15.3753 17.2596 15.4288 17.2342C16.3906 16.8039 17.1669 16.2471 17.7434 15.5833C18.2328 15.018 18.5028 14.2867 18.5028 13.5189V11.3842C18.5014 11.2802 18.4601 11.1807 18.3873 11.1063C18.3145 11.032 18.2159 10.9885 18.1119 10.9849ZM11.8034 4.04643H13.3728V5.6383H11.8034V4.04643ZM13.3728 6.44549V7.69705H9.77281V6.44549H13.3728ZM13.3728 8.50143V9.83174H11.9356V8.50143H13.3728ZM11.1284 8.50143V9.83174H7.74219V8.50143H11.1284ZM7.74219 4.04362H10.9962V5.63549H7.74219V4.04362ZM8.96844 6.44268V7.69424H5.71438V6.44268H8.96844ZM6.935 8.50143V9.83174H3.65281V8.50143H6.935ZM3.65563 4.04362H6.93781V5.63549H3.65563V4.04362ZM1.30719 4.04362H2.84844V5.63549H1.30719V4.04362ZM1.30719 6.44268H4.90719V7.69424H1.30719V6.44268ZM1.30719 8.49862H2.84844V9.82893H1.30719V8.49862ZM2.84844 14.2867H1.30719V12.7989H2.84844V14.2867ZM3.25062 11.9917H1.30437V10.6361H4.90437V11.9917H3.25062ZM6.935 14.2867H3.65281V12.7989H6.935V14.2867ZM7.33719 11.9917H5.70875V10.6361H8.96281V11.9917H7.33719C7.34 11.9917 7.34 11.9917 7.33719 11.9917ZM10.3944 14.2867H7.73937V12.7989H10.3944V14.2867ZM11.2016 14.2867V12.7989H12.0256V13.5189C12.0256 13.7805 12.0594 14.0392 12.1212 14.2896L11.2016 14.2867ZM12.4138 10.9821C12.1972 10.9905 12.0256 11.1677 12.0256 11.3842V11.9917H9.77281V10.6361H13.3728V10.8217C13.0775 10.9089 12.7597 10.9708 12.4138 10.9821ZM17.6928 13.5189C17.6928 14.0927 17.4931 14.6383 17.1303 15.0546C16.6663 15.5917 16.0362 16.0502 15.26 16.4214C14.4837 16.0502 13.8566 15.5917 13.3897 15.0546C13.2575 14.8999 13.145 14.7283 13.0578 14.5455C13.055 14.5342 13.0494 14.5258 13.0437 14.5146C12.9031 14.208 12.8272 13.8677 12.8272 13.5161V11.7555C13.8734 11.6317 14.6891 11.1789 15.26 10.7402C15.8281 11.1789 16.6466 11.6317 17.6928 11.7555V13.5189Z" fill="#171E26" fill-opacity="0.5"/>
    <path d="M14.6103 13.1867C14.5325 13.1176 14.431 13.0812 14.327 13.085C14.2229 13.0889 14.1244 13.1327 14.0519 13.2074C13.9794 13.2821 13.9385 13.3818 13.9378 13.4859C13.937 13.59 13.9764 13.6904 14.0478 13.7661L14.7425 14.4411C14.8184 14.5142 14.9197 14.5564 15.0237 14.5564H15.0293C15.1362 14.5536 15.2375 14.5114 15.3134 14.4327L16.5425 13.1558C16.6114 13.0777 16.6476 12.9759 16.6433 12.8718C16.639 12.7676 16.5947 12.6692 16.5196 12.597C16.4445 12.5247 16.3443 12.4843 16.2401 12.4842C16.1359 12.484 16.0356 12.5241 15.9603 12.5961L15.0125 13.5805L14.6103 13.1867Z" fill="#171E26" fill-opacity="0.5"/>
  </g>
  <defs>
    <clipPath id="clip0_510_69755">
      <rect width="18" height="18" fill="white" transform="translate(0.5 0.844238)"/>
    </clipPath>
  </defs>
</svg>