<svg xmlns="http://www.w3.org/2000/svg" width="20" height="19" viewBox="0 0 20 19" fill="none">
  <path d="M17.7624 7.94956H17.1247V7.91671H9.99968V11.0834H14.4738C13.8211 12.9268 12.0671 14.25 9.99968 14.25C7.37649 14.25 5.24967 12.1232 5.24967 9.50004C5.24967 6.87685 7.37649 4.75004 9.99968 4.75004C11.2105 4.75004 12.3121 5.20683 13.1509 5.95298L15.3901 3.71375C13.9762 2.39602 12.0849 1.58337 9.99968 1.58337C5.6277 1.58337 2.08301 5.12806 2.08301 9.50004C2.08301 13.872 5.6277 17.4167 9.99968 17.4167C14.3717 17.4167 17.9163 13.872 17.9163 9.50004C17.9163 8.96923 17.8617 8.45108 17.7624 7.94956Z" fill="#FBC02D"/>
  <path d="M2.99609 5.81519L5.59711 7.72271C6.30091 5.98025 8.00536 4.75 9.99997 4.75C11.2108 4.75 12.3124 5.20679 13.1512 5.95294L15.3904 3.71371C13.9765 2.39598 12.0852 1.58334 9.99997 1.58334C6.95918 1.58334 4.32214 3.30006 2.99609 5.81519Z" fill="#FA5252"/>
  <path d="M9.99996 17.4167C12.0448 17.4167 13.9029 16.6341 15.3077 15.3615L12.8575 13.2881C12.0626 13.8902 11.0746 14.25 9.99996 14.25C7.94084 14.25 6.19244 12.937 5.53377 11.1047L2.95215 13.0938C4.26236 15.6576 6.92315 17.4167 9.99996 17.4167Z" fill="#4CAF50"/>
  <path d="M17.7627 7.94952L17.7564 7.91666H17.125H10V11.0833H14.4741C14.1606 11.9688 13.591 12.7324 12.8563 13.2885C12.8567 13.2881 12.8571 13.2881 12.8575 13.2877L15.3077 15.3611C15.1344 15.5186 17.9167 13.4583 17.9167 9.5C17.9167 8.96918 17.862 8.45104 17.7627 7.94952Z" fill="#1565C0"/>
</svg>