<svg xmlns="http://www.w3.org/2000/svg" width="21" height="20" viewBox="0 0 21 20" fill="none">
  <path d="M5.37496 4.1665C4.65666 4.1665 3.96779 4.45185 3.45988 4.95976C2.95197 5.46767 2.66663 6.15654 2.66663 6.87484V13.1248C2.66663 13.8431 2.95197 14.532 3.45988 15.0399C3.96779 15.5478 4.65666 15.8332 5.37496 15.8332H16.625C16.9806 15.8332 17.3328 15.7631 17.6614 15.627C17.99 15.4909 18.2885 15.2914 18.54 15.0399C18.7915 14.7884 18.991 14.4899 19.1271 14.1613C19.2632 13.8327 19.3333 13.4805 19.3333 13.1248V6.87484C19.3333 6.51917 19.2632 6.16699 19.1271 5.8384C18.991 5.50981 18.7915 5.21125 18.54 4.95976C18.2885 4.70826 17.99 4.50877 17.6614 4.37266C17.3328 4.23656 16.9806 4.1665 16.625 4.1665H5.37496ZM6.23329 8.5165L6.83329 9.1165L7.43329 8.5165C7.49051 8.4551 7.55951 8.40585 7.63618 8.37169C7.71284 8.33753 7.79561 8.31916 7.87952 8.31768C7.96344 8.3162 8.0468 8.33163 8.12462 8.36307C8.20245 8.3945 8.27314 8.44129 8.33249 8.50064C8.39184 8.55999 8.43863 8.63068 8.47006 8.70851C8.5015 8.78633 8.51693 8.86969 8.51545 8.95361C8.51397 9.03752 8.4956 9.12029 8.46144 9.19695C8.42728 9.27362 8.37803 9.34262 8.31663 9.39984L7.71746 9.99984L8.31746 10.5982C8.37557 10.6562 8.42168 10.7252 8.45315 10.801C8.48461 10.8769 8.50083 10.9582 8.50087 11.0404C8.50091 11.1225 8.48477 11.2039 8.45337 11.2798C8.42197 11.3557 8.37593 11.4246 8.31788 11.4828C8.25982 11.5409 8.19089 11.587 8.11502 11.6184C8.03914 11.6499 7.95781 11.6661 7.87567 11.6662C7.79353 11.6662 7.71218 11.6501 7.63628 11.6187C7.56038 11.5873 7.4914 11.5412 7.43329 11.4832L6.83329 10.8832L6.23329 11.4832C6.11481 11.5936 5.95811 11.6537 5.79619 11.6508C5.63427 11.648 5.47979 11.5824 5.36527 11.4679C5.25076 11.3533 5.18517 11.1989 5.18231 11.0369C5.17946 10.875 5.23956 10.7183 5.34996 10.5998L5.94996 9.99984L5.34996 9.39984C5.23956 9.28136 5.17946 9.12465 5.18231 8.96274C5.18517 8.80082 5.25076 8.64633 5.36527 8.53182C5.47979 8.41731 5.63427 8.35171 5.79619 8.34886C5.95811 8.346 6.11481 8.4061 6.23329 8.5165ZM10.8166 8.5165L11.4166 9.1165L12.0166 8.5165C12.0738 8.4551 12.1428 8.40585 12.2195 8.37169C12.2962 8.33753 12.3789 8.31916 12.4629 8.31768C12.5468 8.3162 12.6301 8.33163 12.708 8.36307C12.7858 8.3945 12.8565 8.44129 12.9158 8.50064C12.9752 8.55999 13.022 8.63068 13.0534 8.70851C13.0848 8.78633 13.1003 8.86969 13.0988 8.95361C13.0973 9.03752 13.0789 9.12029 13.0448 9.19695C13.0106 9.27362 12.9614 9.34262 12.9 9.39984L12.3008 9.99984L12.9008 10.5982C13.018 10.7154 13.0839 10.8744 13.0839 11.0403C13.0839 11.2061 13.018 11.3651 12.9008 11.4823C12.7835 11.5996 12.6245 11.6655 12.4587 11.6655C12.2929 11.6655 12.1339 11.5996 12.0166 11.4823L11.4166 10.8832L10.8166 11.4832C10.7594 11.5446 10.6904 11.5938 10.6137 11.628C10.5371 11.6621 10.4543 11.6805 10.3704 11.682C10.2865 11.6835 10.2031 11.668 10.1253 11.6366C10.0475 11.6052 9.97678 11.5584 9.91743 11.499C9.85808 11.4397 9.81129 11.369 9.77986 11.2912C9.74842 11.2133 9.73299 11.13 9.73447 11.0461C9.73595 10.9622 9.75431 10.8794 9.78848 10.8027C9.82263 10.7261 9.87189 10.6571 9.93329 10.5998L10.5333 9.99984L9.93329 9.39984C9.82289 9.28136 9.76279 9.12465 9.76565 8.96274C9.7685 8.80082 9.8341 8.64633 9.94861 8.53182C10.0631 8.41731 10.2176 8.35171 10.3795 8.34886C10.5414 8.346 10.6981 8.4061 10.8166 8.5165ZM14.125 11.8748C14.125 11.7091 14.1908 11.5501 14.308 11.4329C14.4252 11.3157 14.5842 11.2498 14.75 11.2498H16.2083C16.3741 11.2498 16.533 11.3157 16.6502 11.4329C16.7674 11.5501 16.8333 11.7091 16.8333 11.8748C16.8333 12.0406 16.7674 12.1996 16.6502 12.3168C16.533 12.434 16.3741 12.4998 16.2083 12.4998H14.75C14.5842 12.4998 14.4252 12.434 14.308 12.3168C14.1908 12.1996 14.125 12.0406 14.125 11.8748Z" fill="#15171C"/>
</svg>