<svg xmlns="http://www.w3.org/2000/svg" width="20" height="21" viewBox="0 0 20 21" fill="none">
  <path d="M10.0002 2.16833C9.14373 2.16833 8.32238 2.50855 7.7168 3.11414C7.11121 3.71972 6.771 4.54107 6.771 5.3975C6.771 7.83083 7.77683 10.8575 8.28183 12.23C8.41237 12.5802 8.64739 12.8817 8.95505 13.0938C9.26271 13.3059 9.62814 13.4184 10.0018 13.4158C10.7552 13.4158 11.451 12.9642 11.721 12.2342C12.226 10.8675 13.2293 7.85583 13.2293 5.3975C13.2293 4.54107 12.8891 3.71972 12.2835 3.11414C11.6779 2.50855 10.8566 2.16833 10.0002 2.16833ZM10.001 14.6675C9.44824 14.6675 8.91812 14.8871 8.52727 15.2779C8.13641 15.6688 7.91683 16.1989 7.91683 16.7517C7.91683 17.3044 8.13641 17.8345 8.52727 18.2254C8.91812 18.6163 9.44824 18.8358 10.001 18.8358C10.5538 18.8358 11.0839 18.6163 11.4747 18.2254C11.8656 17.8345 12.0852 17.3044 12.0852 16.7517C12.0852 16.1989 11.8656 15.6688 11.4747 15.2779C11.0839 14.8871 10.5538 14.6675 10.001 14.6675Z" fill="#FA5252"/>
</svg>