<svg xmlns="http://www.w3.org/2000/svg" width="15" height="14" viewBox="0 0 15 14" fill="none">
  <path d="M5.69398 9.62514H7.49998V9.9168C7.49998 10.9248 7.84415 11.7088 8.30673 12.3026C8.05065 12.6433 7.77473 12.8335 7.49998 12.8335C6.80173 12.8335 6.0994 11.6114 5.72782 9.79722L5.69398 9.62514ZM5.55982 8.75072H7.49998V7.87572C7.49998 7.37989 7.89432 7.02814 8.3219 6.98905C8.77282 6.94822 9.18757 6.79655 9.53757 6.61572C9.53098 6.35486 9.51755 6.09421 9.49732 5.83405H5.50207L5.48282 6.11872C5.43211 6.99643 5.45788 7.87689 5.55982 8.75014V8.75072ZM13.2172 5.83405C13.2896 6.19047 13.3298 6.55914 13.3339 6.93655C12.5581 6.76914 11.9246 6.31064 11.6043 6.03589C11.4861 5.93481 11.3442 5.86537 11.1919 5.83405H13.2172ZM2.2879 9.62514H4.79973C5.01265 10.8396 5.37315 11.8733 5.84507 12.5961C4.36215 12.1558 3.11398 11.1461 2.37365 9.78789L2.2879 9.62514ZM1.78215 5.83347H4.62298C4.56194 6.69209 4.56838 7.55418 4.64223 8.4118L4.67607 8.75014H1.93265C1.63719 7.80619 1.58542 6.80282 1.78215 5.83347ZM9.21732 1.5028L9.15432 1.40364C10.0214 1.66103 10.817 2.11602 11.4786 2.73283C12.1401 3.34965 12.6496 4.11149 12.967 4.95847H10.2883C10.104 3.54914 9.73007 2.33814 9.21673 1.50339L9.21732 1.5028ZM5.77332 1.4258L5.84448 1.40422C5.33115 2.19172 4.94907 3.34614 4.74607 4.70239L4.71048 4.95905H2.03298C2.3458 4.12386 2.84544 3.37126 3.49372 2.75878C4.14199 2.14629 4.92173 1.69073 5.77332 1.4258ZM7.49998 1.16797C8.26882 1.16797 9.0429 2.6508 9.37482 4.77472L9.40165 4.95847H5.59832C5.91332 2.73655 6.70898 1.16797 7.49998 1.16797ZM13.625 7.57005C12.5126 7.46972 11.6218 6.8193 11.2246 6.47922C11.1615 6.42664 11.0821 6.39784 11 6.39784C10.9179 6.39784 10.8384 6.42664 10.7754 6.47922C10.3776 6.8193 9.48623 7.46972 8.3744 7.57005C8.29655 7.57554 8.22355 7.60983 8.16962 7.66624C8.11569 7.72265 8.08471 7.79712 8.08273 7.87514V9.9168C8.08273 12.3802 10.4709 13.2511 10.9253 13.3946C10.9737 13.4101 11.0257 13.4101 11.0741 13.3946C11.5291 13.2511 13.9161 12.3796 13.9161 9.9168V7.87514C13.9141 7.79712 13.8831 7.72265 13.8292 7.66624C13.7753 7.60983 13.7028 7.57554 13.625 7.57005Z" fill="#15171C"/>
</svg>