<svg xmlns="http://www.w3.org/2000/svg" width="16" height="16" viewBox="0 0 16 16" fill="none">
  <g opacity="0.72" clip-path="url(#clip0_1529_705)">
    <path fill-rule="evenodd" clip-rule="evenodd" d="M7.99959 15.4283C8.54327 15.4283 9.07332 15.3699 9.58379 15.259V9.81979C8.68493 9.79257 7.82858 9.42361 7.1908 8.78583C6.52773 8.12275 6.15522 7.22343 6.15522 6.2857C6.15522 5.34797 6.52773 4.44865 7.1908 3.78557C7.85388 3.1225 8.7532 2.74999 9.69093 2.74999H13.2554C11.9109 1.40389 10.0525 0.571167 7.99959 0.571167C3.93276 0.571167 0.629211 3.83917 0.571777 7.89235H3.42788C4.36561 7.89235 5.26493 8.26486 5.92801 8.92793C6.59108 9.59101 6.96359 10.4903 6.96359 11.4281V15.3566C7.30215 15.4039 7.64802 15.4283 7.99959 15.4283ZM4.46359 14.5344V11.4281C4.46359 11.1534 4.35447 10.8899 4.16024 10.6957C3.966 10.5015 3.70257 10.3923 3.42788 10.3923H0.964738C1.5702 12.1731 2.83279 13.6501 4.46359 14.5344ZM12.0838 9.71427V14.2058C14.0986 12.8772 15.4282 10.5937 15.4282 7.99974C15.4282 7.02833 15.2417 6.10046 14.9026 5.24999H9.69093C9.41624 5.24999 9.15281 5.35911 8.95857 5.55334C8.76434 5.74757 8.65522 6.01101 8.65522 6.2857C8.65522 6.56039 8.76434 6.82383 8.95857 7.01806C9.15281 7.2123 9.41624 7.32141 9.69093 7.32141C10.3256 7.32141 10.9342 7.57352 11.3829 8.02227C11.8317 8.47102 12.0838 9.07965 12.0838 9.71427Z" fill="white"/>
    <path d="M9.58379 15.259L9.72025 15.8872C10.0158 15.823 10.2266 15.5615 10.2266 15.259H9.58379ZM9.58379 9.81979H10.2266C10.2266 9.47233 9.95055 9.18775 9.60325 9.17723L9.58379 9.81979ZM7.1908 8.78583L6.73624 9.2404L7.1908 8.78583ZM7.1908 3.78557L6.73624 3.331L7.1908 3.78557ZM13.2554 2.74999V3.39284C13.5154 3.39284 13.7497 3.2363 13.8493 2.99617C13.9488 2.75604 13.894 2.47959 13.7103 2.29568L13.2554 2.74999ZM0.571777 7.89235L-0.0710152 7.88324C-0.0734534 8.0553 -0.00681067 8.22115 0.114 8.34368C0.23481 8.46622 0.399702 8.5352 0.571777 8.5352L0.571777 7.89235ZM5.92801 8.92793L5.47344 9.3825H5.47344L5.92801 8.92793ZM6.96359 15.3566H6.32073C6.32073 15.6774 6.55711 15.949 6.87475 15.9933L6.96359 15.3566ZM4.46359 14.5344L4.15715 15.0995C4.35635 15.2075 4.59771 15.2027 4.79243 15.0868C4.98714 14.9709 5.10645 14.761 5.10645 14.5344H4.46359ZM0.964738 10.3923V9.74949C0.757416 9.74949 0.56282 9.84948 0.442101 10.018C0.321383 10.1866 0.289361 10.403 0.356099 10.5993L0.964738 10.3923ZM12.0838 14.2058H11.4409C11.4409 14.4423 11.5708 14.6597 11.779 14.7718C11.9873 14.884 12.2402 14.8727 12.4377 14.7425L12.0838 14.2058ZM14.9026 5.24999L15.4998 5.01191C15.4023 4.76749 15.1658 4.60713 14.9026 4.60713V5.24999ZM8.95857 5.55334L9.41314 6.00791V6.00791L8.95857 5.55334ZM11.3829 8.02227L10.9284 8.47684L10.9284 8.47684L11.3829 8.02227ZM9.44733 14.6308C8.98141 14.732 8.49711 14.7855 7.99959 14.7855V16.0712C8.58944 16.0712 9.16523 16.0078 9.72025 15.8872L9.44733 14.6308ZM8.94093 9.81979V15.259H10.2266V9.81979H8.94093ZM6.73624 9.2404C7.48998 9.99414 8.50202 10.4302 9.56433 10.4624L9.60325 9.17723C8.86784 9.15496 8.16719 8.85308 7.64537 8.33126L6.73624 9.2404ZM5.51236 6.2857C5.51236 7.39393 5.9526 8.45676 6.73624 9.2404L7.64537 8.33126C7.10286 7.78874 6.79808 7.05293 6.79808 6.2857H5.51236ZM6.73624 3.331C5.9526 4.11464 5.51236 5.17747 5.51236 6.2857H6.79808C6.79808 5.51847 7.10286 4.78266 7.64537 4.24014L6.73624 3.331ZM9.69093 2.10713C8.58271 2.10713 7.51987 2.54737 6.73624 3.331L7.64537 4.24014C8.18789 3.69763 8.9237 3.39284 9.69093 3.39284V2.10713ZM13.2554 2.10713H9.69093V3.39284H13.2554V2.10713ZM7.99959 1.21402C9.875 1.21402 11.5717 1.97398 12.8006 3.20429L13.7103 2.29568C12.2501 0.833804 10.23 -0.0716901 7.99959 -0.0716901V1.21402ZM1.21457 7.90146C1.26703 4.19923 4.28475 1.21402 7.99959 1.21402V-0.0716901C3.58077 -0.0716901 -0.0086081 3.47911 -0.0710152 7.88324L1.21457 7.90146ZM0.571777 8.5352H3.42788V7.24949H0.571777V8.5352ZM3.42788 8.5352C4.19511 8.5352 4.93092 8.83999 5.47344 9.3825L6.38257 8.47337C5.59894 7.68973 4.5361 7.24949 3.42788 7.24949V8.5352ZM5.47344 9.3825C6.01595 9.92502 6.32073 10.6608 6.32073 11.4281H7.60645C7.60645 10.3198 7.16621 9.257 6.38257 8.47337L5.47344 9.3825ZM6.32073 11.4281V15.3566H7.60645V11.4281H6.32073ZM7.99959 14.7855C7.67783 14.7855 7.36164 14.7631 7.05243 14.72L6.87475 15.9933C7.24266 16.0447 7.61821 16.0712 7.99959 16.0712V14.7855ZM5.10645 14.5344V11.4281H3.82073V14.5344H5.10645ZM5.10645 11.4281C5.10645 10.9829 4.9296 10.5559 4.61481 10.2411L3.70567 11.1503C3.77934 11.2239 3.82073 11.3239 3.82073 11.4281H5.10645ZM4.61481 10.2411C4.30001 9.92634 3.87306 9.74949 3.42788 9.74949V11.0352C3.53207 11.0352 3.63199 11.0766 3.70567 11.1503L4.61481 10.2411ZM3.42788 9.74949H0.964738V11.0352H3.42788V9.74949ZM4.77003 13.9693C3.2797 13.1611 2.12613 11.8111 1.57338 10.1854L0.356099 10.5993C1.01427 12.535 2.38587 14.139 4.15715 15.0995L4.77003 13.9693ZM12.7266 14.2058V9.71427H11.4409V14.2058H12.7266ZM14.7853 7.99974C14.7853 10.3686 13.572 12.4544 11.7299 13.6691L12.4377 14.7425C14.6252 13.3 16.071 10.8188 16.071 7.99974H14.7853ZM14.3055 5.48806C14.6149 6.26406 14.7853 7.11121 14.7853 7.99974H16.071C16.071 6.94544 15.8685 5.93687 15.4998 5.01191L14.3055 5.48806ZM9.69093 5.89284H14.9026V4.60713H9.69093V5.89284ZM9.41314 6.00791C9.48682 5.93423 9.58674 5.89284 9.69093 5.89284V4.60713C9.24575 4.60713 8.8188 4.78398 8.504 5.09877L9.41314 6.00791ZM9.29808 6.2857C9.29808 6.18151 9.33947 6.08158 9.41314 6.00791L8.504 5.09877C8.18921 5.41356 8.01236 5.84051 8.01236 6.2857H9.29808ZM9.41314 6.56349C9.33947 6.48982 9.29808 6.38989 9.29808 6.2857H8.01236C8.01236 6.73089 8.18921 7.15784 8.504 7.47263L9.41314 6.56349ZM9.69093 6.67856C9.58674 6.67856 9.48682 6.63717 9.41314 6.56349L8.504 7.47263C8.8188 7.78742 9.24575 7.96427 9.69093 7.96427V6.67856ZM11.8375 7.5677C11.2682 6.99839 10.4961 6.67856 9.69093 6.67856V7.96427C10.1551 7.96427 10.6002 8.14865 10.9284 8.47684L11.8375 7.5677ZM12.7266 9.71427C12.7266 8.90915 12.4068 8.13701 11.8375 7.5677L10.9284 8.47684C11.2566 8.80503 11.4409 9.25014 11.4409 9.71427H12.7266Z" fill="white"/>
  </g>
  <defs>
    <clipPath id="clip0_1529_705">
      <rect width="16" height="16" fill="white"/>
    </clipPath>
  </defs>
</svg>