<svg xmlns="http://www.w3.org/2000/svg" width="16" height="16" viewBox="0 0 16 16" fill="none">
  <g opacity="0.72">
    <path d="M10.6667 7.99996H11.6C11.7061 7.99996 11.8078 8.0421 11.8828 8.11712C11.9579 8.19213 12 8.29387 12 8.39996V12.9333C12 13.0394 11.9579 13.1411 11.8828 13.2161C11.8078 13.2912 11.7061 13.3333 11.6 13.3333H4.4C4.29391 13.3333 4.19217 13.2912 4.11716 13.2161C4.04214 13.1411 4 13.0394 4 12.9333V8.39996C4 8.29387 4.04214 8.19213 4.11716 8.11712C4.19217 8.0421 4.29391 7.99996 4.4 7.99996H5.33333M10.6667 7.99996V5.33329C10.6667 4.44463 10.1333 2.66663 8 2.66663C5.86667 2.66663 5.33333 4.44463 5.33333 5.33329V7.99996M10.6667 7.99996H5.33333" stroke="#026DEB" stroke-width="1.5" stroke-linecap="round" stroke-linejoin="round"/>
  </g>
</svg>