<svg xmlns="http://www.w3.org/2000/svg" width="26" height="27" viewBox="0 0 26 27" fill="none">
  <path d="M12.9999 21.7832L12.9999 14.5779L4.93776 14.579L6.80326 16.4467C6.94086 16.5842 7.02452 16.7666 7.03903 16.9606C7.05355 17.1547 6.99795 17.3475 6.88234 17.504L6.80326 17.595C6.66569 17.7326 6.4833 17.8163 6.28926 17.8308C6.09523 17.8453 5.90243 17.7897 5.74592 17.6741L5.65492 17.595L2.40817 14.3482C2.27057 14.2107 2.18691 14.0283 2.17239 13.8342C2.15788 13.6402 2.21348 13.4474 2.32909 13.2909L2.40817 13.1999L5.65384 9.94557C5.79883 9.80117 5.99296 9.7168 6.19745 9.70932C6.40194 9.70183 6.60173 9.77178 6.75689 9.90518C6.91205 10.0386 7.01116 10.2256 7.03442 10.4289C7.05767 10.6322 7.00336 10.8368 6.88234 11.0018L6.80434 11.0939L4.94859 12.954L12.9988 12.9529L12.9999 5.64582C12.9999 5.52716 13.0258 5.40994 13.0759 5.30238C13.126 5.19482 13.199 5.09954 13.2899 5.02323C13.3808 4.94693 13.4872 4.89145 13.6018 4.8607C13.7164 4.82995 13.8364 4.82467 13.9533 4.84524L23.1616 6.4724C23.3495 6.50547 23.5197 6.60358 23.6425 6.74956C23.7653 6.89553 23.8328 7.08006 23.8333 7.27082L23.8333 20.2708C23.8332 20.4634 23.7648 20.6497 23.6402 20.7965C23.5156 20.9434 23.3429 21.0412 23.1529 21.0725L13.9446 22.5848C13.8283 22.604 13.7092 22.5976 13.5956 22.5662C13.482 22.5347 13.3766 22.4789 13.2867 22.4026C13.1968 22.3264 13.1246 22.2314 13.0751 22.1245C13.0256 22.0175 12.9999 21.901 12.9999 21.7832ZM16.7894 14.0417C17.0773 14.0417 17.3534 13.9273 17.557 13.7237C17.7606 13.5201 17.8749 13.244 17.8749 12.9562C17.8749 12.6683 17.7606 12.3922 17.557 12.1886C17.3534 11.985 17.0773 11.8707 16.7894 11.8707C16.5015 11.8707 16.2254 11.985 16.0219 12.1886C15.8183 12.3922 15.7039 12.6683 15.7039 12.9562C15.7039 13.244 15.8183 13.5201 16.0219 13.7237C16.2254 13.9273 16.5015 14.0417 16.7894 14.0417Z" fill="#15171C" fill-opacity="0.8"/>
  <path d="M11.9167 6.45723H11.088L10.9775 6.46373C10.7826 6.49048 10.604 6.58703 10.4749 6.73545C10.3458 6.88388 10.275 7.0741 10.2755 7.27081L10.2831 11.875H11.9167V6.45723ZM11.9146 15.6666L11.9167 17.0479V21.0833H11.1097C10.9135 21.0833 10.7239 21.0124 10.576 20.8836C10.428 20.7547 10.3317 20.5767 10.3047 20.3824L10.2972 20.2719L10.2896 15.6666H11.9146Z" fill="#15171C" fill-opacity="0.8"/>
</svg>