<svg xmlns="http://www.w3.org/2000/svg" width="23" height="22" viewBox="0 0 23 22" fill="none">
  <path d="M13.6244 11.3712C13.7189 12.1373 14.1021 12.8385 14.6958 13.3319C15.2895 13.8252 16.049 14.0735 16.8194 14.0261C17.5899 13.9788 18.3133 13.6394 18.8421 13.077C19.3709 12.5147 19.6653 11.7719 19.6653 11C19.6653 10.2281 19.3709 9.48522 18.8421 8.9229C18.3133 8.36059 17.5899 8.02115 16.8194 7.9738C16.049 7.92646 15.2895 8.17476 14.6958 8.66809C14.1021 9.16142 13.7189 9.86262 13.6244 10.6287H11.8713V4.80559H13.6244C13.7189 5.5717 14.1021 6.2729 14.6958 6.76623C15.2895 7.25956 16.049 7.50786 16.8194 7.46051C17.5899 7.41316 18.3133 7.07373 18.8421 6.51141C19.3709 5.9491 19.6653 5.20625 19.6653 4.43435C19.6653 3.66244 19.3709 2.91959 18.8421 2.35728C18.3133 1.79496 17.5899 1.45553 16.8194 1.40818C16.049 1.36083 15.2895 1.60913 14.6958 2.10246C14.1021 2.59579 13.7189 3.29699 13.6244 4.0631H11.1288V10.6287H9.37565C9.28113 9.86262 8.89796 9.16142 8.30427 8.66809C7.71058 8.17476 6.95107 7.92646 6.18062 7.9738C5.41016 8.02115 4.68678 8.36059 4.15796 8.9229C3.62914 9.48522 3.33472 10.2281 3.33472 11C3.33472 11.7719 3.62914 12.5147 4.15796 13.077C4.68678 13.6394 5.41016 13.9788 6.18062 14.0261C6.95107 14.0735 7.71058 13.8252 8.30427 13.3319C8.89796 12.8385 9.28113 12.1373 9.37565 11.3712H11.1288V17.9368H13.6244C13.7189 18.7029 14.1021 19.4041 14.6958 19.8975C15.2895 20.3908 16.049 20.6391 16.8194 20.5918C17.5899 20.5444 18.3133 20.205 18.8421 19.6427C19.3709 19.0803 19.6653 18.3375 19.6653 17.5656C19.6653 16.7937 19.3709 16.0508 18.8421 15.4885C18.3133 14.9262 17.5899 14.5868 16.8194 14.5394C16.049 14.4921 15.2895 14.7404 14.6958 15.2337C14.1021 15.727 13.7189 16.4282 13.6244 17.1943H11.8713V11.3712H13.6244ZM16.615 8.71059C17.0639 8.7075 17.5037 8.83695 17.8793 9.08272C18.255 9.3285 18.5497 9.67966 18.7266 10.0922C18.9035 10.5048 18.9548 10.9604 18.8739 11.4019C18.793 11.8434 18.5836 12.2513 18.2719 12.5743C18.1883 12.3972 18.056 12.2474 17.8904 12.1427C17.7248 12.038 17.5328 11.9827 17.3369 11.9831H15.9C15.7034 11.9834 15.5108 12.039 15.3442 12.1436C15.1777 12.2481 15.0439 12.3974 14.9582 12.5743C14.6488 12.2505 14.4414 11.8428 14.3618 11.402C14.2822 10.9613 14.3338 10.5068 14.5103 10.0952C14.6869 9.68354 14.9805 9.33284 15.3547 9.08668C15.7288 8.84051 16.1671 8.70973 16.615 8.71059ZM16.615 2.13809C17.0643 2.13593 17.5042 2.26624 17.8799 2.51274C18.2555 2.75924 18.5501 3.11099 18.7269 3.52402C18.9037 3.93704 18.9548 4.39302 18.8739 4.83495C18.793 5.27688 18.5836 5.68515 18.2719 6.00872C18.1883 5.83153 18.056 5.68182 17.8904 5.57711C17.7248 5.4724 17.5328 5.41703 17.3369 5.41747H15.9C15.7043 5.41786 15.5125 5.47273 15.3461 5.57594C15.1798 5.67915 15.0454 5.82662 14.9582 6.00184C14.6488 5.67797 14.4414 5.27031 14.3618 4.82955C14.2822 4.38878 14.3338 3.93433 14.5103 3.52269C14.6869 3.11104 14.9805 2.76034 15.3547 2.51418C15.7288 2.26801 16.1671 2.13723 16.615 2.13809ZM8.03503 12.5743C7.95295 12.3974 7.82192 12.2477 7.65744 12.143C7.49296 12.0382 7.30192 11.9827 7.1069 11.9831H5.67003C5.47247 11.9833 5.27892 12.0388 5.11126 12.1433C4.94359 12.2478 4.80851 12.3971 4.72128 12.5743C4.4642 12.3028 4.27753 11.9724 4.17758 11.612C4.07764 11.2517 4.06746 10.8724 4.14793 10.5072C4.2284 10.142 4.39708 9.80206 4.63922 9.5171C4.88137 9.23213 5.18961 9.0108 5.53702 8.87244C5.88443 8.73408 6.26044 8.6829 6.63219 8.72337C7.00395 8.76385 7.36013 8.89474 7.66963 9.10462C7.97913 9.3145 8.23252 9.59697 8.40767 9.92737C8.58282 10.2578 8.6744 10.626 8.6744 11C8.67227 11.5876 8.4432 12.1516 8.03503 12.5743ZM16.615 15.2762C17.2226 15.2769 17.8052 15.5182 18.2355 15.9471C18.6658 16.3761 18.9087 16.958 18.9113 17.5656C18.9101 18.1534 18.6809 18.7178 18.2719 19.14C18.188 18.9635 18.0554 18.8148 17.8897 18.7113C17.7241 18.6077 17.5322 18.5537 17.3369 18.5556H15.9C15.704 18.5545 15.5116 18.6088 15.345 18.7122C15.1784 18.8156 15.0443 18.9638 14.9582 19.14C14.6488 18.8161 14.4414 18.4084 14.3618 17.9677C14.2822 17.5269 14.3338 17.0725 14.5103 16.6608C14.6869 16.2492 14.9805 15.8985 15.3547 15.6523C15.7288 15.4061 16.1671 15.2754 16.615 15.2762Z" fill="#15171C"/>
  <path d="M6.38227 11.5706C6.9894 11.5706 7.48158 11.0784 7.48158 10.4713C7.48158 9.86413 6.9894 9.37195 6.38227 9.37195C5.77514 9.37195 5.28296 9.86413 5.28296 10.4713C5.28296 11.0784 5.77514 11.5706 6.38227 11.5706Z" fill="#15171C"/>
  <path d="M16.6179 11.5706C17.225 11.5706 17.7172 11.0784 17.7172 10.4713C17.7172 9.86413 17.225 9.37195 16.6179 9.37195C16.0107 9.37195 15.5186 9.86413 15.5186 10.4713C15.5186 11.0784 16.0107 11.5706 16.6179 11.5706Z" fill="#15171C"/>
  <path d="M16.6179 5.00295C17.225 5.00295 17.7172 4.51077 17.7172 3.90363C17.7172 3.2965 17.225 2.80432 16.6179 2.80432C16.0107 2.80432 15.5186 3.2965 15.5186 3.90363C15.5186 4.51077 16.0107 5.00295 16.6179 5.00295Z" fill="#15171C"/>
  <path d="M16.6179 18.1383C17.225 18.1383 17.7172 17.6461 17.7172 17.039C17.7172 16.4319 17.225 15.9397 16.6179 15.9397C16.0107 15.9397 15.5186 16.4319 15.5186 17.039C15.5186 17.6461 16.0107 18.1383 16.6179 18.1383Z" fill="#15171C"/>
</svg>