<svg xmlns="http://www.w3.org/2000/svg" width="23" height="22" viewBox="0 0 23 22" fill="none">
  <g clip-path="url(#clip0_510_61399)">
    <path d="M11.5033 11.8346C10.6257 11.8346 9.80143 12.1756 9.18302 12.7943C8.07718 13.9002 7.9084 15.6458 8.78186 16.9458C8.89943 17.117 9.0304 17.2758 9.18302 17.4319C9.3298 17.579 9.48999 17.7113 9.67321 17.8368C10.2136 18.2002 10.8457 18.3923 11.5013 18.3923C12.3778 18.3923 13.2018 18.0513 13.8209 17.4322C15.0993 16.1535 15.0993 14.0731 13.8209 12.7947C13.2018 12.1756 12.3789 11.8346 11.5033 11.8346ZM11.502 12.5517C12.1877 12.5517 12.8323 12.8181 13.3159 13.3021C14.3145 14.3007 14.3145 15.9259 13.3159 16.9245C12.8319 17.4085 12.1881 17.6749 11.503 17.6749C10.8179 17.6749 10.1741 17.4085 9.69005 16.9245C9.20605 16.4422 8.93965 15.7987 8.93965 15.1133C8.93965 14.4278 9.20605 13.7843 9.69005 13.3021C10.1727 12.8181 10.8162 12.5517 11.502 12.5517Z" fill="#171E26" fill-opacity="0.5"/>
    <path d="M10.1134 16.5013C10.4833 16.8712 10.9769 17.0781 11.5035 17.0781C12.0267 17.0781 12.5204 16.8715 12.8902 16.5013C13.2601 16.1311 13.467 15.6378 13.467 15.1146C13.467 14.588 13.2604 14.0947 12.8902 13.7245C12.52 13.3543 12.0267 13.1477 11.5035 13.1477C10.9769 13.1477 10.4836 13.3543 10.1134 13.7245C9.7432 14.0947 9.54004 14.588 9.54004 15.1146C9.54004 15.6382 9.74354 16.1315 10.1134 16.5013Z" fill="#171E26" fill-opacity="0.5"/>
    <path d="M8.80699 17.8076C8.7183 17.719 8.63305 17.6241 8.55468 17.5289L8.51033 17.4756L6.53824 19.2387C6.33749 19.4219 6.22027 19.6374 6.21649 19.8296C6.21271 19.9815 6.2684 20.1111 6.38527 20.2242C6.50215 20.3452 6.6259 20.4016 6.77405 20.4016L6.78883 20.4012C6.98408 20.394 7.1979 20.2754 7.37596 20.0757L9.14283 18.1033L9.08783 18.0593C8.98986 17.9809 8.89808 17.8953 8.80699 17.8076Z" fill="#171E26" fill-opacity="0.5"/>
    <path d="M8.53653 6.31165H10.6265V6.85511H10.2697C10.0865 6.85511 9.93628 7.00189 9.93628 7.18855C9.93628 7.37177 10.0862 7.52199 10.2697 7.52199H12.7698C12.953 7.52199 13.1033 7.37211 13.1033 7.18855C13.1033 7.00189 12.9534 6.85511 12.7698 6.85511H12.4099V6.31165H14.5033C14.6866 6.31165 14.8368 6.16177 14.8368 5.97821V1.93158C14.8368 1.74836 14.6869 1.59814 14.5033 1.59814H8.53653C8.35331 1.59814 8.20309 1.74802 8.20309 1.93158V5.97821C8.20344 6.16143 8.35331 6.31165 8.53653 6.31165ZM5.06328 16.915H4.70647V16.3715H6.79991C6.98312 16.3715 7.13334 16.2216 7.13334 16.0381V11.9914C7.13334 11.8082 6.98347 11.658 6.79991 11.658H0.833438C0.646781 11.658 0.5 11.8079 0.5 11.9914V16.0381C0.5 16.2213 0.646781 16.3715 0.833438 16.3715H2.92344V16.915H2.56663C2.38341 16.915 2.23319 17.0648 2.23319 17.2484C2.23319 17.432 2.38306 17.5818 2.56663 17.5818H5.06328C5.24994 17.5818 5.39672 17.432 5.39672 17.2484C5.39672 17.0648 5.24994 16.915 5.06328 16.915ZM22.1666 11.7415H16.2001C16.0134 11.7415 15.8667 11.8914 15.8667 12.075V16.1216C15.8667 16.3048 16.0134 16.455 16.2001 16.455H18.2901V16.9985H17.9333C17.7501 16.9985 17.5998 17.1484 17.5998 17.3319C17.5998 17.5155 17.7497 17.6654 17.9333 17.6654H20.4299C20.6166 17.6654 20.7634 17.5155 20.7634 17.3319C20.7634 17.1484 20.6166 16.9985 20.4299 16.9985H20.0731V16.455H22.1666C22.3498 16.455 22.5 16.3051 22.5 16.1216V12.075C22.5 11.8917 22.3501 11.7415 22.1666 11.7415Z" fill="#171E26" fill-opacity="0.5"/>
    <path d="M3.81537 11.0905C3.99928 11.0905 4.14881 10.9413 4.14881 10.757V8.83924H18.8489V10.757C18.8489 10.9409 18.9981 11.0905 19.1824 11.0905C19.3663 11.0905 19.5158 10.9413 19.5158 10.757V8.5058C19.5158 8.32155 19.3666 8.17236 19.1824 8.17236H3.81537C3.63112 8.17236 3.48193 8.32155 3.48193 8.5058V10.757C3.48193 10.9413 3.63112 11.0905 3.81537 11.0905Z" fill="#171E26" fill-opacity="0.5"/>
  </g>
  <defs>
    <clipPath id="clip0_510_61399">
      <rect width="22" height="22" fill="white" transform="translate(0.5)"/>
    </clipPath>
  </defs>
</svg>