<svg xmlns="http://www.w3.org/2000/svg" width="20" height="20" viewBox="0 0 20 20" fill="none">
  <path d="M4.58341 3.33329C4.25189 3.33329 3.93395 3.46499 3.69953 3.69941C3.46511 3.93383 3.33341 4.25177 3.33341 4.58329V6.66663C3.33341 6.88764 3.24562 7.0996 3.08934 7.25588C2.93306 7.41216 2.7211 7.49996 2.50008 7.49996C2.27907 7.49996 2.06711 7.41216 1.91083 7.25588C1.75455 7.0996 1.66675 6.88764 1.66675 6.66663V4.58329C1.66675 3.80974 1.97404 3.06788 2.52102 2.5209C3.068 1.97392 3.80987 1.66663 4.58341 1.66663H6.66675C6.88776 1.66663 7.09972 1.75442 7.256 1.9107C7.41228 2.06698 7.50008 2.27895 7.50008 2.49996C7.50008 2.72097 7.41228 2.93293 7.256 3.08921C7.09972 3.2455 6.88776 3.33329 6.66675 3.33329H4.58341ZM4.58341 16.6666C4.25189 16.6666 3.93395 16.5349 3.69953 16.3005C3.46511 16.0661 3.33341 15.7481 3.33341 15.4166V13.3333C3.33341 13.1123 3.24562 12.9003 3.08934 12.744C2.93306 12.5878 2.7211 12.5 2.50008 12.5C2.27907 12.5 2.06711 12.5878 1.91083 12.744C1.75455 12.9003 1.66675 13.1123 1.66675 13.3333V15.4166C1.66675 16.1902 1.97404 16.932 2.52102 17.479C3.068 18.026 3.80987 18.3333 4.58341 18.3333H6.66675C6.88776 18.3333 7.09972 18.2455 7.256 18.0892C7.41228 17.9329 7.50008 17.721 7.50008 17.5C7.50008 17.2789 7.41228 17.067 7.256 16.9107C7.09972 16.7544 6.88776 16.6666 6.66675 16.6666H4.58341ZM16.6667 4.58329C16.6667 4.25177 16.5351 3.93383 16.3006 3.69941C16.0662 3.46499 15.7483 3.33329 15.4167 3.33329H13.3334C13.1124 3.33329 12.9004 3.2455 12.7442 3.08921C12.5879 2.93293 12.5001 2.72097 12.5001 2.49996C12.5001 2.27895 12.5879 2.06698 12.7442 1.9107C12.9004 1.75442 13.1124 1.66663 13.3334 1.66663H15.4167C16.1903 1.66663 16.9322 1.97392 17.4791 2.5209C18.0261 3.06788 18.3334 3.80974 18.3334 4.58329V6.66663C18.3334 6.88764 18.2456 7.0996 18.0893 7.25588C17.9331 7.41216 17.7211 7.49996 17.5001 7.49996C17.2791 7.49996 17.0671 7.41216 16.9108 7.25588C16.7545 7.0996 16.6667 6.88764 16.6667 6.66663V4.58329ZM15.4167 16.6666C15.7483 16.6666 16.0662 16.5349 16.3006 16.3005C16.5351 16.0661 16.6667 15.7481 16.6667 15.4166V13.3333C16.6667 13.1123 16.7545 12.9003 16.9108 12.744C17.0671 12.5878 17.2791 12.5 17.5001 12.5C17.7211 12.5 17.9331 12.5878 18.0893 12.744C18.2456 12.9003 18.3334 13.1123 18.3334 13.3333V15.4166C18.3334 16.1902 18.0261 16.932 17.4791 17.479C16.9322 18.026 16.1903 18.3333 15.4167 18.3333H13.3334C13.1124 18.3333 12.9004 18.2455 12.7442 18.0892C12.5879 17.9329 12.5001 17.721 12.5001 17.5C12.5001 17.2789 12.5879 17.067 12.7442 16.9107C12.9004 16.7544 13.1124 16.6666 13.3334 16.6666H15.4167ZM6.45841 4.99996C6.2374 4.99996 6.02544 5.08776 5.86916 5.24404C5.71288 5.40032 5.62508 5.61228 5.62508 5.83329V7.08329C5.62508 7.30431 5.71288 7.51627 5.86916 7.67255C6.02544 7.82883 6.2374 7.91663 6.45841 7.91663C6.67943 7.91663 6.89139 7.82883 7.04767 7.67255C7.20395 7.51627 7.29175 7.30431 7.29175 7.08329V6.66663H9.16675V13.3333H8.12508C7.90407 13.3333 7.69211 13.4211 7.53583 13.5774C7.37955 13.7336 7.29175 13.9456 7.29175 14.1666C7.29175 14.3876 7.37955 14.5996 7.53583 14.7559C7.69211 14.9122 7.90407 15 8.12508 15H11.8751C12.0961 15 12.3081 14.9122 12.4643 14.7559C12.6206 14.5996 12.7084 14.3876 12.7084 14.1666C12.7084 13.9456 12.6206 13.7336 12.4643 13.5774C12.3081 13.4211 12.0961 13.3333 11.8751 13.3333H10.8334V6.66663H12.7084V7.08329C12.7084 7.30431 12.7962 7.51627 12.9525 7.67255C13.1088 7.82883 13.3207 7.91663 13.5417 7.91663C13.7628 7.91663 13.9747 7.82883 14.131 7.67255C14.2873 7.51627 14.3751 7.30431 14.3751 7.08329V5.83329C14.3751 5.61228 14.2873 5.40032 14.131 5.24404C13.9747 5.08776 13.7628 4.99996 13.5417 4.99996H6.45841Z" fill="#15171C" fill-opacity="0.5"/>
</svg>