<svg xmlns="http://www.w3.org/2000/svg" width="26" height="27" viewBox="0 0 26 27" fill="none">
  <path d="M23.8313 5.646C23.8313 4.99953 23.5745 4.37954 23.1173 3.92242C22.6602 3.4653 22.0402 3.2085 21.3938 3.2085H4.60644C3.95998 3.2085 3.33999 3.4653 2.88287 3.92242C2.42575 4.37954 2.16895 4.99953 2.16895 5.646V15.9431C2.16895 16.2632 2.23199 16.5801 2.35449 16.8759C2.47698 17.1716 2.65653 17.4403 2.88287 17.6667C3.10922 17.893 3.37792 18.0725 3.67365 18.195C3.96939 18.3175 4.28635 18.3806 4.60644 18.3806H11.9168V20.0002H11.92V20.635L11.4704 20.1865L11.3686 20.0955C11.1509 19.9252 10.8764 19.8445 10.6012 19.8699C10.326 19.8954 10.0709 20.0251 9.8882 20.2325C9.70547 20.4398 9.60892 20.7092 9.61829 20.9854C9.62766 21.2616 9.74225 21.5238 9.93861 21.7183L12.2364 24.0161L12.3382 24.106C12.5108 24.2401 12.7201 24.3187 12.9384 24.3313H13.0662L13.194 24.3162C13.4116 24.2773 13.6121 24.1726 13.7682 24.0161L16.067 21.7183L16.1569 21.6165C16.3186 21.4081 16.3987 21.1478 16.3822 20.8845C16.3656 20.6212 16.2536 20.373 16.067 20.1865L15.9641 20.0955C15.7555 19.9339 15.4952 19.8541 15.2319 19.8708C14.9686 19.8876 14.7205 19.9998 14.5341 20.1865L14.0867 20.635V18.3806H21.3938C22.0402 18.3806 22.6602 18.1238 23.1173 17.6667C23.5745 17.2095 23.8313 16.5895 23.8313 15.9431V5.646ZM7.31478 13.5002H18.6898L18.8003 13.5077C18.9947 13.5345 19.173 13.6308 19.302 13.7787C19.431 13.9267 19.502 14.1164 19.502 14.3127C19.502 14.509 19.431 14.6986 19.302 14.8466C19.173 14.9946 18.9947 15.0908 18.8003 15.1176L18.6898 15.1252H7.31478L7.20536 15.1176C7.01089 15.0908 6.83268 14.9946 6.70368 14.8466C6.57468 14.6986 6.50361 14.509 6.50361 14.3127C6.50361 14.1164 6.57468 13.9267 6.70368 13.7787C6.83268 13.6308 7.01089 13.5345 7.20536 13.5077L7.31478 13.5002ZM16.7939 10.7918C16.7939 10.5045 16.9081 10.229 17.1112 10.0258C17.3144 9.82263 17.59 9.7085 17.8773 9.7085C18.1646 9.7085 18.4401 9.82263 18.6433 10.0258C18.8465 10.229 18.9606 10.5045 18.9606 10.7918C18.9606 11.0791 18.8465 11.3547 18.6433 11.5579C18.4401 11.761 18.1646 11.8752 17.8773 11.8752C17.59 11.8752 17.3144 11.761 17.1112 11.5579C16.9081 11.3547 16.7939 11.0791 16.7939 10.7918ZM13.5494 10.7918C13.5494 10.5045 13.6635 10.229 13.8667 10.0258C14.0698 9.82263 14.3454 9.7085 14.6327 9.7085C14.92 9.7085 15.1956 9.82263 15.3987 10.0258C15.6019 10.229 15.716 10.5045 15.716 10.7918C15.716 11.0791 15.6019 11.3547 15.3987 11.5579C15.1956 11.761 14.92 11.8752 14.6327 11.8752C14.3454 11.8752 14.0698 11.761 13.8667 11.5579C13.6635 11.3547 13.5494 11.0791 13.5494 10.7918ZM10.2994 10.7918C10.2994 10.5045 10.4135 10.229 10.6167 10.0258C10.8198 9.82263 11.0954 9.7085 11.3827 9.7085C11.67 9.7085 11.9456 9.82263 12.1487 10.0258C12.3519 10.229 12.466 10.5045 12.466 10.7918C12.466 11.0791 12.3519 11.3547 12.1487 11.5579C11.9456 11.761 11.67 11.8752 11.3827 11.8752C11.0954 11.8752 10.8198 11.761 10.6167 11.5579C10.4135 11.3547 10.2994 11.0791 10.2994 10.7918ZM7.04936 10.7918C7.04936 10.5045 7.1635 10.229 7.36666 10.0258C7.56983 9.82263 7.84538 9.7085 8.1327 9.7085C8.42001 9.7085 8.69556 9.82263 8.89873 10.0258C9.10189 10.229 9.21603 10.5045 9.21603 10.7918C9.21603 11.0791 9.10189 11.3547 8.89873 11.5579C8.69556 11.761 8.42001 11.8752 8.1327 11.8752C7.84538 11.8752 7.56983 11.761 7.36666 11.5579C7.1635 11.3547 7.04936 11.0791 7.04936 10.7918ZM5.41894 7.54183C5.41894 7.25451 5.53308 6.97896 5.73625 6.7758C5.93941 6.57263 6.21496 6.4585 6.50228 6.4585C6.7896 6.4585 7.06515 6.57263 7.26831 6.7758C7.47147 6.97896 7.58561 7.25451 7.58561 7.54183C7.58561 7.82915 7.47147 8.1047 7.26831 8.30786C7.06515 8.51103 6.7896 8.62516 6.50228 8.62516C6.21496 8.62516 5.93941 8.51103 5.73625 8.30786C5.53308 8.1047 5.41894 7.82915 5.41894 7.54183ZM8.66353 7.54183C8.66353 7.25451 8.77766 6.97896 8.98083 6.7758C9.18399 6.57263 9.45954 6.4585 9.74686 6.4585C10.0342 6.4585 10.3097 6.57263 10.5129 6.7758C10.7161 6.97896 10.8302 7.25451 10.8302 7.54183C10.8302 7.82915 10.7161 8.1047 10.5129 8.30786C10.3097 8.51103 10.0342 8.62516 9.74686 8.62516C9.45954 8.62516 9.18399 8.51103 8.98083 8.30786C8.77766 8.1047 8.66353 7.82915 8.66353 7.54183ZM11.9135 7.54183C11.9135 7.25451 12.0277 6.97896 12.2308 6.7758C12.434 6.57263 12.7095 6.4585 12.9969 6.4585C13.2842 6.4585 13.5597 6.57263 13.7629 6.7758C13.9661 6.97896 14.0802 7.25451 14.0802 7.54183C14.0802 7.82915 13.9661 8.1047 13.7629 8.30786C13.5597 8.51103 13.2842 8.62516 12.9969 8.62516C12.7095 8.62516 12.434 8.51103 12.2308 8.30786C12.0277 8.1047 11.9135 7.82915 11.9135 7.54183ZM15.1635 7.54183C15.1635 7.25451 15.2777 6.97896 15.4808 6.7758C15.684 6.57263 15.9595 6.4585 16.2469 6.4585C16.5342 6.4585 16.8097 6.57263 17.0129 6.7758C17.2161 6.97896 17.3302 7.25451 17.3302 7.54183C17.3302 7.82915 17.2161 8.1047 17.0129 8.30786C16.8097 8.51103 16.5342 8.62516 16.2469 8.62516C15.9595 8.62516 15.684 8.51103 15.4808 8.30786C15.2777 8.1047 15.1635 7.82915 15.1635 7.54183ZM18.4135 7.54183C18.4135 7.25451 18.5277 6.97896 18.7308 6.7758C18.934 6.57263 19.2095 6.4585 19.4969 6.4585C19.7842 6.4585 20.0597 6.57263 20.2629 6.7758C20.4661 6.97896 20.5802 7.25451 20.5802 7.54183C20.5802 7.82915 20.4661 8.1047 20.2629 8.30786C20.0597 8.51103 19.7842 8.62516 19.4969 8.62516C19.2095 8.62516 18.934 8.51103 18.7308 8.30786C18.5277 8.1047 18.4135 7.82915 18.4135 7.54183Z" fill="#15171C" fill-opacity="0.8"/>
</svg>