<svg xmlns="http://www.w3.org/2000/svg" width="27" height="26" viewBox="0 0 27 26" fill="none">
  <rect x="0.5" width="26" height="26" rx="6" fill="#001C64"/>
  <path d="M17.7128 9.2085C17.7098 9.35436 17.6963 9.49986 17.6725 9.64401C17.3529 11.5747 15.604 12.9994 13.5431 12.9994H11.4953C11.2859 12.9994 11.1073 13.1438 11.0747 13.3401L10.4322 17.1997L10.0297 19.621C10.0218 19.6677 10.0248 19.7156 10.0383 19.7612C10.0519 19.8068 10.0757 19.849 10.1082 19.885C10.1406 19.9211 10.1809 19.95 10.2263 19.9698C10.2717 19.9896 10.3211 19.9999 10.3711 19.9999H12.5939C12.6953 19.9998 12.7933 19.9654 12.8704 19.903C12.9475 19.8405 12.9986 19.7541 13.0144 19.6592L13.5999 16.1403C13.6158 16.0453 13.6669 15.9588 13.744 15.8964C13.8212 15.8339 13.9194 15.7996 14.0208 15.7996H15.3295C17.3905 15.7996 19.1393 14.3749 19.4589 12.4442C19.6858 11.0739 18.9575 9.82691 17.7128 9.2085Z" fill="#0070F0"/>
  <path d="M12.1941 8.79932C12.0927 8.7994 11.9947 8.83375 11.9176 8.89619C11.8405 8.95864 11.7894 9.0451 11.7735 9.14002L11.0747 13.3401C11.1073 13.144 11.2857 12.9994 11.4953 12.9994H13.5431C15.6041 12.9994 17.3529 11.5747 17.6725 9.64398C17.6962 9.49984 17.7097 9.35434 17.7128 9.20847C17.189 8.94823 16.5738 8.79932 15.8996 8.79932H12.1941Z" fill="white"/>
  <path d="M9.6691 6C9.45963 6 9.2811 6.14439 9.24852 6.34039L7.50429 16.8213C7.47122 17.0203 7.63347 17.2002 7.84607 17.2002H10.4326L11.0749 13.3407L11.7737 9.14056C11.7895 9.04564 11.8406 8.95918 11.9177 8.89674C11.9948 8.83429 12.0929 8.79994 12.1943 8.79986H15.8998C16.5741 8.79986 17.1892 8.94893 17.7129 9.20901C17.7488 7.45123 16.2182 6 14.1137 6H9.6691Z" fill="white"/>
  <path d="M9.6691 6C9.45963 6 9.2811 6.14439 9.24852 6.34039L7.50429 16.8213C7.47122 17.0203 7.63347 17.2002 7.84607 17.2002H10.4326L11.0749 13.3407L11.7737 9.14056C11.7895 9.04564 11.8406 8.95918 11.9177 8.89674C11.9948 8.83429 12.0929 8.79994 12.1943 8.79986H15.8998C16.5741 8.79986 17.1892 8.94893 17.7129 9.20901C17.7488 7.45123 16.2182 6 14.1137 6H9.6691Z" fill="white"/>
</svg>