<svg xmlns="http://www.w3.org/2000/svg" width="15" height="15" viewBox="0 0 15 15" fill="none">
  <path d="M8.7126 3.12501L11.8751 6.28751L5.66385 12.5C5.49082 12.6731 5.2756 12.7981 5.03948 12.8625L1.84198 13.7344C1.76228 13.756 1.67829 13.7562 1.5985 13.7349C1.51871 13.7137 1.44596 13.6717 1.3876 13.6133C1.32924 13.5548 1.28736 13.482 1.26617 13.4022C1.24499 13.3224 1.24527 13.2384 1.26698 13.1588L2.13885 9.96126C2.20329 9.72513 2.32824 9.50992 2.50135 9.33688L8.71135 3.12501H8.7126ZM13.1439 1.85626C13.5632 2.27564 13.7988 2.84443 13.7988 3.43751C13.7988 4.03059 13.5632 4.59938 13.1439 5.01876L12.5376 5.62501L9.3751 2.46251L9.98135 1.85626C10.4007 1.43689 10.9695 1.20129 11.5626 1.20129C12.1557 1.20129 12.7245 1.43689 13.1439 1.85626Z" fill="#212121"/>
</svg>