<svg xmlns="http://www.w3.org/2000/svg" width="15" height="16" viewBox="0 0 15 16" fill="none">
  <g opacity="0.35">
    <path d="M8.7126 3.62501L11.8751 6.78751L5.66385 13C5.49082 13.1731 5.2756 13.2981 5.03948 13.3625L1.84198 14.2344C1.76228 14.256 1.67829 14.2562 1.5985 14.2349C1.51871 14.2137 1.44596 14.1717 1.3876 14.1133C1.32924 14.0548 1.28736 13.982 1.26617 13.9022C1.24499 13.8224 1.24527 13.7384 1.26698 13.6588L2.13885 10.4613C2.20329 10.2251 2.32824 10.0099 2.50135 9.83688L8.71135 3.62501H8.7126ZM13.1439 2.35626C13.5632 2.77564 13.7988 3.34443 13.7988 3.93751C13.7988 4.53059 13.5632 5.09938 13.1439 5.51876L12.5376 6.12501L9.3751 2.96251L9.98135 2.35626C10.4007 1.93689 10.9695 1.70129 11.5626 1.70129C12.1557 1.70129 12.7245 1.93689 13.1439 2.35626Z" fill="#212121"/>
  </g>
</svg>