<svg xmlns="http://www.w3.org/2000/svg" width="20" height="20" viewBox="0 0 20 20" fill="none">
  <path d="M11.915 2.48665L17.5133 8.08499C18.0212 8.59289 18.3065 9.28173 18.3065 9.99999C18.3065 10.7182 18.0212 11.4071 17.5133 11.915L11.915 17.5125C11.4071 18.0203 10.7182 18.3057 9.99999 18.3057C9.28173 18.3057 8.59289 18.0203 8.08499 17.5125L2.48665 11.915C1.97879 11.4071 1.69348 10.7182 1.69348 9.99999C1.69348 9.28173 1.97879 8.59289 2.48665 8.08499L8.08499 2.48665C8.59289 1.97879 9.28173 1.69348 9.99999 1.69348C10.7182 1.69348 11.4071 1.97879 11.915 2.48665ZM11.3258 6.01665L11.2558 5.95582C11.1496 5.87714 11.0211 5.83418 10.8889 5.83313C10.7566 5.83209 10.6275 5.873 10.52 5.94999L10.4417 6.01665L10.3817 6.08665C10.3028 6.19283 10.2597 6.32126 10.2585 6.45348C10.2574 6.58571 10.2981 6.7149 10.375 6.82249L10.4417 6.90082L11.0408 7.49915H9.79165L9.65165 7.50415C9.09421 7.53816 8.56837 7.77455 8.17293 8.16891C7.77749 8.56328 7.53967 9.08847 7.50415 9.64582L7.49999 9.79165V12.5L7.50582 12.5842C7.5264 12.7337 7.60045 12.8708 7.71427 12.9701C7.82809 13.0693 7.97398 13.124 8.12499 13.124C8.27599 13.124 8.42189 13.0693 8.53571 12.9701C8.64953 12.8708 8.72357 12.7337 8.74415 12.5842L8.74999 12.5V9.79165L8.75499 9.68499C8.77942 9.44667 8.88525 9.22405 9.05465 9.05465C9.22405 8.88525 9.44667 8.77942 9.68499 8.75499L9.79165 8.74999H11.0417L10.4417 9.34999L10.3817 9.41999C10.2919 9.54031 10.2485 9.68891 10.2593 9.83861C10.2701 9.98831 10.3345 10.1291 10.4406 10.2353C10.5466 10.3415 10.6874 10.4059 10.8371 10.4169C10.9868 10.4279 11.1354 10.3846 11.2558 10.295L11.3258 10.2342L12.9925 8.56749L13.0533 8.49749C13.132 8.39122 13.175 8.26274 13.176 8.13052C13.1771 7.9983 13.1361 7.86915 13.0592 7.76165L12.9925 7.68332L11.3258 6.01665Z" fill="#15171C" fill-opacity="0.5"/>
</svg>