<svg xmlns="http://www.w3.org/2000/svg" width="18" height="19" viewBox="0 0 18 19" fill="none">
  <g opacity="0.5">
    <path d="M9 2C13.1423 2 16.5 5.35775 16.5 9.5C16.5 13.6423 13.1423 17 9 17C4.85775 17 1.5 13.6423 1.5 9.5C1.5 5.35775 4.85775 2 9 2ZM9 5.75C8.86407 5.75001 8.73274 5.79923 8.6303 5.88858C8.52786 5.97792 8.46124 6.10134 8.44275 6.236L8.4375 6.3125V8.9375H5.8125C5.66998 8.93754 5.53279 8.99168 5.42866 9.08898C5.32452 9.18628 5.26119 9.31947 5.25148 9.46166C5.24177 9.60385 5.28639 9.74442 5.37632 9.85497C5.46626 9.96553 5.59481 10.0378 5.736 10.0573L5.8125 10.0625H8.4375V12.6875C8.43754 12.83 8.49168 12.9672 8.58898 13.0713C8.68628 13.1755 8.81947 13.2388 8.96166 13.2485C9.10385 13.2582 9.24442 13.2136 9.35497 13.1237C9.46553 13.0337 9.53782 12.9052 9.55725 12.764L9.5625 12.6875V10.0625H12.1875C12.33 10.0625 12.4672 10.0083 12.5713 9.91102C12.6755 9.81372 12.7388 9.68053 12.7485 9.53834C12.7582 9.39615 12.7136 9.25558 12.6237 9.14503C12.5337 9.03447 12.4052 8.96218 12.264 8.94275L12.1875 8.9375H9.5625V6.3125C9.5625 6.16332 9.50324 6.02024 9.39775 5.91475C9.29226 5.80926 9.14918 5.75 9 5.75Z" fill="#15171C"/>
  </g>
</svg>