<svg xmlns="http://www.w3.org/2000/svg" width="17" height="18" viewBox="0 0 17 18" fill="none">
  <path fill-rule="evenodd" clip-rule="evenodd" d="M0 9C0 4.30558 3.80558 0.5 8.5 0.5C13.1944 0.5 17 4.30558 17 9C17 13.6944 13.1944 17.5 8.5 17.5C3.80558 17.5 0 13.6944 0 9ZM4.3 9C4.3 8.6134 4.6134 8.3 5 8.3H7.8V5.5C7.8 5.1134 8.1134 4.8 8.5 4.8C8.8866 4.8 9.2 5.1134 9.2 5.5V8.3H12C12.3866 8.3 12.7 8.6134 12.7 9C12.7 9.3866 12.3866 9.7 12 9.7H9.2V12.5C9.2 12.8866 8.8866 13.2 8.5 13.2C8.1134 13.2 7.8 12.8866 7.8 12.5V9.7H5C4.6134 9.7 4.3 9.3866 4.3 9Z" fill="white"/>
</svg>