<svg xmlns="http://www.w3.org/2000/svg" width="18" height="18" viewBox="0 0 18 18" fill="none">
  <path d="M6.18748 3C6.33667 3 6.47974 3.05926 6.58523 3.16475C6.69072 3.27024 6.74998 3.41332 6.74998 3.5625V5.64225L8.15548 7.7535C8.21709 7.84589 8.24997 7.95445 8.24998 8.0655V11.4375C8.24998 11.5867 8.19072 11.7298 8.08523 11.8352C7.97974 11.9407 7.83667 12 7.68748 12H6.74698V14.4405C6.74548 14.5821 6.69065 14.7179 6.59343 14.8208C6.49621 14.9237 6.36376 14.9862 6.22251 14.9957C6.08125 15.0053 5.94159 14.9612 5.83139 14.8724C5.72118 14.7835 5.64855 14.6563 5.62798 14.5162L5.62273 14.4405L5.62198 12L4.12498 11.9992V14.4427C4.12475 14.5852 4.07048 14.7223 3.97312 14.8263C3.87577 14.9303 3.74258 14.9934 3.60045 15.003C3.45832 15.0127 3.31784 14.968 3.20736 14.8781C3.09689 14.7881 3.02465 14.6596 3.00523 14.5185L3.00073 14.4427L2.99998 11.9992L2.06248 12C1.91343 11.9998 1.77055 11.9405 1.66522 11.835C1.55989 11.7295 1.50073 11.5866 1.50073 11.4375V8.0655C1.50074 7.95445 1.53363 7.84589 1.59523 7.7535L3.00073 5.64225V3.5625C3.00073 3.41332 3.06 3.27024 3.16548 3.16475C3.27097 3.05926 3.41405 3 3.56323 3H6.18748ZM11.4405 3.00075H14.8125C14.9485 3.00078 15.0799 3.05011 15.1824 3.13961C15.2849 3.2291 15.3514 3.3527 15.3697 3.4875L15.375 3.56325L15.3742 6H15.9367C16.0859 6 16.229 6.05926 16.3345 6.16475C16.44 6.27024 16.4992 6.41332 16.4992 6.5625V9.9345C16.4994 10.0455 16.4668 10.154 16.4055 10.2465L15 12.3577V14.4375C15 14.5867 14.9407 14.7298 14.8352 14.8352C14.7297 14.9407 14.5867 15 14.4375 15H11.814C11.6648 15 11.5217 14.9407 11.4162 14.8352C11.3107 14.7298 11.2515 14.5867 11.2515 14.4375V12.3577L9.84598 10.2465C9.78438 10.1541 9.75149 10.0455 9.75148 9.9345V6.5625C9.75148 6.41332 9.81075 6.27024 9.91623 6.16475C10.0217 6.05926 10.1648 6 10.314 6H10.878V3.56325C10.878 3.42721 10.9273 3.29579 11.0168 3.19333C11.1063 3.09087 11.2299 3.02432 11.3647 3.006L11.4405 3.00075ZM14.25 4.12575H12.003V6H14.2492L14.25 4.12575Z" fill="#15171C" fill-opacity="0.72"/>
</svg>