<svg xmlns="http://www.w3.org/2000/svg" width="23" height="22" viewBox="0 0 23 22" fill="none">
  <path d="M15.3267 4.94264C15.1749 5.12609 15.1085 5.35751 15.142 5.58605C15.1755 5.81458 15.3061 6.02152 15.5052 6.16138C16.536 6.88472 17.3135 7.87107 17.7408 8.9979C18.1682 10.1247 18.2267 11.3424 17.909 12.4996C17.5914 13.6567 16.9116 14.7025 15.9541 15.5068C14.9966 16.3112 13.8036 16.8387 12.5234 17.0239L13.193 16.4063C13.3651 16.2422 13.4603 16.0225 13.4581 15.7944C13.456 15.5663 13.3566 15.3481 13.1815 15.1868C13.0064 15.0255 12.7695 14.934 12.5219 14.9321C12.2742 14.9301 12.0356 15.0178 11.8575 15.1762L9.49623 17.351C9.31917 17.5141 9.2197 17.7353 9.2197 17.966C9.2197 18.1967 9.31917 18.4179 9.49623 18.581L11.8575 20.7558C12.0356 20.9143 12.2742 21.002 12.5219 21C12.7695 20.998 13.0064 20.9065 13.1815 20.7452C13.3566 20.5839 13.456 20.3657 13.4581 20.1377C13.4603 19.9096 13.3651 19.6898 13.193 19.5258L12.3968 18.7933C14.0894 18.6277 15.6891 17.9979 16.9887 16.9855C18.2883 15.973 19.228 14.6246 19.6862 13.1148C20.1444 11.605 20.0999 10.0032 19.5586 8.5169C19.0173 7.03059 18.004 5.72817 16.6499 4.77823C16.4507 4.6385 16.1995 4.57733 15.9513 4.60816C15.7032 4.63899 15.4785 4.7593 15.3267 4.94264ZM13.5038 3.43248L11.1425 1.25772C10.9729 1.10004 10.7443 1.00803 10.5035 1.0005C10.2627 0.992975 10.0278 1.07051 9.84704 1.21724C9.66625 1.36396 9.55319 1.56878 9.53099 1.78977C9.50879 2.01076 9.57914 2.23121 9.72764 2.40599L9.80603 2.48777L10.6022 3.2211C8.93792 3.38415 7.36288 3.99604 6.07454 4.98008C4.78621 5.96412 3.84191 7.27651 3.36001 8.75276C2.87811 10.229 2.88005 11.8034 3.36558 13.2787C3.85112 14.7539 4.79865 16.0643 6.08941 17.0457C6.28319 17.1869 6.52935 17.2526 6.77509 17.2286C7.02084 17.2046 7.24658 17.0928 7.40391 16.9173C7.56123 16.7418 7.6376 16.5165 7.61664 16.2897C7.59567 16.0629 7.47904 15.8528 7.29176 15.7043C6.30963 14.9573 5.58259 13.965 5.19801 12.8467C4.81343 11.7283 4.78768 10.5315 5.12384 9.39994C5.46001 8.26843 6.14379 7.25039 7.09301 6.46817C8.04224 5.68596 9.21652 5.17284 10.4747 4.99049L9.80603 5.60725C9.63664 5.7638 9.53829 5.97386 9.53097 6.19477C9.52364 6.41568 9.60789 6.63088 9.7666 6.79666C9.92531 6.96243 10.1466 7.06635 10.3855 7.08731C10.6243 7.10827 10.8629 7.0447 11.0528 6.9095L11.1416 6.8373L13.5028 4.66253C13.6654 4.51274 13.7631 4.31345 13.7776 4.10204C13.792 3.89062 13.7222 3.68163 13.5812 3.51426L13.5038 3.43248Z" fill="#171E26" fill-opacity="0.5"/>
</svg>