<svg xmlns="http://www.w3.org/2000/svg" width="18" height="18" viewBox="0 0 18 18" fill="none">
  <g clip-path="url(#clip0_1738_5292)">
    <path d="M9.80552 5.95027C9.61894 5.95277 9.84061 6.04619 10.0843 6.08378C10.1518 6.03108 10.2125 5.97812 10.267 5.92642C10.1155 5.96351 9.96113 5.96439 9.80552 5.95027ZM10.8067 5.70062C10.9183 5.54714 10.9992 5.37929 11.0278 5.2057C11.0027 5.32933 10.9359 5.43611 10.8724 5.54901C10.5236 5.76869 10.8395 5.41863 10.8722 5.28537C10.4973 5.75782 10.8205 5.56862 10.8067 5.70062ZM11.1768 4.73849C11.1995 4.40242 11.1107 4.50882 11.0809 4.63683C11.1156 4.65507 11.1432 4.87387 11.1768 4.73849ZM9.09766 0.145264C9.19732 0.162998 9.31296 0.176735 9.29635 0.200589C9.40575 0.176485 9.43036 0.154755 9.09766 0.145264ZM9.29648 0.200589L9.22642 0.215201L9.29173 0.209206L9.29648 0.200589Z" fill="#D70751"/>
    <path d="M14.2505 7.9099C14.2676 8.38589 14.1164 8.61719 13.9797 9.02619L13.7338 9.15287C13.5328 9.55754 13.7538 9.40978 13.6098 9.73151C13.2956 10.0205 12.6578 10.6356 12.4535 10.692C12.3042 10.6886 12.5545 10.5095 12.5872 10.4396C12.1671 10.7383 12.25 10.888 11.6074 11.0698L11.5888 11.0263C10.0047 11.7986 7.80396 10.2684 7.83287 8.1808C7.81613 8.31319 7.78475 8.28009 7.74976 8.33329C7.66798 7.25935 8.22862 6.18069 9.17416 5.73957C10.099 5.26555 11.1832 5.45981 11.8452 6.09992C11.4815 5.6062 10.7572 5.08272 9.8993 5.13119C9.05854 5.14538 8.27179 5.69879 8.00935 6.29989C7.57879 6.58064 7.52859 7.38269 7.34107 7.52966C7.08833 9.45253 7.81594 10.283 9.04694 11.2603C9.24016 11.3955 9.10133 11.4162 9.12719 11.519C8.71832 11.3208 8.34405 11.0214 8.03597 10.6547C8.19952 10.9024 8.37581 11.1431 8.60383 11.3323C8.21797 11.1973 7.70279 10.3643 7.55274 10.3304C8.2174 11.5634 10.249 12.4927 11.3134 12.0315C10.8209 12.0504 10.1954 12.0419 9.64237 11.8301C9.40941 11.7062 9.09391 11.4499 9.15039 11.402C10.6026 11.9637 12.1023 11.8272 13.3586 10.784C13.6784 10.5259 14.0276 10.0871 14.1286 10.0812C13.9766 10.318 14.1546 10.1951 14.0379 10.4041C14.3558 9.87198 13.8992 10.1874 14.3669 9.48524L14.5396 9.73151C14.4749 9.2894 15.0692 8.75313 15.0087 8.05451C15.1451 7.84094 15.1607 8.28462 15.0161 8.77598C15.2168 8.23084 15.0692 8.14317 15.1205 7.69318C15.1759 7.84449 15.2495 8.00506 15.2869 8.16484C15.1561 7.63782 15.4206 7.27768 15.4864 6.97132C15.4214 6.94177 15.2847 7.20419 15.2531 6.58201C15.2578 6.31171 15.3259 6.44036 15.352 6.37377C15.301 6.34323 15.1666 6.13597 15.085 5.73859C15.1437 5.64501 15.2432 5.98072 15.3238 5.99432C15.2719 5.6785 15.1827 5.43755 15.1789 5.19502C14.9431 4.68475 15.0954 5.26319 14.9045 4.97594C14.6535 4.16542 15.1125 4.78779 15.1437 4.41977C15.5237 4.99013 15.7403 5.87473 15.8402 6.24098C15.7641 5.79435 15.6414 5.3615 15.4914 4.94284C15.6072 4.99348 15.3052 4.02416 15.6418 4.66604C15.2826 3.29776 14.1056 2.01913 13.0225 1.41941C13.1547 1.54491 13.3219 1.70253 13.2622 1.72735C12.7232 1.39538 12.8179 1.36917 12.7407 1.2289C12.3023 1.0439 12.2731 1.24407 11.983 1.22929C11.1558 0.774581 10.9964 0.82285 10.2351 0.53836L10.2698 0.706217C9.72187 0.517082 9.63134 0.777537 9.03933 0.706611C9.00339 0.67765 9.22912 0.601011 9.41512 0.573231C8.88529 0.645733 8.91001 0.464873 8.3916 0.59313C8.5192 0.500335 8.65461 0.43867 8.79077 0.359863C8.35889 0.387051 7.75927 0.620318 7.94431 0.407935C7.23971 0.733799 5.98817 1.19107 5.28586 1.87334L5.2638 1.72045C4.94203 2.12059 3.8605 2.91555 3.77436 3.43429L3.68821 3.45498C3.52104 3.74873 3.41245 4.08149 3.27971 4.38352C3.06082 4.77026 2.9587 4.53246 2.98989 4.59314C2.55914 5.49784 2.34482 6.25792 2.16016 6.88168C2.29176 7.08559 2.16339 8.10948 2.21302 8.92887C1.99699 12.9764 4.95496 16.9058 8.1883 17.8129C8.66222 17.9888 9.36681 17.9825 9.96624 17.9999C9.25917 17.7902 9.16789 17.8889 8.4787 17.6401C7.98177 17.3974 7.87299 17.1206 7.52079 16.804L7.66019 17.0591C6.96985 16.8059 7.25873 16.7459 6.69695 16.5616L6.84586 16.3605C6.62203 16.3428 6.25309 15.97 6.1523 15.7629L5.90735 15.773C5.61334 15.3975 5.45645 15.1262 5.46805 14.916L5.38894 15.0622C5.29936 14.9028 4.30665 13.6519 4.82165 13.9431C4.72599 13.8529 4.59876 13.7959 4.46088 13.5361L4.56567 13.4122C4.31825 13.0818 4.10963 12.6584 4.12561 12.5173C4.25778 12.7021 4.34944 12.7368 4.44035 12.7685C3.81448 11.1601 3.7793 12.68 3.30558 11.1313L3.40561 11.123C3.32897 11.0027 3.28199 10.8728 3.22038 10.745L3.26412 10.2948C2.81379 9.75574 3.13822 8.00053 3.20345 7.03811C3.24814 6.64683 3.57943 6.23014 3.83103 5.57664L3.67775 5.54946C3.971 5.01988 5.35166 3.42188 5.99141 3.50384C6.3012 3.10075 5.92979 3.50226 5.86913 3.401C6.54976 2.67145 6.76371 2.8856 7.22298 2.7542C7.718 2.44981 6.79794 2.87319 7.03261 2.63815C7.88897 2.41178 7.63927 2.12315 8.75616 2.00829C8.87407 2.07764 8.48288 2.11547 8.38475 2.20551C9.0979 1.84379 10.6419 1.92634 11.6453 2.40607C12.8086 2.96973 14.1164 4.6351 14.1681 6.20197L14.2269 6.21832C14.1972 6.84129 14.3189 7.56177 14.1077 8.22335L14.2505 7.9099Z" fill="#D70751"/>
    <path d="M7.7687 6.20614L7.74235 6.3369C7.86511 6.50362 7.96252 6.6842 8.119 6.81408C8.00635 6.59441 7.9228 6.50362 7.7687 6.20614ZM8.05855 6.1949C7.99361 6.12297 7.9554 6.03655 7.91219 5.95063C7.9534 6.10186 8.03782 6.23187 8.11613 6.36425L8.05855 6.1949ZM13.1893 5.07968L13.162 5.14862C13.1118 5.50554 13.003 5.85871 12.8366 6.18629C13.0205 5.84073 13.139 5.4627 13.1893 5.07968ZM9.13493 0.0556986C9.26094 0.00961612 9.4449 0.030347 9.57902 0C9.40444 0.0146115 9.23072 0.0233534 9.05925 0.0452082L9.13493 0.0556986ZM4.70515 2.41127C4.73425 2.68027 4.50284 2.7848 4.75635 2.60722C4.89248 2.30075 4.7034 2.52267 4.70515 2.41127ZM4.40693 3.65687C4.4655 3.47741 4.47599 3.36976 4.49834 3.26573C4.33687 3.47229 4.42391 3.51638 4.40693 3.65687Z" fill="#D70751"/>
  </g>
  <defs>
    <clipPath id="clip0_1738_5292">
      <rect width="18" height="18" fill="white"/>
    </clipPath>
  </defs>
</svg>