<svg xmlns="http://www.w3.org/2000/svg" width="18" height="18" viewBox="0 0 18 18" fill="none">
  <path d="M14.2282 12.039C14.0701 11.9185 13.8706 11.8658 13.6735 11.8924C13.4765 11.9189 13.2981 12.0227 13.1775 12.1807C12.5539 12.9993 11.7035 13.6166 10.732 13.956C9.76046 14.2954 8.71065 14.3418 7.71297 14.0896C6.71528 13.8373 5.81369 13.2975 5.12021 12.5372C4.42672 11.7769 3.9719 10.8296 3.81225 9.81299L4.34475 10.3447C4.4862 10.4814 4.67565 10.557 4.8723 10.5552C5.06895 10.5535 5.25706 10.4747 5.39611 10.3356C5.53517 10.1966 5.61405 10.0084 5.61575 9.81179C5.61746 9.61515 5.54187 9.42569 5.40525 9.28424L3.53025 7.40924C3.3896 7.26864 3.19887 7.18965 3 7.18965C2.80112 7.18965 2.61039 7.26864 2.46975 7.40924L0.594748 9.28424C0.458128 9.42569 0.382534 9.61515 0.384241 9.81179C0.38595 10.0084 0.464828 10.1966 0.603884 10.3356C0.742941 10.4747 0.931049 10.5535 1.1277 10.5552C1.32434 10.557 1.5138 10.4814 1.65525 10.3447L2.28675 9.71249C2.42956 11.0565 2.97254 12.3268 3.8454 13.3588C4.71826 14.3907 5.8808 15.1369 7.18253 15.5008C8.48425 15.8646 9.86522 15.8293 11.1467 15.3994C12.4281 14.9696 13.551 14.165 14.37 13.0897C14.4905 12.9316 14.5432 12.7321 14.5166 12.535C14.49 12.338 14.3863 12.1596 14.2282 12.039ZM15.5302 10.5915L17.4052 8.71649C17.5412 8.58184 17.6205 8.40032 17.627 8.20908C17.6335 8.01785 17.5666 7.83137 17.4401 7.68781C17.3136 7.54425 17.1371 7.45447 16.9465 7.43684C16.756 7.41921 16.5659 7.47508 16.4152 7.59299L16.3447 7.65524L15.7125 8.28749C15.5719 6.9659 15.0444 5.71521 14.196 4.69219C13.3476 3.66916 12.2161 2.91933 10.9433 2.53666C9.67055 2.154 8.31315 2.15554 7.04125 2.54109C5.76936 2.92664 4.63957 3.67905 3.7935 4.70399C3.67172 4.85787 3.61511 5.05334 3.63579 5.24847C3.65647 5.44361 3.75281 5.62287 3.90413 5.74779C4.05546 5.87272 4.24972 5.93336 4.44524 5.91672C4.64076 5.90007 4.82197 5.80746 4.95 5.65874C5.594 4.87886 6.44951 4.30155 7.41371 3.99616C8.37791 3.69078 9.40979 3.67033 10.3853 3.93727C11.3609 4.2042 12.2386 4.74717 12.913 5.50092C13.5874 6.25467 14.0298 7.18713 14.187 8.18624L13.6552 7.65524C13.5203 7.52073 13.3392 7.44264 13.1487 7.43682C12.9582 7.43101 12.7727 7.4979 12.6298 7.62393C12.4869 7.74996 12.3973 7.92566 12.3792 8.11535C12.3611 8.30504 12.4159 8.4945 12.5325 8.64524L12.5947 8.71574L14.4697 10.5907C14.5989 10.7199 14.7707 10.7974 14.953 10.8089C15.1353 10.8204 15.3154 10.7649 15.4597 10.653L15.5302 10.5915Z" fill="#15171C" fill-opacity="0.72"/>
</svg>