<svg xmlns="http://www.w3.org/2000/svg" width="16" height="17" viewBox="0 0 16 17" fill="none">
  <path d="M4.71533 2.5C3.77199 2.5 2.95133 3.14667 2.72999 4.064L2.21866 6.188C2.31176 6.17372 2.40581 6.16659 2.49999 6.16667H5.16666C5.65289 6.16667 6.11921 6.35982 6.46302 6.70364C6.80684 7.04745 6.99999 7.51377 6.99999 8V12.5H12.2987C12.6565 12.5 13.0098 12.4189 13.3318 12.2627C13.6538 12.1065 13.9362 11.8794 14.1577 11.5983C14.3792 11.3172 14.5341 10.9895 14.6107 10.64C14.6873 10.2904 14.6837 9.92796 14.6 9.58L13.272 4.064C13.1647 3.61828 12.9105 3.22165 12.5504 2.93795C12.1902 2.65425 11.7451 2.49998 11.2867 2.5H4.71533ZM6.99266 14.1667C6.99799 14.112 6.99999 14.056 6.99999 14V13.1667H11.5C11.6326 13.1667 11.7598 13.2193 11.8535 13.3131C11.9473 13.4069 12 13.5341 12 13.6667C12 13.7993 11.9473 13.9265 11.8535 14.0202C11.7598 14.114 11.6326 14.1667 11.5 14.1667H6.99266ZM3.83333 10.1667C4.05434 10.1667 4.2663 10.0789 4.42258 9.92259C4.57886 9.76631 4.66666 9.55435 4.66666 9.33333C4.66666 9.11232 4.57886 8.90036 4.42258 8.74408C4.2663 8.5878 4.05434 8.5 3.83333 8.5C3.61231 8.5 3.40035 8.5878 3.24407 8.74408C3.08779 8.90036 2.99999 9.11232 2.99999 9.33333C2.99999 9.55435 3.08779 9.76631 3.24407 9.92259C3.40035 10.0789 3.61231 10.1667 3.83333 10.1667ZM1.33333 8C1.33333 7.356 1.85599 6.83333 2.49999 6.83333H5.16666C5.81133 6.83333 6.33333 7.356 6.33333 8V14C6.33333 14.3094 6.21041 14.6062 5.99162 14.825C5.77283 15.0438 5.47608 15.1667 5.16666 15.1667H2.49999C2.19058 15.1667 1.89383 15.0438 1.67504 14.825C1.45624 14.6062 1.33333 14.3094 1.33333 14V8ZM2.49999 7.83333C2.45579 7.83333 2.4134 7.85089 2.38214 7.88215C2.35089 7.9134 2.33333 7.9558 2.33333 8V14C2.33333 14.092 2.40799 14.1667 2.49999 14.1667H5.16666C5.21086 14.1667 5.25326 14.1491 5.28451 14.1179C5.31577 14.0866 5.33333 14.0442 5.33333 14V8C5.33333 7.9558 5.31577 7.9134 5.28451 7.88215C5.25326 7.85089 5.21086 7.83333 5.16666 7.83333H2.49999Z" fill="#212121"/>
</svg>