<svg xmlns="http://www.w3.org/2000/svg" width="20" height="20" viewBox="0 0 20 20" fill="none">
  <path d="M8.33325 2.70837C7.94648 2.70837 7.57554 2.86202 7.30205 3.13551C7.02856 3.409 6.87492 3.77993 6.87492 4.16671V6.87504H4.16659C3.77981 6.87504 3.40888 7.02869 3.13539 7.30218C2.8619 7.57567 2.70825 7.9466 2.70825 8.33337V11.6667C2.70825 12.4717 3.36159 13.125 4.16659 13.125H6.87492V15.8334C6.87492 16.6384 7.52825 17.2917 8.33325 17.2917H11.6666C12.0534 17.2917 12.4243 17.1381 12.6978 16.8646C12.9713 16.5911 13.1249 16.2201 13.1249 15.8334V13.125H15.8333C16.22 13.125 16.591 12.9714 16.8644 12.6979C17.1379 12.4244 17.2916 12.0535 17.2916 11.6667V8.33337C17.2916 7.9466 17.1379 7.57567 16.8644 7.30218C16.591 7.02869 16.22 6.87504 15.8333 6.87504H13.1249V4.16671C13.1249 3.77993 12.9713 3.409 12.6978 3.13551C12.4243 2.86202 12.0534 2.70837 11.6666 2.70837H8.33325Z" fill="#15171C" fill-opacity="0.5"/>
</svg>