<svg xmlns="http://www.w3.org/2000/svg" width="20" height="20" viewBox="0 0 20 20" fill="none">
  <path d="M11.4201 13.5783C11.4974 13.6558 11.5588 13.7477 11.6007 13.8488C11.6425 13.9499 11.664 14.0583 11.664 14.1678C11.664 14.2772 11.6424 14.3856 11.6004 14.4867C11.5585 14.5878 11.4971 14.6797 11.4197 14.7571C11.3422 14.8344 11.2503 14.8958 11.1492 14.9377C11.048 14.9795 10.9397 15.001 10.8302 15.001C10.7207 15.001 10.6124 14.9794 10.5113 14.9374C10.4101 14.8955 10.3183 14.8341 10.2409 14.7567L6.07674 10.5867C5.92077 10.4304 5.83317 10.2187 5.83317 9.99791C5.83317 9.77715 5.92077 9.5654 6.07674 9.40916L10.2409 5.24416C10.3972 5.08779 10.6091 4.9999 10.8302 4.99983C11.0513 4.99975 11.2633 5.08749 11.4197 5.24374C11.576 5.4 11.6639 5.61198 11.664 5.83303C11.6641 6.05409 11.5763 6.26613 11.4201 6.42249L8.67508 9.16666H10.8334C12.5654 9.16668 14.2295 9.84078 15.4732 11.0462C16.7169 12.2517 17.4426 13.8938 17.4967 15.625L17.5001 15.8333C17.5001 16.0543 17.4123 16.2663 17.256 16.4226C17.0997 16.5789 16.8878 16.6667 16.6667 16.6667C16.4457 16.6667 16.2338 16.5789 16.0775 16.4226C15.9212 16.2663 15.8334 16.0543 15.8334 15.8333C15.8335 14.5397 15.3321 13.2964 14.4347 12.3646C13.5373 11.4328 12.3137 10.8852 11.0209 10.8367L10.8334 10.8333H8.67841L11.4201 13.5783ZM7.25341 5.24416C7.40964 5.40043 7.4974 5.61236 7.4974 5.83333C7.4974 6.0543 7.40964 6.26622 7.25341 6.42249L3.67841 9.99833L7.25341 13.5783C7.33078 13.6558 7.39214 13.7477 7.43399 13.8488C7.47585 13.9499 7.49737 14.0583 7.49733 14.1678C7.49729 14.2772 7.47569 14.3856 7.43377 14.4867C7.39185 14.5878 7.33042 14.6797 7.25299 14.7571C7.17557 14.8344 7.08366 14.8958 6.98252 14.9377C6.88138 14.9795 6.77299 15.001 6.66353 15.001C6.55407 15.001 6.4457 14.9794 6.34459 14.9374C6.24348 14.8955 6.15161 14.8341 6.07424 14.7567L1.91008 10.5867C1.75411 10.4304 1.6665 10.2187 1.6665 9.99791C1.6665 9.77715 1.75411 9.5654 1.91008 9.40916L6.07508 5.24416C6.15247 5.16668 6.24438 5.10522 6.34554 5.06328C6.44671 5.02134 6.55515 4.99976 6.66466 4.99976C6.77417 4.99976 6.88261 5.02134 6.98378 5.06328C7.08494 5.10522 7.17602 5.16668 7.25341 5.24416Z" fill="#15171C" fill-opacity="0.5"/>
</svg>