<svg xmlns="http://www.w3.org/2000/svg" width="26" height="26" viewBox="0 0 26 26" fill="none">
  <path d="M13.0001 5.14584C14.5926 5.1459 16.1474 5.63002 17.4584 6.534C18.7694 7.43797 19.7746 8.71909 20.3408 10.2075C20.907 11.6959 21.0074 13.3212 20.6286 14.8679C20.2499 16.4147 19.41 17.8098 18.2202 18.8682C17.0304 19.9266 15.547 20.5984 13.9667 20.7944C12.3863 20.9905 10.7837 20.7015 9.37142 19.9658C7.95909 19.2302 6.80375 18.0826 6.0586 16.6752C5.31344 15.2679 5.01368 13.6673 5.19906 12.0857C5.27273 11.4487 4.81015 10.8333 4.1699 10.8333C3.61198 10.8333 3.12123 11.2212 3.05406 11.7758C2.77046 14.0802 3.29582 16.4115 4.54037 18.3715C5.78493 20.3315 7.67146 21.7985 9.87763 22.5219C12.0838 23.2453 14.4727 23.1802 16.6362 22.3377C18.7997 21.4952 20.6035 19.9276 21.7394 17.9027C22.8753 15.8778 23.2729 13.5213 22.8642 11.2358C22.4555 8.95034 21.2658 6.8777 19.4985 5.37202C17.7312 3.86633 15.4959 3.02105 13.1745 2.98059C10.8531 2.94013 8.5897 3.707 6.77098 5.15017V4.60417C6.77098 4.31671 6.65679 4.04102 6.45352 3.83776C6.25025 3.63449 5.97457 3.5203 5.68711 3.5203C5.39964 3.5203 5.12396 3.63449 4.92069 3.83776C4.71742 4.04102 4.60323 4.31671 4.60323 4.60417V7.52701C4.59125 7.54574 4.57934 7.56452 4.56748 7.58334H4.60431V7.85417C4.60431 8.14149 4.71845 8.41704 4.92162 8.6202C5.12478 8.82337 5.40033 8.93751 5.68765 8.93751H8.93765C9.22497 8.93751 9.50051 8.82337 9.70368 8.6202C9.90684 8.41704 10.021 8.14149 10.021 7.85417C10.021 7.56685 9.90684 7.2913 9.70368 7.08814C9.50051 6.88498 9.22497 6.77084 8.93765 6.77084H8.21615C9.5871 5.71479 11.2696 5.14329 13.0001 5.14584Z" fill="#15171C" fill-opacity="0.8"/>
</svg>