<svg xmlns="http://www.w3.org/2000/svg" width="16" height="16" viewBox="0 0 16 16" fill="none">
  <path d="M5.16124 3.42744C5.10973 3.37496 5.06947 3.31323 5.04274 3.24577C5.01602 3.17831 5.00335 3.10644 5.00547 3.03427C5.00759 2.96209 5.02446 2.89103 5.0551 2.82513C5.08575 2.75923 5.12957 2.69979 5.18408 2.6502C5.23858 2.60061 5.3027 2.56184 5.37276 2.53611C5.44283 2.51037 5.51747 2.49818 5.59243 2.50022C5.66739 2.50226 5.7412 2.5185 5.80964 2.548C5.87808 2.57751 5.93982 2.61971 5.99132 2.67219L10.8439 7.61928C10.9442 7.72134 11 7.85646 11 7.99691C11 8.13736 10.9442 8.27248 10.8439 8.37454L5.99132 13.3222C5.94016 13.3758 5.87844 13.4191 5.80974 13.4496C5.74105 13.48 5.66675 13.4971 5.59117 13.4997C5.51558 13.5022 5.44022 13.4903 5.36945 13.4646C5.29869 13.4389 5.23393 13.4 5.17894 13.35C5.12395 13.3 5.07983 13.24 5.04913 13.1734C5.01844 13.1069 5.00178 13.0351 5.00014 12.9623C4.99849 12.8895 5.01188 12.8171 5.03954 12.7493C5.0672 12.6815 5.10856 12.6197 5.16124 12.5675L9.64392 7.99691L5.16124 3.42744Z" fill="#15171C" fill-opacity="0.5"/>
</svg>