<svg xmlns="http://www.w3.org/2000/svg" width="18" height="18" viewBox="0 0 18 18" fill="none">
  <g opacity="0.72">
    <path d="M2.62524 9.75H9.60699C8.73478 10.6569 8.24841 11.8668 8.25024 13.125C8.25024 13.9403 8.45049 14.709 8.80449 15.3848C8.01699 15.6473 7.14849 15.75 6.37524 15.75C4.33374 15.75 1.62399 15.033 1.50399 12.5475L1.50024 12.375V10.875C1.50026 10.5953 1.60443 10.3257 1.79246 10.1187C1.98048 9.91166 2.23887 9.7821 2.51724 9.75525L2.62524 9.75ZM15.7502 5.625C15.7502 6.32119 15.4737 6.98887 14.9814 7.48116C14.4891 7.97344 13.8214 8.25 13.1252 8.25C12.4291 8.25 11.7614 7.97344 11.2691 7.48116C10.7768 6.98887 10.5002 6.32119 10.5002 5.625C10.5002 4.92881 10.7768 4.26113 11.2691 3.76884C11.7614 3.27656 12.4291 3 13.1252 3C13.8214 3 14.4891 3.27656 14.9814 3.76884C15.4737 4.26113 15.7502 4.92881 15.7502 5.625ZM6.37524 1.5C6.81846 1.5 7.25733 1.5873 7.6668 1.75691C8.07628 1.92652 8.44833 2.17512 8.76173 2.48851C9.07513 2.80191 9.32373 3.17397 9.49334 3.58344C9.66295 3.99292 9.75025 4.43179 9.75025 4.875C9.75025 5.31821 9.66295 5.75708 9.49334 6.16656C9.32373 6.57603 9.07513 6.94809 8.76173 7.26149C8.44833 7.57488 8.07628 7.82348 7.6668 7.99309C7.25733 8.1627 6.81846 8.25 6.37524 8.25C5.48014 8.25 4.62169 7.89442 3.98876 7.26149C3.35582 6.62855 3.00024 5.77011 3.00024 4.875C3.00024 3.97989 3.35582 3.12145 3.98876 2.48851C4.62169 1.85558 5.48014 1.5 6.37524 1.5ZM10.708 10.4813C10.7641 10.6752 10.7804 10.8785 10.7561 11.0789C10.7317 11.2793 10.6671 11.4728 10.5662 11.6476C10.4653 11.8225 10.3301 11.9752 10.1688 12.0966C10.0074 12.218 9.82324 12.3055 9.62724 12.354L9.18924 12.462C9.11904 12.9111 9.12056 13.3686 9.19375 13.8173L9.59875 13.9147C9.79643 13.9624 9.98237 14.0497 10.1453 14.1714C10.3082 14.2931 10.4446 14.4466 10.5463 14.6227C10.648 14.7988 10.7129 14.9937 10.7369 15.1956C10.761 15.3975 10.7438 15.6022 10.6862 15.7972L10.546 16.2712C10.876 16.5608 11.251 16.7955 11.6597 16.962L12.0295 16.5735C12.1696 16.4261 12.3382 16.3088 12.5251 16.2286C12.712 16.1484 12.9133 16.107 13.1166 16.107C13.32 16.107 13.5212 16.1484 13.7081 16.2286C13.895 16.3088 14.0636 16.4261 14.2037 16.5735L14.578 16.9672C14.9838 16.802 15.3594 16.5706 15.6895 16.2825L15.541 15.768C15.485 15.574 15.4688 15.3708 15.4933 15.1704C15.5177 14.97 15.5824 14.7767 15.6834 14.6019C15.7844 14.4271 15.9196 14.2745 16.081 14.1532C16.2423 14.0319 16.4265 13.9444 16.6225 13.896L17.0597 13.788C17.13 13.3386 17.1285 12.8809 17.0552 12.432L16.6502 12.3345C16.4526 12.2868 16.2668 12.1994 16.104 12.0777C15.9411 11.9559 15.8048 11.8024 15.7031 11.6263C15.6015 11.4503 15.5367 11.2554 15.5127 11.0535C15.4887 10.8516 15.506 10.647 15.5635 10.452L15.703 9.9795C15.373 9.6885 14.9969 9.45455 14.59 9.28725L14.2202 9.6765C14.0801 9.82401 13.9114 9.94146 13.7245 10.0217C13.5375 10.102 13.3362 10.1434 13.1327 10.1434C12.9293 10.1434 12.728 10.102 12.541 10.0217C12.354 9.94146 12.1854 9.82401 12.0452 9.6765L11.6717 9.28275C11.2637 9.44775 10.8887 9.68025 10.5595 9.96675L10.708 10.4813ZM13.1252 14.25C12.5252 14.25 12.0377 13.746 12.0377 13.125C12.0377 12.5033 12.5252 12 13.1252 12C13.7252 12 14.2127 12.5033 14.2127 13.125C14.2127 13.746 13.7252 14.25 13.1252 14.25Z" fill="#fff"/>
  </g>
</svg>