<svg xmlns="http://www.w3.org/2000/svg" width="20" height="20" viewBox="0 0 20 20" fill="none">
  <g clip-path="url(#clip0_238_31506)">
    <path d="M5.48482 8.3172H0.248825V11.6836H5.48482V8.3172Z" fill="#D2D2D2"/>
    <path d="M0.222431 9.61542H5.51123C6.02968 9.61542 6.44997 9.19513 6.44997 8.67668V7.95748C6.44997 7.43903 6.02968 7.01874 5.51123 7.01874H0.222431C-0.296021 7.01874 -0.716309 7.43903 -0.716309 7.95748V8.67668C-0.716309 9.19513 -0.296021 9.61542 0.222431 9.61542ZM0.222431 12.9819H5.51123C6.02968 12.9819 6.44997 12.5617 6.44997 12.0432V11.324C6.44997 10.8055 6.02968 10.3853 5.51123 10.3853H0.222431C-0.296021 10.3853 -0.716309 10.8055 -0.716309 11.324V12.0432C-0.716309 12.5617 -0.296021 12.9819 0.222431 12.9819Z" fill="#E7E3E6"/>
    <path d="M5.0668 12.1828C5.34272 12.1828 5.5664 11.9591 5.5664 11.6832C5.5664 11.4073 5.34272 11.1836 5.0668 11.1836C4.79088 11.1836 4.5672 11.4073 4.5672 11.6832C4.5672 11.9591 4.79088 12.1828 5.0668 12.1828Z" fill="#EC6E62"/>
    <path d="M3.6468 12.1828C3.92272 12.1828 4.1464 11.9591 4.1464 11.6832C4.1464 11.4073 3.92272 11.1836 3.6468 11.1836C3.37088 11.1836 3.1472 11.4073 3.1472 11.6832C3.1472 11.9591 3.37088 12.1828 3.6468 12.1828Z" fill="#85BD57"/>
    <path d="M5.0668 8.8164C5.34272 8.8164 5.5664 8.59272 5.5664 8.3168C5.5664 8.04088 5.34272 7.8172 5.0668 7.8172C4.79088 7.8172 4.5672 8.04088 4.5672 8.3168C4.5672 8.59272 4.79088 8.8164 5.0668 8.8164Z" fill="#EC6E62"/>
    <path d="M3.6468 8.8164C3.92272 8.8164 4.1464 8.59272 4.1464 8.3168C4.1464 8.04088 3.92272 7.8172 3.6468 7.8172C3.37088 7.8172 3.1472 8.04088 3.1472 8.3168C3.1472 8.59272 3.37088 8.8164 3.6468 8.8164Z" fill="#85BD57"/>
    <path d="M19.606 11.4968H12.4212V16.252H19.606V11.4968Z" fill="#4E4C4D"/>
    <path d="M12.3906 11.4947H19.6362C20.2327 11.4947 20.7163 11.0112 20.7163 10.4147V9.58721C20.7163 8.9907 20.2327 8.50714 19.6362 8.50714H12.3906C11.7941 8.50714 11.3105 8.9907 11.3105 9.58721V10.4147C11.3105 11.0112 11.7941 11.4947 12.3906 11.4947ZM12.3906 15.3681H19.6362C20.2327 15.3681 20.7163 14.8845 20.7163 14.288V13.4605C20.7163 12.864 20.2327 12.3805 19.6362 12.3805H12.3906C11.7941 12.3805 11.3105 12.864 11.3105 13.4605V14.288C11.3105 14.8845 11.7941 15.3681 12.3906 15.3681ZM12.3906 19.2395H19.6362C20.2327 19.2395 20.7163 18.7559 20.7163 18.1594V17.3319C20.7163 16.7354 20.2327 16.2519 19.6362 16.2519H12.3906C11.7941 16.2519 11.3105 16.7354 11.3105 17.3319V18.1594C11.3105 18.7559 11.7941 19.2395 12.3906 19.2395Z" fill="#656766"/>
    <path d="M19.1248 18.3207C19.4423 18.3207 19.6996 18.0633 19.6996 17.7459C19.6996 17.4284 19.4423 17.1711 19.1248 17.1711C18.8073 17.1711 18.55 17.4284 18.55 17.7459C18.55 18.0633 18.8073 18.3207 19.1248 18.3207Z" fill="#EC6E62"/>
    <path d="M17.4908 18.3207C17.8083 18.3207 18.0656 18.0633 18.0656 17.7459C18.0656 17.4284 17.8083 17.1711 17.4908 17.1711C17.1734 17.1711 16.916 17.4284 16.916 17.7459C16.916 18.0633 17.1734 18.3207 17.4908 18.3207Z" fill="#85BD57"/>
    <path d="M19.1248 14.4488C19.4423 14.4488 19.6996 14.1914 19.6996 13.874C19.6996 13.5565 19.4423 13.2992 19.1248 13.2992C18.8073 13.2992 18.55 13.5565 18.55 13.874C18.55 14.1914 18.8073 14.4488 19.1248 14.4488Z" fill="#EC6E62"/>
    <path d="M17.4908 14.4488C17.8083 14.4488 18.0656 14.1914 18.0656 13.874C18.0656 13.5565 17.8083 13.2992 17.4908 13.2992C17.1734 13.2992 16.916 13.5565 16.916 13.874C16.916 14.1914 17.1734 14.4488 17.4908 14.4488Z" fill="#85BD57"/>
    <path d="M19.1248 10.5754C19.4423 10.5754 19.6996 10.318 19.6996 10.0006C19.6996 9.68313 19.4423 9.42578 19.1248 9.42578C18.8073 9.42578 18.55 9.68313 18.55 10.0006C18.55 10.318 18.8073 10.5754 19.1248 10.5754Z" fill="#EC6E62"/>
    <path d="M17.4908 10.5754C17.8083 10.5754 18.0656 10.318 18.0656 10.0006C18.0656 9.68313 17.8083 9.42578 17.4908 9.42578C17.1734 9.42578 16.916 9.68313 16.916 10.0006C16.916 10.318 17.1734 10.5754 17.4908 10.5754Z" fill="#85BD57"/>
    <path d="M19.606 3.75H12.4212V8.5052H19.606V3.75Z" fill="#4E4C4D"/>
    <path d="M12.3906 3.74774H19.6362C20.2327 3.74774 20.7163 3.26418 20.7163 2.66767V1.8402C20.7163 1.24369 20.2327 0.760132 19.6362 0.760132H12.3906C11.7941 0.760132 11.3105 1.24369 11.3105 1.8402V2.66767C11.3105 3.26418 11.7941 3.74774 12.3906 3.74774ZM12.3906 7.62107H19.6362C20.2327 7.62107 20.7163 7.13751 20.7163 6.541V5.71353C20.7163 5.11702 20.2327 4.63346 19.6362 4.63346H12.3906C11.7941 4.63346 11.3105 5.11702 11.3105 5.71353V6.541C11.3105 7.13751 11.7941 7.62107 12.3906 7.62107Z" fill="#656766"/>
    <path d="M19.1248 6.7027C19.4423 6.7027 19.6996 6.44535 19.6996 6.1279C19.6996 5.81045 19.4423 5.5531 19.1248 5.5531C18.8073 5.5531 18.55 5.81045 18.55 6.1279C18.55 6.44535 18.8073 6.7027 19.1248 6.7027Z" fill="#EC6E62"/>
    <path d="M17.4908 6.7027C17.8083 6.7027 18.0656 6.44535 18.0656 6.1279C18.0656 5.81045 17.8083 5.5531 17.4908 5.5531C17.1734 5.5531 16.916 5.81045 16.916 6.1279C16.916 6.44535 17.1734 6.7027 17.4908 6.7027Z" fill="#85BD57"/>
    <path d="M19.1248 2.82923C19.4423 2.82923 19.6996 2.57188 19.6996 2.25443C19.6996 1.93697 19.4423 1.67963 19.1248 1.67963C18.8073 1.67963 18.55 1.93697 18.55 2.25443C18.55 2.57188 18.8073 2.82923 19.1248 2.82923Z" fill="#EC6E62"/>
    <path d="M17.4908 2.82923C17.8083 2.82923 18.0656 2.57188 18.0656 2.25443C18.0656 1.93697 17.8083 1.67963 17.4908 1.67963C17.1733 1.67963 16.916 1.93697 16.916 2.25443C16.916 2.57188 17.1733 2.82923 17.4908 2.82923Z" fill="#85BD57"/>
    <path d="M9.73802 10.1158L8.32373 11.5301C8.18101 11.6729 7.94961 11.6729 7.8069 11.5301C7.66426 11.3875 7.66417 11.1563 7.8067 11.0135L8.96095 9.85743L7.80655 8.70303C7.66405 8.56053 7.6638 8.32958 7.80598 8.18677L7.8069 8.18585C7.94953 8.0426 8.18135 8.04235 8.32429 8.18529L9.73802 9.59902C9.88074 9.74173 9.88074 9.97313 9.73802 10.1158Z" fill="#53B1E2"/>
  </g>
  <defs>
    <clipPath id="clip0_238_31506">
      <rect width="20" height="20" fill="white"/>
    </clipPath>
  </defs>
</svg>