<svg xmlns="http://www.w3.org/2000/svg" width="18" height="18" viewBox="0 0 18 18" fill="none">
  <path d="M6.88683 3.51923L7.4002 2.23846C7.48678 2.02161 7.6391 1.83509 7.83722 1.70332C8.03534 1.57155 8.27001 1.50069 8.51051 1.5H9.48949C9.72999 1.50069 9.96466 1.57155 10.1628 1.70332C10.3609 1.83509 10.5132 2.02161 10.5998 2.23846L11.1132 3.51923L12.8562 4.48846L14.265 4.28077C14.4996 4.25 14.7383 4.28732 14.9509 4.38799C15.1635 4.48866 15.3403 4.64814 15.4589 4.84615L15.9364 5.65385C16.0588 5.85502 16.1152 6.08732 16.0981 6.3201C16.0811 6.55288 15.9914 6.77519 15.8409 6.95769L14.9694 8.03077V9.96923L15.8648 11.0423C16.0153 11.2248 16.105 11.4471 16.122 11.6799C16.1391 11.9127 16.0827 12.145 15.9603 12.3462L15.4828 13.1538C15.3642 13.3519 15.1874 13.5113 14.9748 13.612C14.7622 13.7127 14.5235 13.75 14.2889 13.7192L12.8801 13.5115L11.137 14.4808L10.6237 15.7615C10.5371 15.9784 10.3848 16.1649 10.1867 16.2967C9.98854 16.4284 9.75386 16.4993 9.51337 16.5H8.51051C8.27001 16.4993 8.03534 16.4284 7.83722 16.2967C7.6391 16.1649 7.48678 15.9784 7.4002 15.7615L6.88683 14.4808L5.14377 13.5115L3.73499 13.7192C3.50041 13.75 3.26166 13.7127 3.04908 13.612C2.8365 13.5113 2.65969 13.3519 2.54111 13.1538L2.06356 12.3462C1.94119 12.145 1.88481 11.9127 1.90186 11.6799C1.91891 11.4471 2.00859 11.2248 2.15907 11.0423L3.0306 9.96923V8.03077L2.13519 6.95769C1.98471 6.77519 1.89503 6.55288 1.87798 6.3201C1.86093 6.08732 1.91731 5.85502 2.03968 5.65385L2.51723 4.84615C2.63581 4.64814 2.81263 4.48866 3.02521 4.38799C3.23779 4.28732 3.47653 4.25 3.71111 4.28077L5.11989 4.48846L6.88683 3.51923ZM6.61224 9C6.61224 9.45642 6.75228 9.90259 7.01465 10.2821C7.27702 10.6616 7.64994 10.9574 8.08624 11.132C8.52255 11.3067 9.00265 11.3524 9.46583 11.2634C9.92901 11.1743 10.3545 10.9545 10.6884 10.6318C11.0223 10.309 11.2497 9.89786 11.3419 9.45021C11.434 9.00256 11.3867 8.53856 11.206 8.11688C11.0253 7.69521 10.7192 7.3348 10.3266 7.08122C9.9339 6.82765 9.47225 6.69231 9 6.69231C8.36673 6.69231 7.75939 6.93544 7.3116 7.36821C6.86381 7.80099 6.61224 8.38796 6.61224 9Z" stroke="#15171C" stroke-width="1.5" stroke-linecap="round" stroke-linejoin="round"/>
</svg>