<svg xmlns="http://www.w3.org/2000/svg" width="15" height="15" viewBox="0 0 15 15" fill="none">
  <path d="M7.78125 1.34375C9.37 2.53562 10.9919 3.125 12.6562 3.125C12.7806 3.125 12.8998 3.17439 12.9877 3.26229C13.0756 3.3502 13.125 3.46943 13.125 3.59375V6.875C13.125 10.0006 11.2762 12.2975 7.67188 13.7175C7.56143 13.761 7.43857 13.761 7.32812 13.7175C3.72375 12.2975 1.875 10 1.875 6.875V3.59375C1.875 3.46943 1.92439 3.3502 2.01229 3.26229C2.1002 3.17439 2.21943 3.125 2.34375 3.125C4.00813 3.125 5.63 2.53562 7.21875 1.34375C7.29989 1.2829 7.39858 1.25 7.5 1.25C7.60142 1.25 7.70011 1.2829 7.78125 1.34375ZM5.8 5.13875C5.71567 5.05879 5.60465 5.01301 5.48847 5.01029C5.37229 5.00756 5.25924 5.04809 5.17126 5.12401C5.08327 5.19992 5.02663 5.30581 5.0123 5.42114C4.99798 5.53646 5.02701 5.65299 5.09375 5.74812L5.13875 5.80062L6.84062 7.5025L5.13875 9.20563C5.09374 9.24873 5.05779 9.3004 5.03302 9.35758C5.00824 9.41477 4.99513 9.47633 4.99446 9.53865C4.99379 9.60097 5.00556 9.6628 5.0291 9.72051C5.05264 9.77821 5.08747 9.83064 5.13154 9.87471C5.17561 9.91878 5.22804 9.95361 5.28574 9.97715C5.34345 10.0007 5.40528 10.0125 5.4676 10.0118C5.52992 10.0111 5.59148 9.99801 5.64866 9.97323C5.70585 9.94846 5.75752 9.91251 5.80063 9.8675L7.5025 8.165L9.20563 9.8675C9.28496 9.94672 9.39005 9.99489 9.50186 10.0033C9.61366 10.0116 9.72476 9.97965 9.815 9.91313L9.8675 9.8675C9.94672 9.78817 9.99489 9.68307 10.0033 9.57127C10.0116 9.45947 9.97965 9.34837 9.91313 9.25813L9.8675 9.20563L8.165 7.5025L9.8675 5.80062C9.911 5.75712 9.94551 5.70548 9.96905 5.64865C9.99259 5.59181 10.0047 5.53089 10.0047 5.46938C10.0047 5.40786 9.99259 5.34694 9.96905 5.2901C9.94551 5.23327 9.911 5.18163 9.8675 5.13812C9.824 5.09462 9.77236 5.06012 9.71552 5.03658C9.65869 5.01303 9.59777 5.00092 9.53625 5.00092C9.47473 5.00092 9.41381 5.01303 9.35698 5.03658C9.30014 5.06012 9.2485 5.09462 9.205 5.13812L7.5025 6.84062L5.80063 5.13875H5.8Z" fill="white"/>
</svg>