<svg xmlns="http://www.w3.org/2000/svg" width="15" height="15" viewBox="0 0 15 15" fill="none">
  <path d="M12.6562 3.125C10.9919 3.125 9.37 2.53562 7.78125 1.34375C7.70011 1.2829 7.60142 1.25 7.5 1.25C7.39858 1.25 7.29989 1.2829 7.21875 1.34375C5.63 2.53562 4.00813 3.125 2.34375 3.125C2.21943 3.125 2.1002 3.17439 2.01229 3.26229C1.92439 3.3502 1.875 3.46943 1.875 3.59375V6.875C1.875 10.0006 3.72375 12.2975 7.32812 13.7175C7.43857 13.761 7.56143 13.761 7.67188 13.7175C11.2762 12.2975 13.125 10 13.125 6.875V3.59375C13.125 3.46943 13.0756 3.3502 12.9877 3.26229C12.8998 3.17439 12.7806 3.125 12.6562 3.125ZM10.4731 5.81438L6.72312 9.25187C6.63405 9.33344 6.51693 9.37747 6.39618 9.37479C6.27543 9.37212 6.16037 9.32293 6.075 9.2375L4.5125 7.675C4.46645 7.63209 4.42951 7.58034 4.40389 7.52284C4.37827 7.46534 4.36449 7.40327 4.36338 7.34033C4.36227 7.27739 4.37385 7.21487 4.39742 7.1565C4.421 7.09813 4.45609 7.04511 4.5006 7.0006C4.54511 6.95609 4.59813 6.921 4.6565 6.89742C4.71487 6.87385 4.77739 6.86227 4.84033 6.86338C4.90327 6.86449 4.96534 6.87827 5.02284 6.90389C5.08034 6.92951 5.13209 6.96645 5.175 7.0125L6.42062 8.2575L9.83938 5.12312C9.93104 5.03908 10.0523 4.9949 10.1766 5.00029C10.3008 5.00568 10.4178 5.06021 10.5019 5.15188C10.5859 5.24354 10.6301 5.36484 10.6247 5.48908C10.6193 5.61332 10.5648 5.73033 10.4731 5.81438Z" fill="white"/>
</svg>