<svg xmlns="http://www.w3.org/2000/svg" width="18" height="18" viewBox="0 0 18 18" fill="none">
  <g opacity="0.72">
    <path d="M14.25 9L9 9M9 9L11.25 11.25M9 9L11.25 6.75M14.25 4.5V3.75C14.25 3.35218 14.092 2.97064 13.8107 2.68934C13.5294 2.40804 13.1478 2.25 12.75 2.25L5.25 2.25C4.85218 2.25 4.47064 2.40804 4.18934 2.68934C3.90804 2.97064 3.75 3.35218 3.75 3.75L3.75 14.25C3.75 14.6478 3.90804 15.0294 4.18934 15.3107C4.47064 15.592 4.85218 15.75 5.25 15.75L12.75 15.75C13.1478 15.75 13.5294 15.592 13.8107 15.3107C14.092 15.0294 14.25 14.6478 14.25 14.25V13.5" stroke="#fff" stroke-width="1.5" stroke-linecap="round" stroke-linejoin="round"/>
  </g>
</svg>