<svg xmlns="http://www.w3.org/2000/svg" width="16" height="16" viewBox="0 0 16 16" fill="none">
  <path d="M13.3333 10.8306C13.3333 10.6337 13.2945 10.4387 13.2191 10.2567C13.1438 10.0748 13.0333 9.90946 12.894 9.77022C12.7547 9.63099 12.5893 9.52056 12.4073 9.44525C12.2253 9.36994 12.0303 9.33122 11.8333 9.33131H4.16667C3.96966 9.33122 3.77457 9.36996 3.59254 9.44531C3.41052 9.52067 3.24512 9.63115 3.10582 9.77046C2.96651 9.90976 2.85603 10.0752 2.78067 10.2572C2.70532 10.4392 2.66658 10.6343 2.66667 10.8313V11.4446C2.66667 11.8253 2.78534 12.1973 3.00667 12.508C4.03534 13.9506 5.71667 14.6653 7.99734 14.6653C10.2773 14.6653 11.9607 13.9513 12.9907 12.5086C13.213 12.1981 13.3328 11.8259 13.3333 11.444V10.8306ZM11.3313 4.66798C11.3314 3.96595 11.1099 3.28181 10.6982 2.71312C10.2866 2.14443 9.70595 1.72021 9.03904 1.50096C8.37212 1.28171 7.65301 1.27862 6.98423 1.49213C6.31546 1.70564 5.73117 2.12485 5.31467 2.68998C5.26636 2.67468 5.21601 2.66681 5.16534 2.66665H3.50001C3.3674 2.66665 3.24022 2.71932 3.14645 2.81309C3.05268 2.90686 3.00001 3.03404 3.00001 3.16665V6.83198C2.99983 7.07285 3.04712 7.31139 3.13918 7.53398C3.23123 7.75656 3.36625 7.95882 3.5365 8.1292C3.70676 8.29959 3.90893 8.43475 4.13144 8.52696C4.35396 8.61918 4.59247 8.66665 4.83334 8.66665H5.00001V8.66398H5.00667C5.11962 8.66415 5.23076 8.63557 5.32961 8.58092C5.42846 8.52628 5.51177 8.44736 5.57169 8.35162C5.63161 8.25588 5.66617 8.14645 5.67212 8.03366C5.67806 7.92087 5.65519 7.80842 5.60566 7.7069C5.55614 7.60539 5.48158 7.51816 5.38902 7.45343C5.29646 7.38869 5.18895 7.34859 5.07661 7.33689C4.96426 7.32519 4.85079 7.34229 4.74688 7.38657C4.64298 7.43084 4.55205 7.50085 4.48267 7.58998C4.3383 7.52301 4.21613 7.4161 4.13059 7.28189C4.04506 7.14769 3.99974 6.99179 4.00001 6.83265V6.66665H4.49867C4.75201 6.66665 4.98734 6.58531 5.17867 6.44798C5.56427 7.05929 6.1381 7.52871 6.81371 7.7855C7.48931 8.04229 8.23008 8.07253 8.92437 7.87167C9.61866 7.67081 10.2289 7.24973 10.663 6.67188C11.0971 6.09404 11.3317 5.39074 11.3313 4.66798ZM4.66467 4.59731C4.6637 4.64442 4.6637 4.69154 4.66467 4.73865V5.49931C4.66467 5.54352 4.64711 5.58591 4.61586 5.61716C4.5846 5.64842 4.54221 5.66598 4.49801 5.66598H4.00001V3.66731H4.66534L4.66467 4.59731Z" fill="#212121"/>
</svg>