<svg xmlns="http://www.w3.org/2000/svg" width="15" height="14" viewBox="0 0 15 14" fill="none">
  <path d="M10.5625 1.75C11.1427 1.75 11.6991 1.98047 12.1093 2.3907C12.5195 2.80094 12.75 3.35734 12.75 3.9375V10.0625C12.75 10.6427 12.5195 11.1991 12.1093 11.6093C11.6991 12.0195 11.1427 12.25 10.5625 12.25H4.4375C3.85734 12.25 3.30094 12.0195 2.8907 11.6093C2.48047 11.1991 2.25 10.6427 2.25 10.0625V3.9375C2.25 3.35734 2.48047 2.80094 2.8907 2.3907C3.30094 1.98047 3.85734 1.75 4.4375 1.75H10.5625ZM10.5625 7.58333C10.4568 7.58334 10.3546 7.62162 10.275 7.69111C10.1953 7.7606 10.1435 7.85659 10.1291 7.96133L10.125 8.02083V9.33333C10.125 9.4016 10.1011 9.46771 10.0574 9.52015C10.0137 9.57259 9.95298 9.60805 9.88583 9.62033L9.83333 9.625H8.52083C8.40999 9.62503 8.30328 9.66714 8.22229 9.74282C8.14129 9.81849 8.09204 9.92209 8.08448 10.0327C8.07693 10.1433 8.11163 10.2526 8.18159 10.3386C8.25154 10.4246 8.35152 10.4808 8.46133 10.4959L8.52083 10.5H9.83333C10.1276 10.4999 10.4109 10.3887 10.6266 10.1886C10.8423 9.98847 10.9744 9.71424 10.9965 9.42083L11 9.33333V8.02083C11 7.9048 10.9539 7.79352 10.8719 7.71147C10.7898 7.62943 10.6785 7.58333 10.5625 7.58333ZM4.4375 7.58333C4.33178 7.58334 4.22963 7.62162 4.14996 7.69111C4.07028 7.7606 4.01846 7.85659 4.00408 7.96133L4 8.02083V9.33333C4.00005 9.62757 4.11128 9.91092 4.3114 10.1266C4.51153 10.3423 4.78576 10.4744 5.07917 10.4965L5.16667 10.5H6.47917C6.59001 10.5 6.69672 10.4579 6.77771 10.3822C6.85871 10.3065 6.90796 10.2029 6.91551 10.0923C6.92307 9.98173 6.88837 9.8724 6.81841 9.78641C6.74846 9.70042 6.64848 9.64419 6.53867 9.62908L6.47917 9.625H5.16667C5.0984 9.62502 5.03229 9.6011 4.97985 9.5574C4.92741 9.5137 4.89195 9.45298 4.87967 9.38583L4.875 9.33333V8.02083C4.875 7.9048 4.82891 7.79352 4.74686 7.71147C4.66481 7.62943 4.55353 7.58333 4.4375 7.58333ZM6.47917 3.5H5.16667L5.07917 3.50292C4.8014 3.52379 4.54027 3.64336 4.34298 3.84C4.1457 4.03664 4.02528 4.29739 4.0035 4.57508L4 4.66667V5.97917L4.00408 6.03867C4.01849 6.14338 4.07032 6.23934 4.15 6.3088C4.22967 6.37826 4.3318 6.41653 4.4375 6.41653C4.5432 6.41653 4.64533 6.37826 4.725 6.3088C4.80468 6.23934 4.85651 6.14338 4.87092 6.03867L4.875 5.97917V4.66667L4.87967 4.61417C4.89031 4.55589 4.91845 4.50224 4.96034 4.46034C5.00224 4.41845 5.05589 4.39031 5.11417 4.37967L5.16667 4.375H6.47917L6.53867 4.37092C6.64338 4.35651 6.73934 4.30468 6.8088 4.225C6.87826 4.14533 6.91653 4.0432 6.91653 3.9375C6.91653 3.8318 6.87826 3.72967 6.8088 3.65C6.73934 3.57032 6.64338 3.51849 6.53867 3.50408L6.47917 3.5ZM9.83333 3.5H8.52083C8.40999 3.50003 8.30328 3.54214 8.22229 3.61782C8.14129 3.69349 8.09204 3.79709 8.08448 3.90768C8.07693 4.01827 8.11163 4.1276 8.18159 4.21359C8.25154 4.29958 8.35152 4.35581 8.46133 4.37092L8.52083 4.375H9.83333C9.9016 4.37498 9.96771 4.3989 10.0202 4.4426C10.0726 4.4863 10.108 4.54702 10.1203 4.61417L10.125 4.66667V5.97917C10.125 6.09001 10.1671 6.19672 10.2428 6.27771C10.3185 6.35871 10.4221 6.40796 10.5327 6.41551C10.6433 6.42307 10.7526 6.38837 10.8386 6.31841C10.9246 6.24846 10.9808 6.14848 10.9959 6.03867L11 5.97917V4.66667C11.0001 4.37233 10.8889 4.08884 10.6888 3.87301C10.4887 3.65719 10.2143 3.52499 9.92083 3.50292L9.83333 3.5Z" fill="#15171C"/>
</svg>