<svg xmlns="http://www.w3.org/2000/svg" width="20" height="20" viewBox="0 0 20 20" fill="none">
  <g opacity="0.5">
    <path d="M10.6792 10.1643L4.40257 11.2109C4.3304 11.223 4.26269 11.2538 4.20622 11.3003C4.14975 11.3469 4.10653 11.4074 4.0809 11.4759L1.91673 17.2734C1.71007 17.8068 2.26757 18.3151 2.77923 18.0593L17.7792 10.5593C17.8831 10.5074 17.9705 10.4276 18.0316 10.3288C18.0927 10.2301 18.125 10.1162 18.125 10.0001C18.125 9.88398 18.0927 9.77015 18.0316 9.67139C17.9705 9.57262 17.8831 9.49282 17.7792 9.44094L2.77923 1.94094C2.26757 1.68511 1.71007 2.19428 1.91673 2.72678L4.08173 8.52428C4.10725 8.59296 4.15041 8.65369 4.20689 8.70037C4.26336 8.74704 4.33115 8.77799 4.4034 8.79011L10.6801 9.83594C10.7187 9.84271 10.7537 9.86288 10.7789 9.89291C10.8041 9.92294 10.818 9.9609 10.818 10.0001C10.818 10.0393 10.8041 10.0773 10.7789 10.1073C10.7537 10.1373 10.7187 10.1575 10.6801 10.1643H10.6792Z" fill="#15171C"/>
  </g>
</svg>