<svg xmlns="http://www.w3.org/2000/svg" width="16" height="15" viewBox="0 0 16 15" fill="none">
  <path d="M8 1.25061C11.4525 1.25061 14.25 4.04874 14.25 7.50061C14.25 10.9525 11.4525 13.7506 8 13.7506C4.54875 13.7506 1.75 10.9525 1.75 7.50061C1.75 4.04874 4.54875 1.25061 8 1.25061ZM10.6562 7.03186H5.34375C5.21943 7.03186 5.1002 7.08125 5.01229 7.16915C4.92439 7.25706 4.875 7.37629 4.875 7.50061C4.875 7.62493 4.92439 7.74416 5.01229 7.83207C5.1002 7.91997 5.21943 7.96936 5.34375 7.96936H10.6562C10.7806 7.96936 10.8998 7.91997 10.9877 7.83207C11.0756 7.74416 11.125 7.62493 11.125 7.50061C11.125 7.37629 11.0756 7.25706 10.9877 7.16915C10.8998 7.08125 10.7806 7.03186 10.6562 7.03186Z" fill="#FA5252"/>
</svg>