<svg xmlns="http://www.w3.org/2000/svg" width="18" height="18" viewBox="0 0 18 18" fill="none">
  <path d="M6.15375 3.633C6.33361 3.55214 6.53808 3.54537 6.72289 3.61415C6.90771 3.68294 7.058 3.82174 7.14122 4.00052C7.22445 4.1793 7.23391 4.38366 7.16757 4.56937C7.10123 4.75507 6.96441 4.90718 6.78675 4.99275C5.70258 5.49627 4.82281 6.35484 4.29301 7.4264C3.7632 8.49797 3.61512 9.7183 3.87326 10.8855C4.1314 12.0527 4.78029 13.0967 5.71256 13.8449C6.64483 14.5931 7.80462 15.0006 9 15C10.1938 14.9997 11.3519 14.5924 12.2831 13.8453C13.2143 13.0982 13.863 12.056 14.1221 10.8906C14.3812 9.7252 14.2352 8.5063 13.7083 7.43503C13.1814 6.36375 12.305 5.50413 11.2238 4.998C11.1345 4.95624 11.0544 4.89731 10.9879 4.82458C10.9215 4.75185 10.87 4.66675 10.8364 4.57412C10.7686 4.38705 10.7779 4.18071 10.8622 4.0005C10.9466 3.82029 11.0991 3.68096 11.2861 3.61316C11.4732 3.54537 11.6795 3.55466 11.8597 3.639C13.0225 4.18244 14.0061 5.04625 14.6952 6.12906C15.3842 7.21188 15.7502 8.46878 15.75 9.75225C15.75 13.4797 12.7275 16.5 9 16.5C5.2725 16.5 2.25 13.479 2.25 9.753C2.24974 8.46692 2.61707 7.20755 3.30869 6.12327C4.00032 5.03899 4.98744 4.17497 6.15375 3.633ZM9 1.5C9.1837 1.50002 9.361 1.56747 9.49828 1.68954C9.63556 1.81161 9.72326 1.97981 9.74475 2.16225L9.75 2.25V7.5C9.74998 7.69122 9.67692 7.87522 9.54575 8.01436C9.41458 8.15351 9.23522 8.2373 9.04433 8.2486C8.85344 8.25991 8.66544 8.19787 8.51877 8.07517C8.3721 7.95247 8.27784 7.77839 8.25525 7.5885L8.25 7.5V2.25C8.25 2.05109 8.32902 1.86032 8.46967 1.71967C8.61032 1.57902 8.80109 1.5 9 1.5Z" fill="#FD3232"/>
</svg>