<svg xmlns="http://www.w3.org/2000/svg" width="20" height="19" viewBox="0 0 20 19" fill="none">
  <path fill-rule="evenodd" clip-rule="evenodd" d="M3.52703 8.46938C7.55273 6.35919 10.2327 4.95703 11.5784 4.27678C15.4086 2.34707 16.2137 2.01388 16.7313 2C16.8464 2 17.0994 2.02777 17.2719 2.19436C17.41 2.33319 17.4445 2.51366 17.4675 2.65249C17.4905 2.79132 17.5135 3.08286 17.4905 3.30498C17.2834 5.94271 16.3863 12.3427 15.9262 15.2858C15.7307 16.5353 15.3511 16.9518 14.983 16.9934C14.1779 17.0767 13.5683 16.3548 12.7977 15.744C11.5784 14.786 10.8998 14.1891 9.71511 13.2451C8.34637 12.1622 9.23203 11.5652 10.0142 10.5934C10.2212 10.3436 13.7523 6.45637 13.8213 6.1093C13.8328 6.06766 13.8328 5.90106 13.7523 5.81776C13.6718 5.73447 13.5568 5.76223 13.4648 5.79C13.3382 5.81777 11.4059 7.37264 7.64475 10.4407C7.09265 10.8989 6.59807 11.121 6.14949 11.1071C5.6549 11.0932 4.71174 10.7739 3.99861 10.4963C3.13596 10.1631 2.44584 9.9826 2.50335 9.39952C2.53786 9.0941 2.88292 8.78868 3.52703 8.46938Z" fill="#24A9EC"/>
</svg>