<svg xmlns="http://www.w3.org/2000/svg" width="18" height="18" viewBox="0 0 18 18" fill="none">
  <g opacity="0.72">
    <path d="M2.25 2.8103C2.25 2.66112 2.30926 2.51804 2.41475 2.41256C2.52024 2.30707 2.66332 2.2478 2.8125 2.2478H15.1905C15.295 2.2478 15.3974 2.27689 15.4862 2.33181C15.5751 2.38673 15.6469 2.46531 15.6936 2.55875C15.7403 2.65218 15.7601 2.75678 15.7507 2.86082C15.7413 2.96486 15.7032 3.06423 15.6405 3.1478L12.5175 7.31105L15.6405 11.4751C15.7032 11.5586 15.7413 11.658 15.7507 11.762C15.7601 11.8661 15.7403 11.9707 15.6936 12.0641C15.6469 12.1575 15.5751 12.2361 15.4862 12.291C15.3974 12.346 15.295 12.3751 15.1905 12.3751H3.375V15.9368C3.37499 16.0727 3.32577 16.2041 3.23642 16.3065C3.14708 16.4089 3.02367 16.4756 2.889 16.4941L2.8125 16.5001C2.67657 16.5 2.54524 16.4508 2.4428 16.3615C2.34036 16.2721 2.27374 16.1487 2.25525 16.0141L2.25 15.9368V2.8103Z" fill="#fff"/>
  </g>
</svg>