<svg xmlns="http://www.w3.org/2000/svg" width="20" height="20" viewBox="0 0 20 20" fill="none">
  <path d="M13.7499 10C14.9655 10 16.1313 10.4829 16.9908 11.3424C17.8504 12.202 18.3333 13.3678 18.3333 14.5833C18.3333 15.7989 17.8504 16.9647 16.9908 17.8242C16.1313 18.6838 14.9655 19.1667 13.7499 19.1667C12.5343 19.1667 11.3686 18.6838 10.509 17.8242C9.64947 16.9647 9.16658 15.7989 9.16658 14.5833C9.16658 13.3678 9.64947 12.202 10.509 11.3424C11.3686 10.4829 12.5343 10 13.7499 10ZM9.99992 1.25C10.7735 1.25 11.5153 1.55729 12.0623 2.10427C12.6093 2.65125 12.9166 3.39312 12.9166 4.16667H17.0833C17.3043 4.16667 17.5162 4.25446 17.6725 4.41074C17.8288 4.56702 17.9166 4.77899 17.9166 5C17.9166 5.22101 17.8288 5.43298 17.6725 5.58926C17.5162 5.74554 17.3043 5.83333 17.0833 5.83333H16.3791L16.0033 9.65583C14.8568 9.13069 13.563 9.022 12.345 9.3485C11.127 9.675 10.0611 10.4162 9.33099 11.4444C8.60091 12.4726 8.25244 13.7233 8.34565 14.9808C8.43885 16.2384 8.9679 17.424 9.84159 18.3333H6.92659C6.35771 18.3334 5.80915 18.1219 5.38759 17.7399C4.96603 17.3579 4.70161 16.8328 4.64575 16.2667L3.62075 5.83333H2.91659C2.69557 5.83333 2.48361 5.74554 2.32733 5.58926C2.17105 5.43298 2.08325 5.22101 2.08325 5C2.08325 4.77899 2.17105 4.56702 2.32733 4.41074C2.48361 4.25446 2.69557 4.16667 2.91659 4.16667H7.08325C7.08325 3.39312 7.39054 2.65125 7.93752 2.10427C8.48451 1.55729 9.22637 1.25 9.99992 1.25ZM11.4299 12.1575L11.3716 12.205L11.3241 12.2633C11.2761 12.3329 11.2503 12.4155 11.2503 12.5C11.2503 12.5845 11.2761 12.6671 11.3241 12.7367L11.3716 12.795L13.1608 14.5833L11.3716 16.3717L11.3241 16.43C11.2761 16.4996 11.2503 16.5821 11.2503 16.6667C11.2503 16.7512 11.2761 16.8338 11.3241 16.9033L11.3716 16.9617L11.4299 17.0092C11.4995 17.0572 11.582 17.0829 11.6666 17.0829C11.7511 17.0829 11.8337 17.0572 11.9033 17.0092L11.9616 16.9617L13.7499 15.1725L15.5383 16.9617L15.5966 17.0092C15.6662 17.0572 15.7487 17.0829 15.8333 17.0829C15.9178 17.0829 16.0003 17.0572 16.0699 17.0092L16.1283 16.9617L16.1758 16.9033C16.2238 16.8338 16.2495 16.7512 16.2495 16.6667C16.2495 16.5821 16.2238 16.4996 16.1758 16.43L16.1283 16.3717L14.3391 14.5833L16.1283 12.795L16.1758 12.7367C16.2238 12.6671 16.2495 12.5845 16.2495 12.5C16.2495 12.4155 16.2238 12.3329 16.1758 12.2633L16.1283 12.205L16.0699 12.1575C16.0003 12.1095 15.9178 12.0838 15.8333 12.0838C15.7487 12.0838 15.6662 12.1095 15.5966 12.1575L15.5383 12.205L13.7499 13.9942L11.9616 12.205L11.9033 12.1575C11.8439 12.1164 11.775 12.0914 11.7031 12.085C11.6312 12.0786 11.5589 12.0909 11.4933 12.1208L11.4299 12.1575ZM9.99992 2.91667C9.6684 2.91667 9.35046 3.04836 9.11603 3.28278C8.88161 3.5172 8.74992 3.83515 8.74992 4.16667H11.2499C11.2499 3.83515 11.1182 3.5172 10.8838 3.28278C10.6494 3.04836 10.3314 2.91667 9.99992 2.91667Z" fill="#15171C" fill-opacity="0.5"/>
</svg>