<svg xmlns="http://www.w3.org/2000/svg" width="21" height="21" viewBox="0 0 21 21" fill="none">
  <path d="M14.25 10.5C15.4656 10.5 16.6313 10.9829 17.4909 11.8424C18.3504 12.702 18.8333 13.8678 18.8333 15.0833C18.8333 16.2989 18.3504 17.4647 17.4909 18.3242C16.6313 19.1838 15.4656 19.6667 14.25 19.6667C13.0344 19.6667 11.8686 19.1838 11.0091 18.3242C10.1495 17.4647 9.66665 16.2989 9.66665 15.0833C9.66665 13.8678 10.1495 12.702 11.0091 11.8424C11.8686 10.9829 13.0344 10.5 14.25 10.5ZM10.5 1.75C11.2735 1.75 12.0154 2.05729 12.5624 2.60427C13.1094 3.15125 13.4166 3.89312 13.4166 4.66667H17.5833C17.8043 4.66667 18.0163 4.75446 18.1726 4.91074C18.3288 5.06702 18.4166 5.27899 18.4166 5.5C18.4166 5.72101 18.3288 5.93298 18.1726 6.08926C18.0163 6.24554 17.8043 6.33333 17.5833 6.33333H16.8791L16.5033 10.1558C15.3568 9.63069 14.0631 9.522 12.8451 9.8485C11.6271 10.175 10.5611 10.9162 9.83105 11.9444C9.10097 12.9726 8.7525 14.2233 8.84571 15.4808C8.93892 16.7384 9.46797 17.924 10.3416 18.8333H7.42665C6.85777 18.8334 6.30921 18.6219 5.88765 18.2399C5.46609 17.8579 5.20167 17.3328 5.14581 16.7667L4.12081 6.33333H3.41665C3.19563 6.33333 2.98367 6.24554 2.82739 6.08926C2.67111 5.93298 2.58331 5.72101 2.58331 5.5C2.58331 5.27899 2.67111 5.06702 2.82739 4.91074C2.98367 4.75446 3.19563 4.66667 3.41665 4.66667H7.58331C7.58331 3.89312 7.8906 3.15125 8.43758 2.60427C8.98457 2.05729 9.72643 1.75 10.5 1.75ZM11.93 12.6575L11.8716 12.705L11.8241 12.7633C11.7761 12.8329 11.7504 12.9155 11.7504 13C11.7504 13.0845 11.7761 13.1671 11.8241 13.2367L11.8716 13.295L13.6608 15.0833L11.8716 16.8717L11.8241 16.93C11.7761 16.9996 11.7504 17.0821 11.7504 17.1667C11.7504 17.2512 11.7761 17.3338 11.8241 17.4033L11.8716 17.4617L11.93 17.5092C11.9996 17.5572 12.0821 17.5829 12.1666 17.5829C12.2512 17.5829 12.3337 17.5572 12.4033 17.5092L12.4616 17.4617L14.25 15.6725L16.0383 17.4617L16.0966 17.5092C16.1662 17.5572 16.2488 17.5829 16.3333 17.5829C16.4179 17.5829 16.5004 17.5572 16.57 17.5092L16.6283 17.4617L16.6758 17.4033C16.7238 17.3338 16.7495 17.2512 16.7495 17.1667C16.7495 17.0821 16.7238 16.9996 16.6758 16.93L16.6283 16.8717L14.8391 15.0833L16.6283 13.295L16.6758 13.2367C16.7238 13.1671 16.7495 13.0845 16.7495 13C16.7495 12.9155 16.7238 12.8329 16.6758 12.7633L16.6283 12.705L16.57 12.6575C16.5004 12.6095 16.4179 12.5838 16.3333 12.5838C16.2488 12.5838 16.1662 12.6095 16.0966 12.6575L16.0383 12.705L14.25 14.4942L12.4616 12.705L12.4033 12.6575C12.344 12.6164 12.275 12.5914 12.2032 12.585C12.1313 12.5786 12.059 12.5909 11.9933 12.6208L11.93 12.6575ZM10.5 3.41667C10.1685 3.41667 9.85052 3.54836 9.6161 3.78278C9.38168 4.0172 9.24998 4.33515 9.24998 4.66667H11.75C11.75 4.33515 11.6183 4.0172 11.3839 3.78278C11.1494 3.54836 10.8315 3.41667 10.5 3.41667Z" fill="#FA5252"/>
</svg>