<svg width="27" height="26" viewBox="0 0 27 26" fill="none" xmlns="http://www.w3.org/2000/svg">
<rect x="0.5" width="26" height="26" rx="6" fill="#00579F"/>
<g clip-path="url(#clip0_2126_4095)">
<path d="M11.8727 16.3992H10.1206L11.2165 9.62305H12.9685L11.8727 16.3992Z" fill="white"/>
<path d="M18.2241 9.78849C17.8785 9.65138 17.3304 9.5 16.6526 9.5C14.9223 9.5 13.7039 10.4227 13.6964 11.7418C13.6821 12.7151 14.5688 13.2556 15.232 13.5801C15.9099 13.9117 16.1403 14.1282 16.1403 14.4238C16.1334 14.8777 15.5925 15.087 15.0881 15.087C14.3886 15.087 14.0138 14.9791 13.4442 14.7265L13.2134 14.6183L12.9683 16.1394C13.3792 16.3266 14.1363 16.4927 14.9223 16.5C16.7608 16.5 17.9577 15.5916 17.9718 14.1859C17.9788 13.4145 17.5106 12.8234 16.5011 12.3404C15.8883 12.0304 15.513 11.8213 15.513 11.5041C15.5202 11.2157 15.8304 10.9203 16.5222 10.9203C17.0918 10.9058 17.5103 11.0428 17.8274 11.1798L17.9858 11.2517L18.2241 9.78849Z" fill="white"/>
<path d="M20.5526 13.9987C20.6969 13.6094 21.2521 12.1027 21.2521 12.1027C21.2448 12.1172 21.3961 11.7063 21.4826 11.454L21.6051 12.0379C21.6051 12.0379 21.9369 13.6599 22.0089 13.9987C21.7351 13.9987 20.8987 13.9987 20.5526 13.9987ZM22.7154 9.62305H21.3601C20.9422 9.62305 20.6246 9.74549 20.4443 10.1853L17.8418 16.3991H19.6802C19.6802 16.3991 19.9829 15.5628 20.048 15.3827C20.2496 15.3827 22.0381 15.3827 22.2975 15.3827C22.3478 15.6206 22.5066 16.3991 22.5066 16.3991H24.1289L22.7154 9.62305Z" fill="white"/>
<path d="M8.65686 9.62305L6.94097 14.2438L6.75346 13.3066C6.43623 12.2253 5.44132 11.0504 4.33105 10.4663L5.90275 16.392H7.75556L10.5096 9.62305H8.65686Z" fill="white"/>
<path d="M5.34781 9.62305H2.52884L2.5 9.75996C4.69897 10.3223 6.15531 11.6777 6.75365 13.3069L6.14084 10.1926C6.03995 9.75987 5.72991 9.63732 5.34781 9.62305Z" fill="#FAA61A"/>
</g>
<defs>
<clipPath id="clip0_2126_4095">
<rect width="21.6291" height="7" fill="white" transform="translate(2.5 9.5)"/>
</clipPath>
</defs>
</svg>
