<svg xmlns="http://www.w3.org/2000/svg" width="23" height="22" viewBox="0 0 23 22" fill="none">
  <path d="M8.75 1.83337C8.02065 1.83337 7.32118 2.12311 6.80546 2.63883C6.28973 3.15456 6 3.85403 6 4.58337V17.4167C6 18.1461 6.28973 18.8455 6.80546 19.3613C7.32118 19.877 8.02065 20.1667 8.75 20.1667H14.25C14.9793 20.1667 15.6788 19.877 16.1945 19.3613C16.7103 18.8455 17 18.1461 17 17.4167V4.58337C17 3.85403 16.7103 3.15456 16.1945 2.63883C15.6788 2.12311 14.9793 1.83337 14.25 1.83337H8.75ZM8.29167 6.18754C8.29167 6.0052 8.3641 5.83034 8.49303 5.7014C8.62196 5.57247 8.79683 5.50004 8.97917 5.50004H14.0208C14.2032 5.50004 14.378 5.57247 14.507 5.7014C14.6359 5.83034 14.7083 6.0052 14.7083 6.18754C14.7083 6.36988 14.6359 6.54475 14.507 6.67368C14.378 6.80261 14.2032 6.87504 14.0208 6.87504H8.97917C8.79683 6.87504 8.62196 6.80261 8.49303 6.67368C8.3641 6.54475 8.29167 6.36988 8.29167 6.18754ZM8.29167 16.2709C8.29167 16.0885 8.3641 15.9137 8.49303 15.7847C8.62196 15.6558 8.79683 15.5834 8.97917 15.5834H14.0208C14.2032 15.5834 14.378 15.6558 14.507 15.7847C14.6359 15.9137 14.7083 16.0885 14.7083 16.2709C14.7083 16.4532 14.6359 16.6281 14.507 16.757C14.378 16.8859 14.2032 16.9584 14.0208 16.9584H8.97917C8.79683 16.9584 8.62196 16.8859 8.49303 16.757C8.3641 16.6281 8.29167 16.4532 8.29167 16.2709ZM8.29167 13.5209C8.29167 13.3385 8.3641 13.1637 8.49303 13.0347C8.62196 12.9058 8.79683 12.8334 8.97917 12.8334H14.0208C14.2032 12.8334 14.378 12.9058 14.507 13.0347C14.6359 13.1637 14.7083 13.3385 14.7083 13.5209C14.7083 13.7032 14.6359 13.8781 14.507 14.007C14.378 14.1359 14.2032 14.2084 14.0208 14.2084H8.97917C8.79683 14.2084 8.62196 14.1359 8.49303 14.007C8.3641 13.8781 8.29167 13.7032 8.29167 13.5209Z" fill="#171E26" fill-opacity="0.5"/>
</svg>