<svg xmlns="http://www.w3.org/2000/svg" width="22" height="23" viewBox="0 0 22 23" fill="none">
  <path d="M13.9793 12.665H10.3127C10.1303 12.665 9.95546 12.5926 9.82653 12.4637C9.6976 12.3347 9.62516 12.1599 9.62516 11.9775V6.47752C9.62516 6.29518 9.6976 6.12031 9.82653 5.99138C9.95546 5.86245 10.1303 5.79002 10.3127 5.79002C10.495 5.79002 10.6699 5.86245 10.7988 5.99138C10.9277 6.12031 11.0002 6.29518 11.0002 6.47752V11.29H13.9793C14.1617 11.29 14.3365 11.3625 14.4655 11.4914C14.5944 11.6203 14.6668 11.7952 14.6668 11.9775C14.6668 12.1599 14.5944 12.3347 14.4655 12.4637C14.3365 12.5926 14.1617 12.665 13.9793 12.665ZM11.0002 2.12335C5.93833 2.12335 1.8335 6.22819 1.8335 11.29C1.8335 16.3519 5.93833 20.4567 11.0002 20.4567C16.062 20.4567 20.1668 16.3519 20.1668 11.29C20.1668 6.22819 16.062 2.12335 11.0002 2.12335Z" fill="#212121" fill-opacity="0.4"/>
</svg>