<svg xmlns="http://www.w3.org/2000/svg" width="26" height="26" viewBox="0 0 26 26" fill="none">
  <path d="M17.7573 5.97998H6.83728V24.7H17.7573V5.97998Z" fill="#026DEB" fill-opacity="0.427451"/>
  <path d="M5.91781 5.96065H18.9365C20.0083 5.96065 20.8772 5.2063 20.8772 4.27575V2.98489C20.8772 2.05434 20.0083 1.29999 18.9365 1.29999H5.91781C4.84602 1.29999 3.97717 2.05434 3.97717 2.98489V4.27575C3.97717 5.2063 4.84603 5.96065 5.91781 5.96065ZM5.91781 12.003H18.9365C20.0083 12.003 20.8772 11.2487 20.8772 10.3181V9.02729C20.8772 8.09674 20.0083 7.34239 18.9365 7.34239H5.91781C4.84602 7.34239 3.97717 8.09674 3.97717 9.02729V10.3181C3.97717 11.2487 4.84603 12.003 5.91781 12.003Z" fill="#026DEB"/>
  <path d="M18.7674 10.5704C19.2626 10.5704 19.6641 10.169 19.6641 9.67373C19.6641 9.1785 19.2626 8.77704 18.7674 8.77704C18.2722 8.77704 17.8707 9.1785 17.8707 9.67373C17.8707 10.169 18.2722 10.5704 18.7674 10.5704Z" fill="#EC6E62"/>
  <path d="M16.2185 10.5704C16.7137 10.5704 17.1152 10.169 17.1152 9.67373C17.1152 9.1785 16.7137 8.77704 16.2185 8.77704C15.7232 8.77704 15.3218 9.1785 15.3218 9.67373C15.3218 10.169 15.7232 10.5704 16.2185 10.5704Z" fill="#85BD57"/>
  <path d="M8.36739 10.5704C8.86262 10.5704 9.26408 10.169 9.26408 9.67373C9.26408 9.1785 8.86262 8.77704 8.36739 8.77704C7.87216 8.77704 7.4707 9.1785 7.4707 9.67373C7.4707 10.169 7.87216 10.5704 8.36739 10.5704Z" fill="#EC6E62"/>
  <path d="M5.81844 10.5704C6.31367 10.5704 6.71513 10.169 6.71513 9.67373C6.71513 9.1785 6.31367 8.77704 5.81844 8.77704C5.32321 8.77704 4.92175 9.1785 4.92175 9.67373C4.92175 10.169 5.32321 10.5704 5.81844 10.5704Z" fill="#85BD57"/>
  <path d="M18.7674 4.52769C19.2626 4.52769 19.6641 4.12623 19.6641 3.631C19.6641 3.13578 19.2626 2.73431 18.7674 2.73431C18.2722 2.73431 17.8707 3.13578 17.8707 3.631C17.8707 4.12623 18.2722 4.52769 18.7674 4.52769Z" fill="#EC6E62"/>
  <path d="M16.2185 4.52769C16.7137 4.52769 17.1152 4.12623 17.1152 3.631C17.1152 3.13578 16.7137 2.73431 16.2185 2.73431C15.7232 2.73431 15.3218 3.13578 15.3218 3.631C15.3218 4.12623 15.7232 4.52769 16.2185 4.52769Z" fill="#85BD57"/>
  <path d="M8.36739 4.52769C8.86262 4.52769 9.26408 4.12623 9.26408 3.631C9.26408 3.13578 8.86262 2.73431 8.36739 2.73431C7.87216 2.73431 7.4707 3.13578 7.4707 3.631C7.4707 4.12623 7.87216 4.52769 8.36739 4.52769Z" fill="#EC6E62"/>
  <path d="M5.81844 4.52769C6.31367 4.52769 6.71513 4.12623 6.71513 3.631C6.71513 3.13578 6.31367 2.73431 5.81844 2.73431C5.32321 2.73431 4.92175 3.13578 4.92175 3.631C4.92175 4.12623 5.32321 4.52769 5.81844 4.52769Z" fill="#85BD57"/>
  <path d="M5.91781 18.4406H18.9365C20.0083 18.4406 20.8772 17.6863 20.8772 16.7557V15.4649C20.8772 14.5343 20.0083 13.78 18.9365 13.78H5.91781C4.84602 13.78 3.97717 14.5343 3.97717 15.4649V16.7557C3.97717 17.6863 4.84603 18.4406 5.91781 18.4406ZM5.91781 24.483H18.9365C20.0083 24.483 20.8772 23.7287 20.8772 22.7981V21.5073C20.8772 20.5767 20.0083 19.8224 18.9365 19.8224H5.91781C4.84602 19.8224 3.97717 20.5767 3.97717 21.5073V22.7981C3.97717 23.7287 4.84603 24.483 5.91781 24.483Z" fill="#026DEB"/>
  <path d="M18.7674 23.0504C19.2626 23.0504 19.6641 22.6489 19.6641 22.1537C19.6641 21.6585 19.2626 21.257 18.7674 21.257C18.2722 21.257 17.8707 21.6585 17.8707 22.1537C17.8707 22.6489 18.2722 23.0504 18.7674 23.0504Z" fill="#EC6E62"/>
  <path d="M16.2185 23.0504C16.7137 23.0504 17.1152 22.6489 17.1152 22.1537C17.1152 21.6585 16.7137 21.257 16.2185 21.257C15.7232 21.257 15.3218 21.6585 15.3218 22.1537C15.3218 22.6489 15.7232 23.0504 16.2185 23.0504Z" fill="#85BD57"/>
  <path d="M8.36739 23.0504C8.86262 23.0504 9.26408 22.6489 9.26408 22.1537C9.26408 21.6585 8.86262 21.257 8.36739 21.257C7.87216 21.257 7.4707 21.6585 7.4707 22.1537C7.4707 22.6489 7.87216 23.0504 8.36739 23.0504Z" fill="#EC6E62"/>
  <path d="M5.81844 23.0504C6.31367 23.0504 6.71513 22.6489 6.71513 22.1537C6.71513 21.6585 6.31367 21.257 5.81844 21.257C5.32321 21.257 4.92175 21.6585 4.92175 22.1537C4.92175 22.6489 5.32321 23.0504 5.81844 23.0504Z" fill="#85BD57"/>
  <path d="M18.7674 17.0077C19.2626 17.0077 19.6641 16.6062 19.6641 16.111C19.6641 15.6158 19.2626 15.2143 18.7674 15.2143C18.2722 15.2143 17.8707 15.6158 17.8707 16.111C17.8707 16.6062 18.2722 17.0077 18.7674 17.0077Z" fill="#EC6E62"/>
  <path d="M16.2185 17.0077C16.7137 17.0077 17.1152 16.6062 17.1152 16.111C17.1152 15.6158 16.7137 15.2143 16.2185 15.2143C15.7232 15.2143 15.3218 15.6158 15.3218 16.111C15.3218 16.6062 15.7232 17.0077 16.2185 17.0077Z" fill="#85BD57"/>
  <path d="M8.36739 17.0077C8.86262 17.0077 9.26408 16.6062 9.26408 16.111C9.26408 15.6158 8.86262 15.2143 8.36739 15.2143C7.87216 15.2143 7.4707 15.6158 7.4707 16.111C7.4707 16.6062 7.87216 17.0077 8.36739 17.0077Z" fill="#EC6E62"/>
  <path d="M5.81844 17.0077C6.31367 17.0077 6.71513 16.6062 6.71513 16.111C6.71513 15.6158 6.31367 15.2143 5.81844 15.2143C5.32321 15.2143 4.92175 15.6158 4.92175 16.111C4.92175 16.6062 5.32321 17.0077 5.81844 17.0077Z" fill="#85BD57"/>
</svg>