<svg xmlns="http://www.w3.org/2000/svg" width="25" height="24" viewBox="0 0 25 24" fill="none">
  <path d="M9.5 2.3999C8.70435 2.3999 7.94129 2.70333 7.37868 3.24343C6.81607 3.78354 6.5 4.51608 6.5 5.2799V18.7199C6.5 19.4837 6.81607 20.2163 7.37868 20.7564C7.94129 21.2965 8.70435 21.5999 9.5 21.5999H15.5C16.2956 21.5999 17.0587 21.2965 17.6213 20.7564C18.1839 20.2163 18.5 19.4837 18.5 18.7199V5.2799C18.5 4.51608 18.1839 3.78354 17.6213 3.24343C17.0587 2.70333 16.2956 2.3999 15.5 2.3999H9.5ZM9 6.9599C9 6.76895 9.07902 6.58581 9.21967 6.45079C9.36032 6.31576 9.55109 6.2399 9.75 6.2399H15.25C15.4489 6.2399 15.6397 6.31576 15.7803 6.45079C15.921 6.58581 16 6.76895 16 6.9599C16 7.15086 15.921 7.33399 15.7803 7.46902C15.6397 7.60405 15.4489 7.6799 15.25 7.6799H9.75C9.55109 7.6799 9.36032 7.60405 9.21967 7.46902C9.07902 7.33399 9 7.15086 9 6.9599ZM9 17.5199C9 17.3289 9.07902 17.1458 9.21967 17.0108C9.36032 16.8758 9.55109 16.7999 9.75 16.7999H15.25C15.4489 16.7999 15.6397 16.8758 15.7803 17.0108C15.921 17.1458 16 17.3289 16 17.5199C16 17.7109 15.921 17.894 15.7803 18.029C15.6397 18.164 15.4489 18.2399 15.25 18.2399H9.75C9.55109 18.2399 9.36032 18.164 9.21967 18.029C9.07902 17.894 9 17.7109 9 17.5199ZM9 14.6399C9 14.4489 9.07902 14.2658 9.21967 14.1308C9.36032 13.9958 9.55109 13.9199 9.75 13.9199H15.25C15.4489 13.9199 15.6397 13.9958 15.7803 14.1308C15.921 14.2658 16 14.4489 16 14.6399C16 14.8309 15.921 15.014 15.7803 15.149C15.6397 15.284 15.4489 15.3599 15.25 15.3599H9.75C9.55109 15.3599 9.36032 15.284 9.21967 15.149C9.07902 15.014 9 14.8309 9 14.6399Z" fill="#15171C"/>
</svg>