<svg xmlns="http://www.w3.org/2000/svg" width="21" height="20" viewBox="0 0 21 20" fill="none">
  <path d="M7.5 2C6.70435 2 5.94129 2.25286 5.37868 2.70294C4.81607 3.15303 4.5 3.76348 4.5 4.4V15.6C4.5 16.2365 4.81607 16.847 5.37868 17.2971C5.94129 17.7471 6.70435 18 7.5 18H13.5C14.2956 18 15.0587 17.7471 15.6213 17.2971C16.1839 16.847 16.5 16.2365 16.5 15.6V4.4C16.5 3.76348 16.1839 3.15303 15.6213 2.70294C15.0587 2.25286 14.2956 2 13.5 2H7.5ZM7 5.8C7 5.64087 7.07902 5.48826 7.21967 5.37574C7.36032 5.26321 7.55109 5.2 7.75 5.2H13.25C13.4489 5.2 13.6397 5.26321 13.7803 5.37574C13.921 5.48826 14 5.64087 14 5.8C14 5.95913 13.921 6.11174 13.7803 6.22426C13.6397 6.33679 13.4489 6.4 13.25 6.4H7.75C7.55109 6.4 7.36032 6.33679 7.21967 6.22426C7.07902 6.11174 7 5.95913 7 5.8ZM7 14.6C7 14.4409 7.07902 14.2883 7.21967 14.1757C7.36032 14.0632 7.55109 14 7.75 14H13.25C13.4489 14 13.6397 14.0632 13.7803 14.1757C13.921 14.2883 14 14.4409 14 14.6C14 14.7591 13.921 14.9117 13.7803 15.0243C13.6397 15.1368 13.4489 15.2 13.25 15.2H7.75C7.55109 15.2 7.36032 15.1368 7.21967 15.0243C7.07902 14.9117 7 14.7591 7 14.6ZM7 12.2C7 12.0409 7.07902 11.8883 7.21967 11.7757C7.36032 11.6632 7.55109 11.6 7.75 11.6H13.25C13.4489 11.6 13.6397 11.6632 13.7803 11.7757C13.921 11.8883 14 12.0409 14 12.2C14 12.3591 13.921 12.5117 13.7803 12.6243C13.6397 12.7368 13.4489 12.8 13.25 12.8H7.75C7.55109 12.8 7.36032 12.7368 7.21967 12.6243C7.07902 12.5117 7 12.3591 7 12.2Z" fill="#15171C" fill-opacity="0.5"/>
</svg>