<svg xmlns="http://www.w3.org/2000/svg" width="20" height="20" viewBox="0 0 20 20" fill="none">
  <path d="M2 2.93567C2 2.41891 2.41891 2 2.93567 2H8.64915C9.16591 2 9.58482 2.41891 9.58482 2.93567V8.64587C9.58482 9.16262 9.16591 9.58154 8.64915 9.58154H2.93567C2.41891 9.58154 2 9.16262 2 8.64587V2.93567ZM10.4152 2.93567C10.4152 2.41891 10.8341 2 11.3509 2H17.0643C17.5811 2 18 2.41891 18 2.93567V8.64587C18 9.16262 17.5811 9.58154 17.0643 9.58154H11.3509C10.8341 9.58154 10.4152 9.16262 10.4152 8.64587V2.93567ZM2 11.3509C2 10.8341 2.41891 10.4152 2.93567 10.4152H8.64915C9.16591 10.4152 9.58482 10.8341 9.58482 11.3509V17.0643C9.58482 17.5811 9.16591 18 8.64915 18H2.93567C2.41891 18 2 17.5811 2 17.0643V11.3509ZM10.4152 10.4152H17.0643C17.5811 10.4152 18 10.8341 18 11.3509V17.0643C18 17.5811 17.5811 18 17.0643 18H10.4152" fill="white" fill-opacity="0.5"/>
</svg>