<svg xmlns="http://www.w3.org/2000/svg" width="26" height="26" viewBox="0 0 26 26" fill="none">
  <path d="M2.59961 3.53577C2.59961 3.01901 3.01852 2.6001 3.53528 2.6001H11.5242C12.041 2.6001 12.4599 3.01901 12.4599 3.53577V11.5204C12.4599 12.0372 12.041 12.4561 11.5242 12.4561H3.53528C3.01853 12.4561 2.59961 12.0372 2.59961 11.5204V3.53577ZM13.5393 3.53577C13.5393 3.01901 13.9583 2.6001 14.475 2.6001H22.4639C22.9807 2.6001 23.3996 3.01901 23.3996 3.53577V11.5204C23.3996 12.0372 22.9807 12.4561 22.4639 12.4561H14.475C13.9583 12.4561 13.5393 12.0372 13.5393 11.5204V3.53577ZM2.59961 14.4755C2.59961 13.9587 3.01852 13.5398 3.53528 13.5398H11.5242C12.041 13.5398 12.4599 13.9587 12.4599 14.4755V22.4644C12.4599 22.9812 12.041 23.4001 11.5242 23.4001H3.53528C3.01853 23.4001 2.59961 22.9812 2.59961 22.4644V14.4755ZM13.5393 13.5398H22.4639C22.9807 13.5398 23.3996 13.9587 23.3996 14.4755V22.4644C23.3996 22.9812 22.9807 23.4001 22.4639 23.4001H13.5393" fill="#026DEB"/>
</svg>