<svg xmlns="http://www.w3.org/2000/svg" width="21" height="20" viewBox="0 0 21 20" fill="none">
  <path d="M9.62176 1.70591L9.62593 1.71175C9.91343 1.68175 10.2051 1.66675 10.5001 1.66675C15.1018 1.66675 18.8334 5.39758 18.8334 10.0001C18.8334 14.6026 15.1018 18.3334 10.5001 18.3334C9.23044 18.3346 7.97736 18.0453 6.83682 17.4874C5.69629 16.9296 4.69857 16.1181 3.92009 15.1151H3.91759V15.1126C2.77984 13.6515 2.16353 11.8519 2.16676 10.0001C2.16676 5.69841 5.42593 2.15841 9.61009 1.71341L9.62176 1.70591ZM10.5001 2.91675L10.3668 2.91758C10.4693 3.12175 10.5793 3.36175 10.6784 3.62591C10.9676 4.39508 11.2334 5.52758 10.7618 6.53175C10.3268 7.45925 9.57509 7.69841 9.02009 7.84258L8.95009 7.86008C8.40259 8.00175 8.19176 8.05591 8.03926 8.28841C7.89759 8.50258 7.91926 8.77341 8.09009 9.33008L8.12843 9.45341C8.19676 9.66841 8.27843 9.92841 8.32009 10.1726C8.37343 10.4759 8.38843 10.8617 8.19343 11.2351C8.0294 11.5678 7.76774 11.8425 7.44343 12.0226C7.15926 12.1767 6.86509 12.2359 6.64509 12.2742L6.56759 12.2884C6.13843 12.3634 5.93343 12.4001 5.73426 12.6134C5.57843 12.7801 5.47843 13.0742 5.42009 13.5126C5.39593 13.6909 5.38176 13.8684 5.36676 14.0509L5.35843 14.1484C5.34176 14.3501 5.32176 14.5826 5.27593 14.7817V14.7834C5.93892 15.5092 6.74607 16.0886 7.64577 16.4847C8.54547 16.8807 9.51792 17.0846 10.5009 17.0834C11.8143 17.0834 13.0451 16.7251 14.1001 16.1017C14.009 16.0091 13.9227 15.9117 13.8418 15.8101C13.5584 15.4534 13.1868 14.8401 13.3159 14.1159C13.3776 13.7676 13.5643 13.4759 13.7451 13.2526C13.9299 13.0328 14.1304 12.8267 14.3451 12.6359L14.4768 12.5142C14.6259 12.3784 14.7518 12.2634 14.8601 12.1501C15.0034 12.0001 15.0351 11.9317 15.0368 11.9276C15.0934 11.7409 15.0243 11.6076 14.9484 11.5492C14.9029 11.515 14.8471 11.4971 14.7901 11.4984C14.7201 11.4984 14.6068 11.5184 14.4559 11.6151C14.354 11.6819 14.2375 11.7232 14.1162 11.7355C13.995 11.7478 13.8726 11.7308 13.7593 11.6859C13.5888 11.6131 13.4466 11.4867 13.3543 11.3259C13.2343 11.1284 13.1668 10.8709 13.1226 10.6826C13.0893 10.5376 13.0559 10.3726 13.0268 10.2217L12.9934 10.0501C12.9664 9.89774 12.9291 9.7474 12.8818 9.60008L12.8651 9.56925C12.8485 9.53937 12.8307 9.51018 12.8118 9.48175C12.7515 9.39174 12.6884 9.30364 12.6226 9.21758L12.5309 9.09841C12.3808 8.90567 12.2374 8.70777 12.1009 8.50508C11.9376 8.25675 11.7534 7.93175 11.6951 7.58508C11.6579 7.38062 11.6737 7.17004 11.7409 6.97341C11.8193 6.75341 11.9618 6.57175 12.1468 6.43258C12.5493 6.13091 13.1409 5.45591 13.6659 4.80008C13.9059 4.50091 14.1193 4.22091 14.2793 4.00841C13.1486 3.29334 11.8379 2.91471 10.5001 2.91675Z" fill="#15171C" fill-opacity="0.5"/>
</svg>