<svg xmlns="http://www.w3.org/2000/svg" width="22" height="22" viewBox="0 0 22 22" fill="none">
  <path d="M9.85826 0.217543L9.86368 0.225126C10.2374 0.186126 10.6166 0.166626 11.0001 0.166626C16.9823 0.166626 21.8334 5.01671 21.8334 11C21.8334 16.9832 16.9823 21.8333 11.0001 21.8333C9.34955 21.8349 7.72054 21.4587 6.23785 20.7335C4.75515 20.0083 3.45812 18.9533 2.4461 17.6495H2.44285V17.6462C0.96377 15.7468 0.162564 13.4073 0.166764 11C0.166764 5.40779 4.40368 0.805793 9.8431 0.227293L9.85826 0.217543ZM11.0001 1.79163L10.8268 1.79271C10.96 2.05813 11.103 2.37013 11.2319 2.71354C11.6078 3.71346 11.9534 5.18571 11.3403 6.49113C10.7748 7.69688 9.7976 8.00779 9.0761 8.19521L8.9851 8.21796C8.27335 8.40213 7.99926 8.47254 7.80101 8.77479C7.61685 9.05321 7.64501 9.40529 7.8671 10.129L7.91693 10.2893C8.00576 10.5688 8.11193 10.9068 8.1661 11.2242C8.23543 11.6185 8.25493 12.1201 8.00143 12.6055C7.78819 13.038 7.44804 13.3951 7.02643 13.6292C6.65701 13.8296 6.2746 13.9065 5.9886 13.9564L5.88785 13.9748C5.32993 14.0723 5.06343 14.12 4.80451 14.3973C4.60193 14.614 4.47193 14.9964 4.3961 15.5662C4.36468 15.798 4.34626 16.0288 4.32677 16.266L4.31593 16.3928C4.29426 16.655 4.26826 16.9572 4.20868 17.2161V17.2183C5.07057 18.1618 6.11987 18.9151 7.28948 19.4299C8.45909 19.9448 9.72327 20.2099 11.0012 20.2083C12.7085 20.2083 14.3086 19.7425 15.6801 18.9321C15.5616 18.8117 15.4495 18.6851 15.3443 18.553C14.9759 18.0893 14.4928 17.292 14.6607 16.3505C14.7408 15.8977 14.9835 15.5185 15.2186 15.2282C15.4589 14.9425 15.7195 14.6745 15.9986 14.4265L16.1698 14.2684C16.3637 14.0918 16.5273 13.9423 16.6681 13.795C16.8544 13.6 16.8956 13.5111 16.8978 13.5057C16.9714 13.263 16.8815 13.0897 16.7829 13.0139C16.7237 12.9693 16.6512 12.946 16.5771 12.9478C16.4861 12.9478 16.3388 12.9738 16.1427 13.0995C16.0102 13.1863 15.8587 13.24 15.7011 13.256C15.5435 13.2721 15.3843 13.2499 15.237 13.1915C15.0154 13.0968 14.8306 12.9326 14.7105 12.7235C14.5545 12.4668 14.4668 12.132 14.4093 11.8872C14.366 11.6987 14.3227 11.4842 14.2848 11.2881L14.2414 11.065C14.2063 10.8669 14.1578 10.6715 14.0963 10.48L14.0746 10.4399C14.053 10.401 14.0299 10.3631 14.0053 10.3261C13.9269 10.2091 13.8449 10.0946 13.7593 9.98271L13.6402 9.82779C13.445 9.57722 13.2585 9.31995 13.0812 9.05646C12.8688 8.73363 12.6294 8.31113 12.5536 7.86046C12.5052 7.59467 12.5257 7.32091 12.6132 7.06529C12.715 6.77929 12.9003 6.54313 13.1408 6.36221C13.664 5.97004 14.4332 5.09254 15.1157 4.23996C15.4277 3.85104 15.705 3.48704 15.913 3.21079C14.4432 2.28119 12.7392 1.78897 11.0001 1.79163Z" fill="#026DEB"/>
</svg>