<svg xmlns="http://www.w3.org/2000/svg" width="17" height="17" viewBox="0 0 17 17" fill="none">
  <path opacity="0.72" fill-rule="evenodd" clip-rule="evenodd" d="M3.97029 1.7072C3.57977 1.31668 2.9466 1.31668 2.55608 1.7072L2.20253 2.06075C1.812 2.45128 1.812 3.08444 2.20253 3.47497L6.72992 8.00236L1.70711 13.0252C1.31658 13.4157 1.31658 14.0489 1.70711 14.4394L2.06066 14.7929C2.45119 15.1835 3.08435 15.1835 3.47488 14.7929L8.49768 9.77012L13.5162 14.7887C13.9068 15.1792 14.5399 15.1792 14.9304 14.7887L15.284 14.4351C15.6745 14.0446 15.6745 13.4114 15.284 13.0209L10.2654 8.00236L14.7886 3.47922C15.1791 3.0887 15.1791 2.45553 14.7886 2.06501L14.435 1.71146C14.0445 1.32093 13.4113 1.32093 13.0208 1.71146L8.49768 6.23459L3.97029 1.7072Z" fill="#15171C"/>
</svg>