<svg xmlns="http://www.w3.org/2000/svg" width="20" height="20" viewBox="0 0 20 20" fill="none">
  <path d="M19.5999 7.08961C19.5999 8.97681 18.0719 10.5052 16.1875 10.5052H3.2503C2.49446 10.5048 1.7697 10.2043 1.23523 9.66988C0.700772 9.13542 0.400326 8.41065 0.399902 7.65481C0.399902 6.07961 1.6775 4.80201 3.2503 4.80201C3.3279 4.80201 3.4063 4.80481 3.4839 4.81001C4.0435 3.04281 5.6995 1.76001 7.6507 1.76001C8.7555 1.76001 9.7635 2.16921 10.5315 2.84561C10.8378 2.51634 11.2282 2.27706 11.6606 2.15366C12.0931 2.03026 12.551 2.02743 12.9849 2.14548C13.4188 2.26352 13.8122 2.49795 14.1225 2.82341C14.4328 3.14886 14.6483 3.55297 14.7455 3.99201C15.1973 3.78228 15.6894 3.67388 16.1875 3.67441C18.0715 3.67441 19.5999 5.20241 19.5999 7.08961Z" fill="#026DEB" fill-opacity="0.6"/>
  <path d="M14.9987 8.59201H5.00111C4.60671 8.59201 4.28711 8.91161 4.28711 9.30601V10.5488C4.28711 10.9432 4.60711 11.2632 5.00111 11.2632H14.9987C15.3931 11.2632 15.7127 10.9432 15.7127 10.5488V9.30601C15.7127 8.91161 15.3927 8.59201 14.9987 8.59201Z" fill="#026DEB"/>
  <path d="M5.5716 10.4233C5.84575 10.4233 6.068 10.201 6.068 9.92688C6.068 9.65273 5.84575 9.43048 5.5716 9.43048C5.29744 9.43048 5.0752 9.65273 5.0752 9.92688C5.0752 10.201 5.29744 10.4233 5.5716 10.4233Z" fill="#EC6E62"/>
  <path d="M6.8924 10.4233C7.16655 10.4233 7.3888 10.201 7.3888 9.92688C7.3888 9.65273 7.16655 9.43048 6.8924 9.43048C6.61824 9.43048 6.396 9.65273 6.396 9.92688C6.396 10.201 6.61824 10.4233 6.8924 10.4233Z" fill="#85BD57"/>
  <path d="M8.2132 10.4233C8.48735 10.4233 8.7096 10.201 8.7096 9.92688C8.7096 9.65273 8.48735 9.43048 8.2132 9.43048C7.93904 9.43048 7.7168 9.65273 7.7168 9.92688C7.7168 10.201 7.93904 10.4233 8.2132 10.4233Z" fill="#53B1E2"/>
  <path d="M14.9987 12.0804H5.00111C4.60671 12.0804 4.28711 12.4004 4.28711 12.7944V14.0376C4.28711 14.432 4.60711 14.7516 5.00111 14.7516H14.9987C15.3931 14.7516 15.7127 14.432 15.7127 14.0376V12.7944C15.7127 12.4 15.3927 12.0804 14.9987 12.0804Z" fill="#026DEB"/>
  <path d="M5.5716 13.9124C5.84575 13.9124 6.068 13.6902 6.068 13.416C6.068 13.1419 5.84575 12.9196 5.5716 12.9196C5.29744 12.9196 5.0752 13.1419 5.0752 13.416C5.0752 13.6902 5.29744 13.9124 5.5716 13.9124Z" fill="#EC6E62"/>
  <path d="M6.8924 13.9124C7.16655 13.9124 7.3888 13.6902 7.3888 13.416C7.3888 13.1419 7.16655 12.9196 6.8924 12.9196C6.61824 12.9196 6.396 13.1419 6.396 13.416C6.396 13.6902 6.61824 13.9124 6.8924 13.9124Z" fill="#85BD57"/>
  <path d="M8.2132 13.9124C8.48735 13.9124 8.7096 13.6902 8.7096 13.416C8.7096 13.1419 8.48735 12.9196 8.2132 12.9196C7.93904 12.9196 7.7168 13.1419 7.7168 13.416C7.7168 13.6902 7.93904 13.9124 8.2132 13.9124Z" fill="#53B1E2"/>
  <path d="M5.36084 11.2632H14.6388V12.0808H5.36084V11.2632Z" fill="#026DEB" fill-opacity="0.6"/>
  <path d="M14.9987 15.5695H5.00111C4.60671 15.5695 4.28711 15.8895 4.28711 16.2835V17.5267C4.28711 17.9211 4.60711 18.2407 5.00111 18.2407H14.9987C15.3931 18.2407 15.7127 17.9207 15.7127 17.5267V16.2835C15.7127 15.8891 15.3927 15.5695 14.9987 15.5695Z" fill="#026DEB"/>
  <path d="M5.5716 17.4012C5.84575 17.4012 6.068 17.1789 6.068 16.9048C6.068 16.6306 5.84575 16.4084 5.5716 16.4084C5.29744 16.4084 5.0752 16.6306 5.0752 16.9048C5.0752 17.1789 5.29744 17.4012 5.5716 17.4012Z" fill="#EC6E62"/>
  <path d="M6.8924 17.4012C7.16655 17.4012 7.3888 17.1789 7.3888 16.9048C7.3888 16.6306 7.16655 16.4084 6.8924 16.4084C6.61824 16.4084 6.396 16.6306 6.396 16.9048C6.396 17.1789 6.61824 17.4012 6.8924 17.4012Z" fill="#85BD57"/>
  <path d="M8.2132 17.4012C8.48735 17.4012 8.7096 17.1789 8.7096 16.9048C8.7096 16.6306 8.48735 16.4084 8.2132 16.4084C7.93904 16.4084 7.7168 16.6306 7.7168 16.9048C7.7168 17.1789 7.93904 17.4012 8.2132 17.4012Z" fill="#53B1E2"/>
  <path d="M5.36084 14.7516H14.6388V15.5692H5.36084V14.7516Z" fill="#026DEB" fill-opacity="0.6"/>
</svg>