<svg width="20" height="20" viewBox="0 0 20 20" fill="none" xmlns="http://www.w3.org/2000/svg">
<g opacity="0.72" clip-path="url(#clip0_1531_4047)">
<path d="M19.5999 7.08961C19.5999 8.97681 18.0719 10.5052 16.1875 10.5052H3.2503C2.49446 10.5048 1.7697 10.2043 1.23523 9.66988C0.700772 9.13542 0.400326 8.41065 0.399902 7.65481C0.399902 6.07961 1.6775 4.80201 3.2503 4.80201C3.3279 4.80201 3.4063 4.80481 3.4839 4.81001C4.0435 3.04281 5.6995 1.76001 7.6507 1.76001C8.7555 1.76001 9.7635 2.16921 10.5315 2.84561C10.8378 2.51634 11.2282 2.27706 11.6606 2.15366C12.0931 2.03026 12.551 2.02743 12.9849 2.14548C13.4188 2.26352 13.8122 2.49795 14.1225 2.82341C14.4328 3.14886 14.6483 3.55297 14.7455 3.99201C15.1973 3.78228 15.6894 3.67388 16.1875 3.67441C18.0715 3.67441 19.5999 5.20241 19.5999 7.08961Z" fill="#15171C" fill-opacity="0.8"/>
<path d="M14.9987 8.59195H5.00111C4.60671 8.59195 4.28711 8.91155 4.28711 9.30595V10.5488C4.28711 10.9432 4.60711 11.2632 5.00111 11.2632H14.9987C15.3931 11.2632 15.7127 10.9432 15.7127 10.5488V9.30595C15.7127 8.91155 15.3927 8.59195 14.9987 8.59195Z" fill="#15171C"/>
<path fill-rule="evenodd" clip-rule="evenodd" d="M11.7129 15.5696H4.714C4.3196 15.5696 4 15.8896 4 16.2836V17.5268C4 17.9212 4.32 18.2408 4.714 18.2408H11.909C11.7817 17.8502 11.7129 17.4331 11.7129 17V15.5696ZM12.9787 12.0804H4.714C4.3196 12.0804 4 12.4004 4 12.7944V14.0376C4 14.432 4.32 14.7516 4.714 14.7516H11.7205C11.7849 13.6996 12.2561 12.7574 12.9787 12.0804Z" fill="#15171C"/>
<path d="M5.5716 10.4232C5.84575 10.4232 6.068 10.201 6.068 9.92682C6.068 9.65267 5.84575 9.43042 5.5716 9.43042C5.29744 9.43042 5.0752 9.65267 5.0752 9.92682C5.0752 10.201 5.29744 10.4232 5.5716 10.4232Z" fill="#EC6E62"/>
<path d="M6.8924 10.4232C7.16655 10.4232 7.3888 10.201 7.3888 9.92682C7.3888 9.65267 7.16655 9.43042 6.8924 9.43042C6.61824 9.43042 6.396 9.65267 6.396 9.92682C6.396 10.201 6.61824 10.4232 6.8924 10.4232Z" fill="#85BD57"/>
<path d="M8.2132 10.4232C8.48735 10.4232 8.7096 10.201 8.7096 9.92682C8.7096 9.65267 8.48735 9.43042 8.2132 9.43042C7.93904 9.43042 7.7168 9.65267 7.7168 9.92682C7.7168 10.201 7.93904 10.4232 8.2132 10.4232Z" fill="#53B1E2"/>
<path d="M5.36084 11.2632H14.6388V12.0808H5.36084V11.2632Z" fill="#15171C" fill-opacity="0.87"/>
<path d="M5.5716 13.9124C5.84575 13.9124 6.068 13.6901 6.068 13.416C6.068 13.1418 5.84575 12.9196 5.5716 12.9196C5.29744 12.9196 5.0752 13.1418 5.0752 13.416C5.0752 13.6901 5.29744 13.9124 5.5716 13.9124Z" fill="#EC6E62"/>
<path d="M6.8924 13.9124C7.16655 13.9124 7.3888 13.6901 7.3888 13.416C7.3888 13.1418 7.16655 12.9196 6.8924 12.9196C6.61824 12.9196 6.396 13.1418 6.396 13.416C6.396 13.6901 6.61824 13.9124 6.8924 13.9124Z" fill="#85BD57"/>
<path d="M8.2132 13.9124C8.48735 13.9124 8.7096 13.6901 8.7096 13.416C8.7096 13.1418 8.48735 12.9196 8.2132 12.9196C7.93904 12.9196 7.7168 13.1418 7.7168 13.416C7.7168 13.6901 7.93904 13.9124 8.2132 13.9124Z" fill="#53B1E2"/>
<path d="M5.5716 17.4012C5.84575 17.4012 6.068 17.179 6.068 16.9048C6.068 16.6307 5.84575 16.4084 5.5716 16.4084C5.29744 16.4084 5.0752 16.6307 5.0752 16.9048C5.0752 17.179 5.29744 17.4012 5.5716 17.4012Z" fill="#EC6E62"/>
<path d="M6.8924 17.4012C7.16655 17.4012 7.3888 17.179 7.3888 16.9048C7.3888 16.6307 7.16655 16.4084 6.8924 16.4084C6.61824 16.4084 6.396 16.6307 6.396 16.9048C6.396 17.179 6.61824 17.4012 6.8924 17.4012Z" fill="#85BD57"/>
<path d="M8.2132 17.4012C8.48735 17.4012 8.7096 17.179 8.7096 16.9048C8.7096 16.6307 8.48735 16.4084 8.2132 16.4084C7.93904 16.4084 7.7168 16.6307 7.7168 16.9048C7.7168 17.179 7.93904 17.4012 8.2132 17.4012Z" fill="#53B1E2"/>
<path fill-rule="evenodd" clip-rule="evenodd" d="M16.4 18.3C16.4 18.5761 16.6239 18.8 16.9 18.8C17.1761 18.8 17.4 18.5761 17.4 18.3V16.4H19.3C19.5761 16.4 19.8 16.1761 19.8 15.9C19.8 15.6239 19.5761 15.4 19.3 15.4H17.4V13.5C17.4 13.2239 17.1761 13 16.9 13C16.6239 13 16.4 13.2239 16.4 13.5V15.4H14.5C14.2239 15.4 14 15.6239 14 15.9C14 16.1761 14.2239 16.4 14.5 16.4H16.4V18.3Z" fill="#15171C"/>
</g>
<defs>
<clipPath id="clip0_1531_4047">
<rect width="20" height="20" fill="white"/>
</clipPath>
</defs>
</svg>
