<svg width="20" height="20" viewBox="0 0 20 20" fill="none" xmlns="http://www.w3.org/2000/svg">
<path d="M9.43426 11.0156H10.5651V14.9808H9.43426V11.0156ZM3.68066 16.2128C3.68066 15.9008 3.93386 15.6476 4.24586 15.6476H10.7539C10.9012 15.6515 11.0412 15.7128 11.144 15.8184C11.2469 15.924 11.3044 16.0656 11.3044 16.213C11.3044 16.3604 11.2469 16.502 11.144 16.6076C11.0412 16.7132 10.9012 16.7745 10.7539 16.7784H4.24586C3.93386 16.7784 3.68066 16.5252 3.68066 16.2128Z" fill="#fff"/>
<path d="M10.0001 18.2239C11.1106 18.2239 12.0109 17.3236 12.0109 16.2131C12.0109 15.1025 11.1106 14.2023 10.0001 14.2023C8.88952 14.2023 7.98926 15.1025 7.98926 16.2131C7.98926 17.3236 8.88952 18.2239 10.0001 18.2239Z" fill="#fff"/>
<path d="M9.9998 17.2336C10.5636 17.2336 11.0206 16.7766 11.0206 16.2128C11.0206 15.649 10.5636 15.192 9.9998 15.192C9.43603 15.192 8.979 15.649 8.979 16.2128C8.979 16.7766 9.43603 17.2336 9.9998 17.2336Z" fill="#fff"/>
<path d="M5 4H14V9H5V4Z" fill="#fff"/>
<path d="M6.09468 4.99344C6.58843 4.99344 6.98868 4.59319 6.98868 4.09944C6.98868 3.6057 6.58843 3.20544 6.09468 3.20544C5.60094 3.20544 5.20068 3.6057 5.20068 4.09944C5.20068 4.59319 5.60094 4.99344 6.09468 4.99344Z" fill="#fff"/>
<path d="M8.6357 4.99344C9.12944 4.99344 9.5297 4.59319 9.5297 4.09944C9.5297 3.6057 9.12944 3.20544 8.6357 3.20544C8.14196 3.20544 7.7417 3.6057 7.7417 4.09944C7.7417 4.59319 8.14196 4.99344 8.6357 4.99344Z" fill="#85BD57"/>
<path d="M6.09468 11.0153C6.58843 11.0153 6.98868 10.615 6.98868 10.1213C6.98868 9.62755 6.58843 9.22729 6.09468 9.22729C5.60094 9.22729 5.20068 9.62755 5.20068 10.1213C5.20068 10.615 5.60094 11.0153 6.09468 11.0153Z" fill="#fff"/>
<path d="M8.6357 11.0153C9.12944 11.0153 9.5297 10.615 9.5297 10.1213C9.5297 9.62755 9.12944 9.22729 8.6357 9.22729C8.14196 9.22729 7.7417 9.62755 7.7417 10.1213C7.7417 10.615 8.14196 11.0153 8.6357 11.0153Z" fill="#85BD57"/>
<path fill-rule="evenodd" clip-rule="evenodd" d="M5.30012 7.79917H14.7001C14.9207 7.79911 15.1391 7.84251 15.3428 7.92687C15.5466 8.01124 15.7318 8.13492 15.8877 8.29085C16.0437 8.44679 16.1674 8.63192 16.2519 8.83567C16.2742 8.88949 16.2936 8.94434 16.3101 8.99997H15C12.9794 8.99997 11.3087 10.4982 11.0383 12.4444H5.30012C5.07957 12.4444 4.86117 12.401 4.65739 12.3167C4.45362 12.2323 4.26846 12.1086 4.11248 11.9527C3.95651 11.7968 3.83279 11.6116 3.74838 11.4079C3.66396 11.2041 3.62052 10.9857 3.62052 10.7652V9.47837C3.62052 9.25782 3.66396 9.03943 3.74838 8.83567C3.83279 8.63192 3.95651 8.44679 4.11248 8.29085C4.26846 8.13492 4.45362 8.01124 4.65739 7.92687C4.86117 7.84251 5.07957 7.79911 5.30012 7.79917ZM5.30012 1.77637H14.7001L14.6997 1.77677C14.9203 1.77671 15.1387 1.82011 15.3424 1.90447C15.5462 1.98884 15.7314 2.11252 15.8874 2.26845C16.0433 2.42439 16.167 2.60952 16.2515 2.81327C16.3359 3.01703 16.3793 3.23542 16.3793 3.45597V4.74237C16.3794 4.96295 16.336 5.18138 16.2516 5.38519C16.1672 5.58899 16.0435 5.77417 15.8875 5.93014C15.7315 6.08612 15.5463 6.20983 15.3425 6.29422C15.1387 6.37861 14.9203 6.42202 14.6997 6.42197H5.29972C5.07913 6.42202 4.8607 6.37861 4.6569 6.29422C4.4531 6.20983 4.26792 6.08612 4.11194 5.93014C3.95597 5.77417 3.83225 5.58899 3.74786 5.38519C3.66347 5.18138 3.62006 4.96295 3.62012 4.74237V3.45557C3.62012 3.23498 3.66358 3.01656 3.74802 2.81278C3.83245 2.609 3.95621 2.42385 4.11223 2.26791C4.26824 2.11197 4.45345 1.9883 4.65727 1.90396C4.86109 1.81962 5.07953 1.77626 5.30012 1.77637Z" fill="#fff"/>
<path d="M6.09468 4.99344C6.58843 4.99344 6.98868 4.59319 6.98868 4.09944C6.98868 3.6057 6.58843 3.20544 6.09468 3.20544C5.60094 3.20544 5.20068 3.6057 5.20068 4.09944C5.20068 4.59319 5.60094 4.99344 6.09468 4.99344Z" fill="#fff"/>
<path d="M8.6357 4.99344C9.12944 4.99344 9.5297 4.59319 9.5297 4.09944C9.5297 3.6057 9.12944 3.20544 8.6357 3.20544C8.14196 3.20544 7.7417 3.6057 7.7417 4.09944C7.7417 4.59319 8.14196 4.99344 8.6357 4.99344Z" fill="#85BD57"/>
<path d="M6.09468 11.0153C6.58843 11.0153 6.98868 10.615 6.98868 10.1213C6.98868 9.62755 6.58843 9.22729 6.09468 9.22729C5.60094 9.22729 5.20068 9.62755 5.20068 10.1213C5.20068 10.615 5.60094 11.0153 6.09468 11.0153Z" fill="#fff"/>
<path d="M8.6357 11.0153C9.12944 11.0153 9.5297 10.615 9.5297 10.1213C9.5297 9.62755 9.12944 9.22729 8.6357 9.22729C8.14196 9.22729 7.7417 9.62755 7.7417 10.1213C7.7417 10.615 8.14196 11.0153 8.6357 11.0153Z" fill="#85BD57"/>
<path fill-rule="evenodd" clip-rule="evenodd" d="M16.4 16.3C16.4 16.5761 16.6239 16.8 16.9 16.8C17.1761 16.8 17.4 16.5761 17.4 16.3V14.4H19.3C19.5761 14.4 19.8 14.1761 19.8 13.9C19.8 13.6239 19.5761 13.4 19.3 13.4H17.4V11.5C17.4 11.2239 17.1761 11 16.9 11C16.6239 11 16.4 11.2239 16.4 11.5V13.4H14.5C14.2239 13.4 14 13.6239 14 13.9C14 14.1761 14.2239 14.4 14.5 14.4H16.4V16.3Z" fill="#fff"/>
</svg>
