<svg xmlns="http://www.w3.org/2000/svg" width="20" height="20" viewBox="0 0 20 20" fill="none">
  <path d="M19.6 7.08937C19.6 8.97657 18.072 10.505 16.1876 10.505H3.25042C2.49458 10.5045 1.76982 10.2041 1.23536 9.66964C0.700894 9.13517 0.400448 8.41041 0.400024 7.65457C0.400024 6.07937 1.67762 4.80177 3.25042 4.80177C3.32802 4.80177 3.40642 4.80457 3.48402 4.80977C4.04362 3.04257 5.69963 1.75977 7.65083 1.75977C8.75562 1.75977 9.76363 2.16897 10.5316 2.84537C10.8379 2.51609 11.2283 2.27682 11.6608 2.15342C12.0932 2.03002 12.5511 2.02719 12.985 2.14523C13.4189 2.26328 13.8123 2.4977 14.1226 2.82316C14.433 3.14862 14.6484 3.55272 14.7456 3.99177C15.1974 3.78204 15.6896 3.67364 16.1876 3.67417C18.0716 3.67417 19.6 5.20217 19.6 7.08937Z" fill="#026DEB" fill-opacity="0.8"/>
  <path d="M14.9988 8.5922H5.00117C4.60677 8.5922 4.28717 8.9118 4.28717 9.3062V10.549C4.28717 10.9434 4.60717 11.2634 5.00117 11.2634H14.9988C15.3932 11.2634 15.7128 10.9434 15.7128 10.549V9.3062C15.7128 8.9118 15.3928 8.5922 14.9988 8.5922Z" fill="#026DEB"/>
  <path fill-rule="evenodd" clip-rule="evenodd" d="M11.7129 15.5697H4.714C4.3196 15.5697 4 15.8897 4 16.2837V17.5269C4 17.9213 4.32 18.2409 4.714 18.2409H11.909C11.7817 17.8503 11.7129 17.4333 11.7129 17.0002V15.5697ZM12.9787 12.0806H4.714C4.3196 12.0806 4 12.4006 4 12.7946V14.0378C4 14.4322 4.32 14.7518 4.714 14.7518H11.7205C11.7849 13.6997 12.2561 12.7576 12.9787 12.0806Z" fill="#026DEB"/>
  <path d="M5.5716 10.4235C5.84575 10.4235 6.068 10.2012 6.068 9.92706C6.068 9.65291 5.84575 9.43066 5.5716 9.43066C5.29744 9.43066 5.0752 9.65291 5.0752 9.92706C5.0752 10.2012 5.29744 10.4235 5.5716 10.4235Z" fill="#EC6E62"/>
  <path d="M6.8924 10.4235C7.16655 10.4235 7.3888 10.2012 7.3888 9.92706C7.3888 9.65291 7.16655 9.43066 6.8924 9.43066C6.61824 9.43066 6.396 9.65291 6.396 9.92706C6.396 10.2012 6.61824 10.4235 6.8924 10.4235Z" fill="#85BD57"/>
  <path d="M8.2132 10.4235C8.48735 10.4235 8.7096 10.2012 8.7096 9.92706C8.7096 9.65291 8.48735 9.43066 8.2132 9.43066C7.93904 9.43066 7.7168 9.65291 7.7168 9.92706C7.7168 10.2012 7.93904 10.4235 8.2132 10.4235Z" fill="#53B1E2"/>
  <path d="M5.36078 11.2632H14.6388V12.0808H5.36078V11.2632Z" fill="#026DEB" fill-opacity="0.87"/>
  <path d="M5.5716 13.9122C5.84575 13.9122 6.068 13.69 6.068 13.4158C6.068 13.1417 5.84575 12.9194 5.5716 12.9194C5.29744 12.9194 5.0752 13.1417 5.0752 13.4158C5.0752 13.69 5.29744 13.9122 5.5716 13.9122Z" fill="#EC6E62"/>
  <path d="M6.8924 13.9122C7.16655 13.9122 7.3888 13.69 7.3888 13.4158C7.3888 13.1417 7.16655 12.9194 6.8924 12.9194C6.61824 12.9194 6.396 13.1417 6.396 13.4158C6.396 13.69 6.61824 13.9122 6.8924 13.9122Z" fill="#85BD57"/>
  <path d="M8.2132 13.9122C8.48735 13.9122 8.7096 13.69 8.7096 13.4158C8.7096 13.1417 8.48735 12.9194 8.2132 12.9194C7.93904 12.9194 7.7168 13.1417 7.7168 13.4158C7.7168 13.69 7.93904 13.9122 8.2132 13.9122Z" fill="#53B1E2"/>
  <path d="M5.5716 17.401C5.84575 17.401 6.068 17.1788 6.068 16.9046C6.068 16.6304 5.84575 16.4082 5.5716 16.4082C5.29744 16.4082 5.0752 16.6304 5.0752 16.9046C5.0752 17.1788 5.29744 17.401 5.5716 17.401Z" fill="#EC6E62"/>
  <path d="M6.8924 17.401C7.16655 17.401 7.3888 17.1788 7.3888 16.9046C7.3888 16.6304 7.16655 16.4082 6.8924 16.4082C6.61824 16.4082 6.396 16.6304 6.396 16.9046C6.396 17.1788 6.61824 17.401 6.8924 17.401Z" fill="#85BD57"/>
  <path d="M8.2132 17.401C8.48735 17.401 8.7096 17.1788 8.7096 16.9046C8.7096 16.6304 8.48735 16.4082 8.2132 16.4082C7.93904 16.4082 7.7168 16.6304 7.7168 16.9046C7.7168 17.1788 7.93904 17.401 8.2132 17.401Z" fill="#53B1E2"/>
  <path fill-rule="evenodd" clip-rule="evenodd" d="M16.4 18.3C16.4 18.5761 16.6239 18.8 16.9 18.8C17.1761 18.8 17.4 18.5761 17.4 18.3V16.4H19.3C19.5761 16.4 19.8 16.1761 19.8 15.9C19.8 15.6239 19.5761 15.4 19.3 15.4H17.4V13.5C17.4 13.2239 17.1761 13 16.9 13C16.6239 13 16.4 13.2239 16.4 13.5V15.4H14.5C14.2239 15.4 14 15.6239 14 15.9C14 16.1761 14.2239 16.4 14.5 16.4H16.4V18.3Z" fill="#026DEB"/>
</svg>