<svg width="20" height="20" viewBox="0 0 20 20" fill="none" xmlns="http://www.w3.org/2000/svg">
<g opacity="0.72" clip-path="url(#clip0_1531_3955)">
<path d="M9.99992 6.66669V1.66669H4.99992C4.55789 1.66669 4.13397 1.84228 3.82141 2.15484C3.50885 2.4674 3.33325 2.89133 3.33325 3.33335V16.6667C3.33325 17.1087 3.50885 17.5326 3.82141 17.8452C4.13397 18.1578 4.55789 18.3334 4.99992 18.3334H14.9999C15.4419 18.3334 15.8659 18.1578 16.1784 17.8452C16.491 17.5326 16.6666 17.1087 16.6666 16.6667V8.33335H11.6666C11.2246 8.33335 10.8006 8.15776 10.4881 7.8452C10.1755 7.53264 9.99992 7.10871 9.99992 6.66669ZM5.83325 10.2084C5.83325 10.0426 5.8991 9.88362 6.01631 9.76641C6.13352 9.6492 6.29249 9.58335 6.45825 9.58335C6.62401 9.58335 6.78298 9.6492 6.90019 9.76641C7.0174 9.88362 7.08325 10.0426 7.08325 10.2084C7.08325 10.3741 7.0174 10.5331 6.90019 10.6503C6.78298 10.7675 6.62401 10.8334 6.45825 10.8334C6.29249 10.8334 6.13352 10.7675 6.01631 10.6503C5.8991 10.5331 5.83325 10.3741 5.83325 10.2084ZM5.83325 12.7084C5.83325 12.5426 5.8991 12.3836 6.01631 12.2664C6.13352 12.1492 6.29249 12.0834 6.45825 12.0834C6.62401 12.0834 6.78298 12.1492 6.90019 12.2664C7.0174 12.3836 7.08325 12.5426 7.08325 12.7084C7.08325 12.8741 7.0174 13.0331 6.90019 13.1503C6.78298 13.2675 6.62401 13.3334 6.45825 13.3334C6.29249 13.3334 6.13352 13.2675 6.01631 13.1503C5.8991 13.0331 5.83325 12.8741 5.83325 12.7084ZM5.83325 15.2084C5.83325 15.0426 5.8991 14.8836 6.01631 14.7664C6.13352 14.6492 6.29249 14.5834 6.45825 14.5834C6.62401 14.5834 6.78298 14.6492 6.90019 14.7664C7.0174 14.8836 7.08325 15.0426 7.08325 15.2084C7.08325 15.3741 7.0174 15.5331 6.90019 15.6503C6.78298 15.7675 6.62401 15.8334 6.45825 15.8334C6.29249 15.8334 6.13352 15.7675 6.01631 15.6503C5.8991 15.5331 5.83325 15.3741 5.83325 15.2084ZM8.33325 10.2084C8.33325 10.0426 8.3991 9.88362 8.51631 9.76641C8.63352 9.6492 8.79249 9.58335 8.95825 9.58335H13.5416C13.7073 9.58335 13.8663 9.6492 13.9835 9.76641C14.1007 9.88362 14.1666 10.0426 14.1666 10.2084C14.1666 10.3741 14.1007 10.5331 13.9835 10.6503C13.8663 10.7675 13.7073 10.8334 13.5416 10.8334H8.95825C8.79249 10.8334 8.63352 10.7675 8.51631 10.6503C8.3991 10.5331 8.33325 10.3741 8.33325 10.2084ZM8.33325 12.7084C8.33325 12.5426 8.3991 12.3836 8.51631 12.2664C8.63352 12.1492 8.79249 12.0834 8.95825 12.0834H13.5416C13.7073 12.0834 13.8663 12.1492 13.9835 12.2664C14.1007 12.3836 14.1666 12.5426 14.1666 12.7084C14.1666 12.8741 14.1007 13.0331 13.9835 13.1503C13.8663 13.2675 13.7073 13.3334 13.5416 13.3334H8.95825C8.79249 13.3334 8.63352 13.2675 8.51631 13.1503C8.3991 13.0331 8.33325 12.8741 8.33325 12.7084ZM8.33325 15.2084C8.33325 15.0426 8.3991 14.8836 8.51631 14.7664C8.63352 14.6492 8.79249 14.5834 8.95825 14.5834H13.5416C13.7073 14.5834 13.8663 14.6492 13.9835 14.7664C14.1007 14.8836 14.1666 15.0426 14.1666 15.2084C14.1666 15.3741 14.1007 15.5331 13.9835 15.6503C13.8663 15.7675 13.7073 15.8334 13.5416 15.8334H8.95825C8.79249 15.8334 8.63352 15.7675 8.51631 15.6503C8.3991 15.5331 8.33325 15.3741 8.33325 15.2084ZM11.2499 6.66669V2.08335L16.2499 7.08335H11.6666C11.5561 7.08335 11.4501 7.03946 11.372 6.96132C11.2938 6.88317 11.2499 6.77719 11.2499 6.66669Z" fill="#15171C"/>
</g>
<defs>
<clipPath id="clip0_1531_3955">
<rect width="20" height="20" fill="white"/>
</clipPath>
</defs>
</svg>
