<svg xmlns="http://www.w3.org/2000/svg" width="20" height="20" viewBox="0 0 20 20" fill="none">
  <path d="M9.99999 6.66666V1.66666H4.99999C4.55797 1.66666 4.13404 1.84225 3.82148 2.15481C3.50892 2.46737 3.33333 2.8913 3.33333 3.33332V16.6667C3.33333 17.1087 3.50892 17.5326 3.82148 17.8452C4.13404 18.1577 4.55797 18.3333 4.99999 18.3333H15C15.442 18.3333 15.8659 18.1577 16.1785 17.8452C16.4911 17.5326 16.6667 17.1087 16.6667 16.6667V8.33332H11.6667C11.2246 8.33332 10.8007 8.15773 10.4882 7.84517C10.1756 7.53261 9.99999 7.10868 9.99999 6.66666ZM5.83333 10.2083C5.83333 10.0426 5.89918 9.88359 6.01639 9.76638C6.1336 9.64917 6.29257 9.58332 6.45833 9.58332C6.62409 9.58332 6.78306 9.64917 6.90027 9.76638C7.01748 9.88359 7.08333 10.0426 7.08333 10.2083C7.08333 10.3741 7.01748 10.5331 6.90027 10.6503C6.78306 10.7675 6.62409 10.8333 6.45833 10.8333C6.29257 10.8333 6.1336 10.7675 6.01639 10.6503C5.89918 10.5331 5.83333 10.3741 5.83333 10.2083ZM5.83333 12.7083C5.83333 12.5426 5.89918 12.3836 6.01639 12.2664C6.1336 12.1492 6.29257 12.0833 6.45833 12.0833C6.62409 12.0833 6.78306 12.1492 6.90027 12.2664C7.01748 12.3836 7.08333 12.5426 7.08333 12.7083C7.08333 12.8741 7.01748 13.0331 6.90027 13.1503C6.78306 13.2675 6.62409 13.3333 6.45833 13.3333C6.29257 13.3333 6.1336 13.2675 6.01639 13.1503C5.89918 13.0331 5.83333 12.8741 5.83333 12.7083ZM5.83333 15.2083C5.83333 15.0426 5.89918 14.8836 6.01639 14.7664C6.1336 14.6492 6.29257 14.5833 6.45833 14.5833C6.62409 14.5833 6.78306 14.6492 6.90027 14.7664C7.01748 14.8836 7.08333 15.0426 7.08333 15.2083C7.08333 15.3741 7.01748 15.5331 6.90027 15.6503C6.78306 15.7675 6.62409 15.8333 6.45833 15.8333C6.29257 15.8333 6.1336 15.7675 6.01639 15.6503C5.89918 15.5331 5.83333 15.3741 5.83333 15.2083ZM8.33333 10.2083C8.33333 10.0426 8.39918 9.88359 8.51639 9.76638C8.6336 9.64917 8.79257 9.58332 8.95833 9.58332H13.5417C13.7074 9.58332 13.8664 9.64917 13.9836 9.76638C14.1008 9.88359 14.1667 10.0426 14.1667 10.2083C14.1667 10.3741 14.1008 10.5331 13.9836 10.6503C13.8664 10.7675 13.7074 10.8333 13.5417 10.8333H8.95833C8.79257 10.8333 8.6336 10.7675 8.51639 10.6503C8.39918 10.5331 8.33333 10.3741 8.33333 10.2083ZM8.33333 12.7083C8.33333 12.5426 8.39918 12.3836 8.51639 12.2664C8.6336 12.1492 8.79257 12.0833 8.95833 12.0833H13.5417C13.7074 12.0833 13.8664 12.1492 13.9836 12.2664C14.1008 12.3836 14.1667 12.5426 14.1667 12.7083C14.1667 12.8741 14.1008 13.0331 13.9836 13.1503C13.8664 13.2675 13.7074 13.3333 13.5417 13.3333H8.95833C8.79257 13.3333 8.6336 13.2675 8.51639 13.1503C8.39918 13.0331 8.33333 12.8741 8.33333 12.7083ZM8.33333 15.2083C8.33333 15.0426 8.39918 14.8836 8.51639 14.7664C8.6336 14.6492 8.79257 14.5833 8.95833 14.5833H13.5417C13.7074 14.5833 13.8664 14.6492 13.9836 14.7664C14.1008 14.8836 14.1667 15.0426 14.1667 15.2083C14.1667 15.3741 14.1008 15.5331 13.9836 15.6503C13.8664 15.7675 13.7074 15.8333 13.5417 15.8333H8.95833C8.79257 15.8333 8.6336 15.7675 8.51639 15.6503C8.39918 15.5331 8.33333 15.3741 8.33333 15.2083ZM11.25 6.66666V2.08332L16.25 7.08332H11.6667C11.5562 7.08332 11.4502 7.03942 11.372 6.96128C11.2939 6.88314 11.25 6.77716 11.25 6.66666Z" fill="#026DEB"/>
</svg>