<svg xmlns="http://www.w3.org/2000/svg" width="20" height="20" viewBox="0 0 20 20" fill="none">
  <path d="M2.5 3.12256C2.5 2.9568 2.56585 2.79783 2.68306 2.68062C2.80027 2.56341 2.95924 2.49756 3.125 2.49756H16.8783C16.9944 2.49756 17.1082 2.52988 17.2069 2.5909C17.3056 2.65192 17.3854 2.73923 17.4373 2.84305C17.4893 2.94687 17.5112 3.06309 17.5008 3.17869C17.4904 3.29429 17.448 3.4047 17.3783 3.49756L13.9083 8.12339L17.3783 12.7501C17.448 12.8429 17.4904 12.9533 17.5008 13.0689C17.5112 13.1845 17.4893 13.3008 17.4373 13.4046C17.3854 13.5084 17.3056 13.5957 17.2069 13.6567C17.1082 13.7177 16.9944 13.7501 16.8783 13.7501H3.75V17.7076C3.74999 17.8586 3.6953 18.0045 3.59603 18.1183C3.49676 18.2322 3.35963 18.3062 3.21 18.3267L3.125 18.3334C2.97397 18.3334 2.82805 18.2787 2.71422 18.1794C2.6004 18.0801 2.52637 17.943 2.50583 17.7934L2.5 17.7076V3.12256Z" fill="#026DEB"/>
</svg>