<svg width="20" height="20" viewBox="0 0 20 20" fill="none" xmlns="http://www.w3.org/2000/svg">
<g opacity="0.72" clip-path="url(#clip0_1531_3999)">
<path d="M2.5 3.1225C2.5 2.95674 2.56585 2.79777 2.68306 2.68056C2.80027 2.56335 2.95924 2.4975 3.125 2.4975H16.8783C16.9944 2.4975 17.1082 2.52982 17.2069 2.59084C17.3056 2.65186 17.3854 2.73917 17.4373 2.84299C17.4893 2.94681 17.5112 3.06303 17.5008 3.17863C17.4904 3.29423 17.448 3.40464 17.3783 3.4975L13.9083 8.12333L17.3783 12.75C17.448 12.8429 17.4904 12.9533 17.5008 13.0689C17.5112 13.1845 17.4893 13.3007 17.4373 13.4045C17.3854 13.5083 17.3056 13.5956 17.2069 13.6567C17.1082 13.7177 16.9944 13.75 16.8783 13.75H3.75V17.7075C3.74999 17.8585 3.6953 18.0044 3.59603 18.1183C3.49676 18.2321 3.35963 18.3061 3.21 18.3267L3.125 18.3333C2.97397 18.3333 2.82805 18.2786 2.71422 18.1794C2.6004 18.0801 2.52637 17.943 2.50583 17.7933L2.5 17.7075V3.1225Z" fill="#fff"/>
</g>
<defs>
<clipPath id="clip0_1531_3999">
<rect width="20" height="20" fill="white"/>
</clipPath>
</defs>
</svg>
