<svg xmlns="http://www.w3.org/2000/svg" width="20" height="20" viewBox="0 0 20 20" fill="none">
  <g opacity="0.72">
    <path d="M14.795 11.6666C15.0412 11.6665 15.285 11.7149 15.5125 11.8091C15.7399 11.9032 15.9466 12.0412 16.1208 12.2153C16.2949 12.3893 16.433 12.596 16.5272 12.8234C16.6215 13.0509 16.67 13.2946 16.67 13.5408V14.3058C16.6699 14.7837 16.5204 15.2496 16.2425 15.6383C14.9541 17.4408 12.85 18.3333 9.99998 18.3333C7.14832 18.3333 5.04582 17.44 3.76082 15.6358C3.48442 15.2477 3.33586 14.7831 3.33582 14.3067V13.54C3.33571 13.2938 3.3841 13.05 3.47824 12.8225C3.57238 12.595 3.71041 12.3883 3.88445 12.2142C4.0585 12.0401 4.26514 11.902 4.49258 11.8077C4.72002 11.7135 4.96379 11.665 5.20998 11.665H14.7942L14.795 11.6666ZM9.99998 1.66998C11.1051 1.66998 12.1649 2.10897 12.9463 2.89037C13.7277 3.67177 14.1666 4.73158 14.1666 5.83665C14.1666 6.94172 13.7277 8.00153 12.9463 8.78293C12.1649 9.56433 11.1051 10.0033 9.99998 10.0033C8.89491 10.0033 7.83511 9.56433 7.0537 8.78293C6.2723 8.00153 5.83332 6.94172 5.83332 5.83665C5.83332 4.73158 6.2723 3.67177 7.0537 2.89037C7.83511 2.10897 8.89491 1.66998 9.99998 1.66998Z" fill="#15171C"/>
  </g>
</svg>