<svg xmlns="http://www.w3.org/2000/svg" width="20" height="20" viewBox="0 0 20 20" fill="none">
  <path d="M14.795 11.6667C15.0412 11.6666 15.285 11.715 15.5125 11.8091C15.7399 11.9033 15.9466 12.0413 16.1208 12.2153C16.2949 12.3894 16.433 12.596 16.5272 12.8235C16.6215 13.0509 16.67 13.2947 16.67 13.5409V14.3059C16.6699 14.7838 16.5204 15.2496 16.2425 15.6384C14.9541 17.4409 12.85 18.3334 9.99998 18.3334C7.14832 18.3334 5.04582 17.44 3.76082 15.6359C3.48442 15.2478 3.33586 14.7832 3.33582 14.3067V13.54C3.33571 13.2939 3.3841 13.0501 3.47824 12.8226C3.57238 12.5951 3.71041 12.3884 3.88445 12.2143C4.0585 12.0401 4.26514 11.902 4.49258 11.8078C4.72002 11.7135 4.96379 11.665 5.20998 11.665H14.7942L14.795 11.6667ZM9.99998 1.67004C11.1051 1.67004 12.1649 2.10903 12.9463 2.89043C13.7277 3.67183 14.1666 4.73164 14.1666 5.83671C14.1666 6.94178 13.7277 8.00159 12.9463 8.78299C12.1649 9.56439 11.1051 10.0034 9.99998 10.0034C8.89491 10.0034 7.83511 9.56439 7.0537 8.78299C6.2723 8.00159 5.83332 6.94178 5.83332 5.83671C5.83332 4.73164 6.2723 3.67183 7.0537 2.89043C7.83511 2.10903 8.89491 1.67004 9.99998 1.67004Z" fill="#026DEB"/>
</svg>