<svg xmlns="http://www.w3.org/2000/svg" width="20" height="20" viewBox="0 0 20 20" fill="none">
  <path d="M8.79167 2.11071C9.12981 1.82573 9.55779 1.66943 10 1.66943C10.4422 1.66943 10.8702 1.82573 11.2083 2.11071L16.8333 6.85655C17.2567 7.21238 17.5 7.73655 17.5 8.28988V16.4582C17.5 16.845 17.3464 17.2159 17.0729 17.4894C16.7994 17.7629 16.4284 17.9165 16.0417 17.9165H13.5417C13.1549 17.9165 12.784 17.7629 12.5105 17.4894C12.237 17.2159 12.0833 16.845 12.0833 16.4582V12.2915C12.0833 12.1258 12.0175 11.9668 11.9003 11.8496C11.7831 11.7324 11.6241 11.6665 11.4583 11.6665H8.54167C8.37591 11.6665 8.21694 11.7324 8.09973 11.8496C7.98251 11.9668 7.91667 12.1258 7.91667 12.2915V16.4582C7.91667 16.845 7.76302 17.2159 7.48953 17.4894C7.21604 17.7629 6.84511 17.9165 6.45833 17.9165H3.95833C3.76682 17.9165 3.57719 17.8788 3.40025 17.8055C3.22332 17.7322 3.06255 17.6248 2.92714 17.4894C2.79172 17.354 2.6843 17.1932 2.61101 17.0163C2.53772 16.8394 2.5 16.6497 2.5 16.4582V8.28905C2.5 7.73655 2.74333 7.21238 3.16667 6.85571L8.79167 2.11071Z" fill="white"/>
</svg>