<svg width="20" height="20" viewBox="0 0 20 20" fill="none" xmlns="http://www.w3.org/2000/svg">
<g opacity="0.72">
<path d="M8.79167 2.11083C9.12981 1.82585 9.55779 1.66956 10 1.66956C10.4422 1.66956 10.8702 1.82585 11.2083 2.11083L16.8333 6.85667C17.2567 7.2125 17.5 7.73667 17.5 8.29V16.4583C17.5 16.8451 17.3464 17.216 17.0729 17.4895C16.7994 17.763 16.4284 17.9167 16.0417 17.9167H13.5417C13.1549 17.9167 12.784 17.763 12.5105 17.4895C12.237 17.216 12.0833 16.8451 12.0833 16.4583V12.2917C12.0833 12.1259 12.0175 11.9669 11.9003 11.8497C11.7831 11.7325 11.6241 11.6667 11.4583 11.6667H8.54167C8.37591 11.6667 8.21694 11.7325 8.09973 11.8497C7.98251 11.9669 7.91667 12.1259 7.91667 12.2917V16.4583C7.91667 16.8451 7.76302 17.216 7.48953 17.4895C7.21604 17.763 6.84511 17.9167 6.45833 17.9167H3.95833C3.76682 17.9167 3.57719 17.8789 3.40025 17.8057C3.22332 17.7324 3.06255 17.625 2.92714 17.4895C2.79172 17.3541 2.6843 17.1933 2.61101 17.0164C2.53772 16.8395 2.5 16.6498 2.5 16.4583V8.28917C2.5 7.73667 2.74333 7.2125 3.16667 6.85584L8.79167 2.11083Z" fill="#15171C"/>
</g>
</svg>
