<svg xmlns="http://www.w3.org/2000/svg" width="20" height="20" viewBox="0 0 20 20" fill="none">
  <path d="M2.90835 13.0401C2.88777 12.8905 2.81372 12.7534 2.6999 12.6542C2.58608 12.5549 2.44019 12.5003 2.28918 12.5003C2.13818 12.5003 1.99229 12.5549 1.87847 12.6542C1.76465 12.7534 1.6906 12.8905 1.67002 13.0401L1.66418 13.1251V16.0434L1.66835 16.1892C1.70389 16.7467 1.94183 17.272 2.33744 17.6664C2.73305 18.0608 3.2591 18.2971 3.81668 18.3309L3.95585 18.3351H6.87252L6.95752 18.3301C7.10774 18.3102 7.24562 18.2364 7.34549 18.1224C7.44535 18.0084 7.50041 17.862 7.50041 17.7105C7.50041 17.559 7.44535 17.4126 7.34549 17.2986C7.24562 17.1846 7.10774 17.1108 6.95752 17.0909L6.87252 17.0851H3.95585L3.84918 17.0801C3.61101 17.0555 3.38859 16.9496 3.21936 16.7802C3.05013 16.6108 2.94442 16.3883 2.92002 16.1501L2.91418 16.0434V13.1251L2.90835 13.0401ZM18.325 13.0401C18.3034 12.8832 18.2231 12.7404 18.1003 12.6404C17.9774 12.5405 17.8212 12.4909 17.6633 12.5017C17.5053 12.5125 17.3573 12.5829 17.2492 12.6986C17.1411 12.8143 17.0809 12.9667 17.0809 13.1251V16.0434L17.0759 16.1501C17.0494 16.4066 16.9288 16.6442 16.7373 16.8169C16.5458 16.9897 16.2971 17.0852 16.0392 17.0851H13.1225L13.0375 17.0909C12.8806 17.1125 12.7378 17.1928 12.6379 17.3157C12.5379 17.4385 12.4884 17.5947 12.4992 17.7527C12.51 17.9107 12.5803 18.0587 12.696 18.1668C12.8117 18.2749 12.9642 18.335 13.1225 18.3351H16.0392L16.1792 18.3309C16.7617 18.2953 17.3086 18.0387 17.7084 17.6137C18.1083 17.1886 18.3309 16.627 18.3309 16.0434V13.1251L18.325 13.0401ZM7.49752 2.29175C7.49752 2.12599 7.43167 1.96702 7.31446 1.84981C7.19725 1.7326 7.03828 1.66675 6.87252 1.66675H3.95585L3.81668 1.67091C3.23405 1.70636 2.68691 1.9628 2.2869 2.3879C1.88689 2.81299 1.66417 3.37471 1.66418 3.95841V6.87675L1.67002 6.96175C1.6916 7.11862 1.77193 7.26146 1.89477 7.36139C2.01761 7.46132 2.1738 7.5109 2.33178 7.5001C2.48977 7.48931 2.63777 7.41895 2.74587 7.30324C2.85398 7.18753 2.91414 7.0351 2.91418 6.87675V3.95841L2.92002 3.85175C2.94641 3.59537 3.06691 3.35787 3.25824 3.18517C3.44956 3.01247 3.69811 2.91684 3.95585 2.91675H6.87252L6.95752 2.91091C7.10715 2.89037 7.24428 2.81635 7.34355 2.70252C7.44282 2.5887 7.49751 2.44278 7.49752 2.29175ZM16.1792 1.67091L16.0392 1.66675H13.1225L13.0375 1.67258C12.8879 1.69316 12.7508 1.76721 12.6516 1.88103C12.5524 1.99485 12.4977 2.14075 12.4977 2.29175C12.4977 2.44275 12.5524 2.58865 12.6516 2.70247C12.7508 2.81629 12.8879 2.89033 13.0375 2.91091L13.1225 2.91675H16.0392L16.1459 2.92175C16.3842 2.94618 16.6068 3.05201 16.7762 3.22141C16.9456 3.39081 17.0514 3.61343 17.0759 3.85175L17.0809 3.95841V6.87675L17.0867 6.96175C17.1073 7.11134 17.1813 7.24842 17.2951 7.34766C17.409 7.44689 17.5548 7.50156 17.7059 7.50156C17.8569 7.50156 18.0028 7.44689 18.1166 7.34766C18.2304 7.24842 18.3044 7.11134 18.325 6.96175L18.3309 6.87675V3.95841L18.3267 3.81342C18.2914 3.25592 18.0536 2.73052 17.6582 2.33599C17.2627 1.94145 16.7368 1.70494 16.1792 1.67091ZM7.08335 11.2501C7.08335 10.8671 7.15879 10.4878 7.30537 10.1339C7.45195 9.78006 7.66679 9.45852 7.93762 9.18769C8.20846 8.91685 8.52999 8.70201 8.88386 8.55543C9.23772 8.40886 9.617 8.33342 10 8.33342C10.383 8.33342 10.7623 8.40886 11.1162 8.55543C11.47 8.70201 11.7916 8.91685 12.0624 9.18769C12.3333 9.45852 12.5481 9.78006 12.6947 10.1339C12.8412 10.4878 12.9167 10.8671 12.9167 11.2501C12.9167 12.0236 12.6094 12.7655 12.0624 13.3125C11.5154 13.8595 10.7736 14.1667 10 14.1667C9.22647 14.1667 8.4846 13.8595 7.93762 13.3125C7.39064 12.7655 7.08335 12.0236 7.08335 11.2501Z" fill="#026DEB"/>
  <path d="M5.17498 9.78583L5.16831 9.80333V9.805C5.10963 9.95965 4.99204 10.0847 4.8413 10.1528C4.69057 10.2209 4.51898 10.2265 4.36414 10.1683C3.86581 9.98167 3.99914 9.36083 4.00081 9.35667L4.00581 9.34417C4.02754 9.28758 4.05173 9.23197 4.07831 9.1775C4.12831 9.07 4.20164 8.9225 4.30331 8.7475C4.57548 8.28313 4.90594 7.8555 5.28664 7.475C6.22164 6.54167 7.72914 5.625 9.99998 5.625C12.2716 5.625 13.7791 6.54167 14.7125 7.475C15.0932 7.8555 15.4236 8.28313 15.6958 8.7475C15.8078 8.93986 15.9075 9.13915 15.9941 9.34417L15.9991 9.35667L16.0008 9.36083V9.3625L16.0016 9.36417C16.0597 9.51932 16.0538 9.69118 15.9852 9.84197C15.9166 9.99276 15.7909 10.1101 15.6358 10.1683C15.4807 10.2246 15.3096 10.2179 15.1593 10.1497C15.009 10.0815 14.8914 9.95717 14.8316 9.80333L14.825 9.78667C14.825 9.78667 14.8058 9.74083 14.7883 9.70333C14.7361 9.59213 14.6789 9.4834 14.6166 9.3775C14.3986 9.00563 14.134 8.66313 13.8291 8.35833C13.0958 7.625 11.8958 6.875 9.99998 6.875C8.10498 6.875 6.90414 7.625 6.17081 8.35833C5.86597 8.66312 5.60132 9.00562 5.38331 9.3775C5.30609 9.5095 5.23653 9.64584 5.17498 9.78583Z" fill="#026DEB"/>
</svg>