<svg xmlns="http://www.w3.org/2000/svg" width="20" height="20" viewBox="0 0 20 20" fill="none">
  <g opacity="0.72">
    <path d="M2.90835 13.04C2.88777 12.8904 2.81372 12.7533 2.6999 12.6541C2.58608 12.5548 2.44019 12.5002 2.28918 12.5002C2.13818 12.5002 1.99229 12.5548 1.87847 12.6541C1.76465 12.7533 1.6906 12.8904 1.67002 13.04L1.66418 13.125V16.0433L1.66835 16.1891C1.70389 16.7466 1.94183 17.2719 2.33744 17.6663C2.73305 18.0607 3.2591 18.297 3.81668 18.3308L3.95585 18.335H6.87252L6.95752 18.33C7.10774 18.3101 7.24562 18.2362 7.34549 18.1223C7.44535 18.0083 7.50041 17.8619 7.50041 17.7104C7.50041 17.5588 7.44535 17.4125 7.34549 17.2985C7.24562 17.1845 7.10774 17.1107 6.95752 17.0908L6.87252 17.085H3.95585L3.84918 17.08C3.61101 17.0553 3.38859 16.9494 3.21936 16.7801C3.05013 16.6107 2.94442 16.3882 2.92002 16.15L2.91418 16.0433V13.125L2.90835 13.04ZM18.325 13.04C18.3034 12.8831 18.2231 12.7403 18.1003 12.6403C17.9774 12.5404 17.8212 12.4908 17.6633 12.5016C17.5053 12.5124 17.3573 12.5828 17.2492 12.6985C17.1411 12.8142 17.0809 12.9666 17.0809 13.125V16.0433L17.0759 16.15C17.0494 16.4065 16.9288 16.6441 16.7373 16.8168C16.5458 16.9895 16.2971 17.0851 16.0392 17.085H13.1225L13.0375 17.0908C12.8806 17.1124 12.7378 17.1927 12.6379 17.3155C12.5379 17.4384 12.4884 17.5946 12.4992 17.7526C12.51 17.9105 12.5803 18.0585 12.696 18.1667C12.8117 18.2748 12.9642 18.3349 13.1225 18.335H16.0392L16.1792 18.3308C16.7617 18.2951 17.3086 18.0386 17.7084 17.6135C18.1083 17.1885 18.3309 16.6269 18.3309 16.0433V13.125L18.325 13.04ZM7.49752 2.29163C7.49752 2.12587 7.43167 1.96689 7.31446 1.84968C7.19725 1.73247 7.03828 1.66663 6.87252 1.66663H3.95585L3.81668 1.67079C3.23405 1.70624 2.68691 1.96268 2.2869 2.38777C1.88689 2.81287 1.66417 3.37459 1.66418 3.95829V6.87663L1.67002 6.96163C1.6916 7.1185 1.77193 7.26133 1.89477 7.36127C2.01761 7.4612 2.1738 7.51077 2.33178 7.49998C2.48977 7.48919 2.63777 7.41883 2.74587 7.30312C2.85398 7.18741 2.91414 7.03498 2.91418 6.87663V3.95829L2.92002 3.85163C2.94641 3.59524 3.06691 3.35775 3.25824 3.18505C3.44956 3.01235 3.69811 2.91671 3.95585 2.91663H6.87252L6.95752 2.91079C7.10715 2.89025 7.24428 2.81623 7.34355 2.7024C7.44282 2.58858 7.49751 2.44266 7.49752 2.29163ZM16.1792 1.67079L16.0392 1.66663H13.1225L13.0375 1.67246C12.8879 1.69304 12.7508 1.76709 12.6516 1.88091C12.5524 1.99473 12.4977 2.14062 12.4977 2.29163C12.4977 2.44263 12.5524 2.58853 12.6516 2.70234C12.7508 2.81616 12.8879 2.89021 13.0375 2.91079L13.1225 2.91663H16.0392L16.1459 2.92163C16.3842 2.94606 16.6068 3.05189 16.7762 3.22129C16.9456 3.39069 17.0514 3.61331 17.0759 3.85163L17.0809 3.95829V6.87663L17.0867 6.96163C17.1073 7.11122 17.1813 7.2483 17.2951 7.34753C17.409 7.44676 17.5548 7.50143 17.7059 7.50143C17.8569 7.50143 18.0028 7.44676 18.1166 7.34753C18.2304 7.2483 18.3044 7.11122 18.325 6.96163L18.3309 6.87663V3.95829L18.3267 3.81329C18.2914 3.2558 18.0536 2.7304 17.6582 2.33586C17.2627 1.94133 16.7368 1.70482 16.1792 1.67079ZM7.08335 11.25C7.08335 10.8669 7.15879 10.4877 7.30537 10.1338C7.45195 9.77993 7.66679 9.4584 7.93762 9.18756C8.20846 8.91673 8.52999 8.70189 8.88386 8.55531C9.23772 8.40873 9.617 8.33329 10 8.33329C10.383 8.33329 10.7623 8.40873 11.1162 8.55531C11.47 8.70189 11.7916 8.91673 12.0624 9.18756C12.3333 9.4584 12.5481 9.77993 12.6947 10.1338C12.8412 10.4877 12.9167 10.8669 12.9167 11.25C12.9167 12.0235 12.6094 12.7654 12.0624 13.3124C11.5154 13.8593 10.7736 14.1666 10 14.1666C9.22647 14.1666 8.4846 13.8593 7.93762 13.3124C7.39064 12.7654 7.08335 12.0235 7.08335 11.25Z" fill="#15171C"/>
    <path d="M5.17498 9.78583L5.16831 9.80333V9.805C5.10963 9.95965 4.99204 10.0847 4.8413 10.1528C4.69057 10.2209 4.51898 10.2265 4.36414 10.1683C3.86581 9.98167 3.99914 9.36083 4.00081 9.35667L4.00581 9.34417C4.02754 9.28758 4.05173 9.23197 4.07831 9.1775C4.12831 9.07 4.20164 8.9225 4.30331 8.7475C4.57548 8.28313 4.90594 7.8555 5.28664 7.475C6.22164 6.54167 7.72914 5.625 9.99998 5.625C12.2716 5.625 13.7791 6.54167 14.7125 7.475C15.0932 7.8555 15.4236 8.28313 15.6958 8.7475C15.8078 8.93986 15.9075 9.13915 15.9941 9.34417L15.9991 9.35667L16.0008 9.36083V9.3625L16.0016 9.36417C16.0597 9.51932 16.0538 9.69118 15.9852 9.84197C15.9166 9.99276 15.7909 10.1101 15.6358 10.1683C15.4807 10.2246 15.3096 10.2179 15.1593 10.1497C15.009 10.0815 14.8914 9.95717 14.8316 9.80333L14.825 9.78667C14.825 9.78667 14.8058 9.74083 14.7883 9.70333C14.7361 9.59213 14.6789 9.4834 14.6166 9.3775C14.3986 9.00563 14.134 8.66313 13.8291 8.35833C13.0958 7.625 11.8958 6.875 9.99998 6.875C8.10498 6.875 6.90414 7.625 6.17081 8.35833C5.86597 8.66312 5.60132 9.00562 5.38331 9.3775C5.30609 9.5095 5.23653 9.64584 5.17498 9.78583Z" fill="#15171C"/>
  </g>
</svg>