<svg xmlns="http://www.w3.org/2000/svg" width="20" height="20" viewBox="0 0 20 20" fill="none">
  <path d="M18.3334 5.41671C18.3334 4.20113 17.8505 3.03534 16.9909 2.1758C16.1314 1.31626 14.9656 0.833374 13.75 0.833374C12.5344 0.833374 11.3687 1.31626 10.5091 2.1758C9.64957 3.03534 9.16669 4.20113 9.16669 5.41671C9.16669 6.63228 9.64957 7.79807 10.5091 8.65761C11.3687 9.51716 12.5344 10 13.75 10C14.9656 10 16.1314 9.51716 16.9909 8.65761C17.8505 7.79807 18.3334 6.63228 18.3334 5.41671ZM14.1667 5.83337L14.1675 7.92004C14.1675 8.03055 14.1236 8.13653 14.0455 8.21467C13.9673 8.29281 13.8614 8.33671 13.7509 8.33671C13.6403 8.33671 13.5344 8.29281 13.4562 8.21467C13.3781 8.13653 13.3342 8.03055 13.3342 7.92004V5.83337H11.2467C11.1362 5.83337 11.0302 5.78948 10.9521 5.71134C10.8739 5.6332 10.83 5.52721 10.83 5.41671C10.83 5.3062 10.8739 5.20022 10.9521 5.12208C11.0302 5.04394 11.1362 5.00004 11.2467 5.00004H13.3334V2.91671C13.3334 2.8062 13.3773 2.70022 13.4554 2.62208C13.5335 2.54394 13.6395 2.50004 13.75 2.50004C13.8605 2.50004 13.9665 2.54394 14.0446 2.62208C14.1228 2.70022 14.1667 2.8062 14.1667 2.91671V5.00004H16.2525C16.363 5.00004 16.469 5.04394 16.5471 5.12208C16.6253 5.20022 16.6692 5.3062 16.6692 5.41671C16.6692 5.52721 16.6253 5.6332 16.5471 5.71134C16.469 5.78948 16.363 5.83337 16.2525 5.83337H14.1667Z" fill="#026DEB"/>
  <path d="M16.25 11.6667V10.2234C16.7072 9.98479 17.1281 9.68231 17.5 9.32504V15.625C17.5 15.9807 17.4299 16.3329 17.2938 16.6615C17.1577 16.9901 16.9582 17.2886 16.7067 17.5401C16.4553 17.7916 16.1567 17.9911 15.8281 18.1272C15.4995 18.2633 15.1473 18.3334 14.7917 18.3334H5.20833C4.85267 18.3334 4.50049 18.2633 4.1719 18.1272C3.84331 17.9911 3.54474 17.7916 3.29325 17.5401C3.04176 17.2886 2.84227 16.9901 2.70616 16.6615C2.57005 16.3329 2.5 15.9807 2.5 15.625V6.04171C2.5 5.32341 2.78534 4.63454 3.29325 4.12663C3.80116 3.61872 4.49004 3.33337 5.20833 3.33337H8.74833C8.58103 3.7343 8.46295 4.15403 8.39667 4.58337H5.20833C4.82156 4.58337 4.45063 4.73702 4.17714 5.01051C3.90365 5.284 3.75 5.65493 3.75 6.04171V11.6667H7.5C7.65103 11.6667 7.79695 11.7214 7.91078 11.8207C8.0246 11.9199 8.09863 12.0571 8.11917 12.2067L8.125 12.2917C8.125 12.789 8.32254 13.2659 8.67417 13.6175C9.02581 13.9692 9.50272 14.1667 10 14.1667C10.4973 14.1667 10.9742 13.9692 11.3258 13.6175C11.6775 13.2659 11.875 12.789 11.875 12.2917C11.875 12.1259 11.9408 11.967 12.0581 11.8498C12.1753 11.7326 12.3342 11.6667 12.5 11.6667H16.25Z" fill="#026DEB"/>
</svg>