<svg xmlns="http://www.w3.org/2000/svg" width="20" height="20" viewBox="0 0 20 20" fill="none">
  <path d="M8.33335 1.66669C9.21741 1.66669 10.0653 2.01788 10.6904 2.643C11.3155 3.26812 11.6667 4.11597 11.6667 5.00002V6.66669H13.75C14.0815 6.66669 14.3995 6.79838 14.6339 7.0328C14.8683 7.26722 15 7.58517 15 7.91669V9.16669C14.7342 9.16669 14.4692 9.25835 14.2534 9.44085L14.1642 9.52419C13.4875 10.2284 12.7842 10.5559 12 10.5559C11.3475 10.5559 10.8334 11.0917 10.8334 11.7359V13.82C10.8334 15.7984 11.6034 17.3367 13.0667 18.335L2.91669 18.3334C2.58517 18.3334 2.26722 18.2017 2.0328 17.9672C1.79838 17.7328 1.66669 17.4149 1.66669 17.0834V7.91669C1.66669 7.58517 1.79838 7.26722 2.0328 7.0328C2.26722 6.79838 2.58517 6.66669 2.91669 6.66669H5.00002V5.00002C5.00002 4.11597 5.35121 3.26812 5.97633 2.643C6.60145 2.01788 7.4493 1.66669 8.33335 1.66669ZM15.2367 10.1017C16.0634 10.965 16.9792 11.3892 18 11.3892C18.1609 11.3892 18.2959 11.5084 18.3267 11.6659L18.3334 11.7359V13.82C18.3334 16.055 17.2392 17.575 15.1059 18.3159C15.0376 18.3396 14.9633 18.3396 14.895 18.3159C12.8317 17.5992 11.7409 16.1559 11.67 14.0409L11.6667 13.8209V11.7375C11.6667 11.5459 11.8167 11.39 12 11.39C13.0192 11.39 13.9359 10.965 14.765 10.1025C14.7953 10.0704 14.8319 10.0448 14.8724 10.0273C14.913 10.0098 14.9567 10.0008 15.0009 10.0008C15.045 10.0008 15.0887 10.0098 15.1293 10.0273C15.1698 10.0448 15.2064 10.0704 15.2367 10.1025V10.1017ZM8.33335 11.25C8.00183 11.25 7.68389 11.3817 7.44947 11.6161C7.21505 11.8506 7.08335 12.1685 7.08335 12.5C7.08335 12.8315 7.21505 13.1495 7.44947 13.3839C7.68389 13.6183 8.00183 13.75 8.33335 13.75C8.66487 13.75 8.98282 13.6183 9.21724 13.3839C9.45166 13.1495 9.58335 12.8315 9.58335 12.5C9.58335 12.1685 9.45166 11.8506 9.21724 11.6161C8.98282 11.3817 8.66487 11.25 8.33335 11.25ZM8.33335 3.33335C7.89133 3.33335 7.4674 3.50895 7.15484 3.82151C6.84228 4.13407 6.66669 4.55799 6.66669 5.00002V6.66669H10V5.00002C10 4.55799 9.82442 4.13407 9.51186 3.82151C9.1993 3.50895 8.77538 3.33335 8.33335 3.33335Z" fill="#026DEB"/>
</svg>