<svg xmlns="http://www.w3.org/2000/svg" width="20" height="20" viewBox="0 0 20 20" fill="none">
  <g opacity="0.72">
    <path d="M8.33335 1.66663C9.21741 1.66663 10.0653 2.01782 10.6904 2.64294C11.3155 3.26806 11.6667 4.1159 11.6667 4.99996V6.66663H13.75C14.0815 6.66663 14.3995 6.79832 14.6339 7.03274C14.8683 7.26716 15 7.58511 15 7.91663V9.16663C14.7342 9.16663 14.4692 9.25829 14.2534 9.44079L14.1642 9.52413C13.4875 10.2283 12.7842 10.5558 12 10.5558C11.3475 10.5558 10.8334 11.0916 10.8334 11.7358V13.82C10.8334 15.7983 11.6034 17.3366 13.0667 18.335L2.91669 18.3333C2.58517 18.3333 2.26722 18.2016 2.0328 17.9672C1.79838 17.7328 1.66669 17.4148 1.66669 17.0833V7.91663C1.66669 7.58511 1.79838 7.26716 2.0328 7.03274C2.26722 6.79832 2.58517 6.66663 2.91669 6.66663H5.00002V4.99996C5.00002 4.1159 5.35121 3.26806 5.97633 2.64294C6.60145 2.01782 7.4493 1.66663 8.33335 1.66663ZM15.2367 10.1016C16.0634 10.965 16.9792 11.3891 18 11.3891C18.1609 11.3891 18.2959 11.5083 18.3267 11.6658L18.3334 11.7358V13.82C18.3334 16.055 17.2392 17.575 15.1059 18.3158C15.0376 18.3395 14.9633 18.3395 14.895 18.3158C12.8317 17.5991 11.7409 16.1558 11.67 14.0408L11.6667 13.8208V11.7375C11.6667 11.5458 11.8167 11.39 12 11.39C13.0192 11.39 13.9359 10.965 14.765 10.1025C14.7953 10.0703 14.8319 10.0447 14.8724 10.0272C14.913 10.0097 14.9567 10.0007 15.0009 10.0007C15.045 10.0007 15.0887 10.0097 15.1293 10.0272C15.1698 10.0447 15.2064 10.0703 15.2367 10.1025V10.1016ZM8.33335 11.25C8.00183 11.25 7.68389 11.3817 7.44947 11.6161C7.21505 11.8505 7.08335 12.1684 7.08335 12.5C7.08335 12.8315 7.21505 13.1494 7.44947 13.3838C7.68389 13.6183 8.00183 13.75 8.33335 13.75C8.66487 13.75 8.98282 13.6183 9.21724 13.3838C9.45166 13.1494 9.58335 12.8315 9.58335 12.5C9.58335 12.1684 9.45166 11.8505 9.21724 11.6161C8.98282 11.3817 8.66487 11.25 8.33335 11.25ZM8.33335 3.33329C7.89133 3.33329 7.4674 3.50889 7.15484 3.82145C6.84228 4.13401 6.66669 4.55793 6.66669 4.99996V6.66663H10V4.99996C10 4.55793 9.82442 4.13401 9.51186 3.82145C9.1993 3.50889 8.77538 3.33329 8.33335 3.33329Z" fill="#15171C"/>
  </g>
</svg>