<svg width="20" height="20" viewBox="0 0 20 20" fill="none" xmlns="http://www.w3.org/2000/svg">
<g opacity="0.72" clip-path="url(#clip0_1531_4020)">
<path d="M9.43451 11.0156H10.5653V14.9808H9.43451V11.0156ZM3.68091 16.2128C3.68091 15.9008 3.93411 15.6476 4.24611 15.6476H15.7541C15.9015 15.6515 16.0415 15.7128 16.1443 15.8184C16.2471 15.924 16.3047 16.0656 16.3047 16.213C16.3047 16.3604 16.2471 16.502 16.1443 16.6076C16.0415 16.7132 15.9015 16.7745 15.7541 16.7784H4.24611C3.93411 16.7784 3.68091 16.5252 3.68091 16.2128Z" fill="#fff"/>
<path d="M10.0001 18.2239C11.1106 18.2239 12.0109 17.3237 12.0109 16.2131C12.0109 15.1026 11.1106 14.2023 10.0001 14.2023C8.88952 14.2023 7.98926 15.1026 7.98926 16.2131C7.98926 17.3237 8.88952 18.2239 10.0001 18.2239Z" fill="#fff"/>
<path d="M10 17.2336C10.5638 17.2336 11.0208 16.7766 11.0208 16.2128C11.0208 15.649 10.5638 15.192 10 15.192C9.43628 15.192 8.97925 15.649 8.97925 16.2128C8.97925 16.7766 9.43628 17.2336 10 17.2336Z" fill="#D2D2D2"/>
<path d="M5.34717 4.09918H14.6528V10.122H5.34717V4.09918Z" fill="#fff" fill-opacity="0.87"/>
<path d="M14.7001 7.79923H5.30012C5.07957 7.79918 4.86117 7.84257 4.65739 7.92694C4.45362 8.0113 4.26846 8.13498 4.11248 8.29091C3.95651 8.44685 3.83279 8.63198 3.74838 8.83573C3.66396 9.03949 3.62052 9.25788 3.62052 9.47843V10.7652C3.62052 10.9858 3.66396 11.2042 3.74838 11.4079C3.83279 11.6117 3.95651 11.7968 4.11248 11.9527C4.26846 12.1087 4.45362 12.2324 4.65739 12.3167C4.86117 12.4011 5.07957 12.4445 5.30012 12.4444H14.7001C14.9207 12.4445 15.1391 12.4011 15.3428 12.3167C15.5466 12.2324 15.7318 12.1087 15.8877 11.9527C16.0437 11.7968 16.1674 11.6117 16.2519 11.4079C16.3363 11.2042 16.3797 10.9858 16.3797 10.7652V9.47843C16.3797 9.25788 16.3363 9.03949 16.2519 8.83573C16.1674 8.63198 16.0437 8.44685 15.8877 8.29091C15.7318 8.13498 15.5466 8.0113 15.3428 7.92694C15.1391 7.84257 14.9207 7.79918 14.7001 7.79923ZM14.7001 1.77643H5.30012C5.07953 1.77632 4.86109 1.81968 4.65727 1.90402C4.45345 1.98836 4.26824 2.11203 4.11223 2.26797C3.95621 2.42391 3.83245 2.60906 3.74802 2.81284C3.66358 3.01662 3.62012 3.23505 3.62012 3.45563V4.74243C3.62006 4.96301 3.66347 5.18144 3.74786 5.38525C3.83225 5.58905 3.95597 5.77423 4.11194 5.9302C4.26792 6.08618 4.4531 6.20989 4.6569 6.29428C4.8607 6.37867 5.07913 6.42208 5.29972 6.42203H14.6997C14.9203 6.42208 15.1387 6.37867 15.3425 6.29428C15.5463 6.20989 15.7315 6.08618 15.8875 5.9302C16.0435 5.77423 16.1672 5.58905 16.2516 5.38525C16.336 5.18144 16.3794 4.96301 16.3793 4.74243V3.45603C16.3793 3.23548 16.3359 3.01709 16.2515 2.81333C16.167 2.60958 16.0433 2.42445 15.8874 2.26851C15.7314 2.11258 15.5462 1.9889 15.3424 1.90454C15.1387 1.82017 14.9203 1.77678 14.6997 1.77683L14.7001 1.77643Z" fill="#fff"/>
<path d="M6.09468 4.99344C6.58843 4.99344 6.98868 4.59319 6.98868 4.09944C6.98868 3.6057 6.58843 3.20544 6.09468 3.20544C5.60094 3.20544 5.20068 3.6057 5.20068 4.09944C5.20068 4.59319 5.60094 4.99344 6.09468 4.99344Z" fill="#EC6E62"/>
<path d="M8.6357 4.99344C9.12944 4.99344 9.5297 4.59319 9.5297 4.09944C9.5297 3.6057 9.12944 3.20544 8.6357 3.20544C8.14196 3.20544 7.7417 3.6057 7.7417 4.09944C7.7417 4.59319 8.14196 4.99344 8.6357 4.99344Z" fill="#85BD57"/>
<path d="M6.09468 11.0154C6.58843 11.0154 6.98868 10.6151 6.98868 10.1214C6.98868 9.62761 6.58843 9.22736 6.09468 9.22736C5.60094 9.22736 5.20068 9.62761 5.20068 10.1214C5.20068 10.6151 5.60094 11.0154 6.09468 11.0154Z" fill="#EC6E62"/>
<path d="M8.6357 11.0154C9.12944 11.0154 9.5297 10.6151 9.5297 10.1214C9.5297 9.62761 9.12944 9.22736 8.6357 9.22736C8.14196 9.22736 7.7417 9.62761 7.7417 10.1214C7.7417 10.6151 8.14196 11.0154 8.6357 11.0154Z" fill="#85BD57"/>
</g>
<defs>
<clipPath id="clip0_1531_4020">
<rect width="20" height="20" fill="white"/>
</clipPath>
</defs>
</svg>
