<svg width="20" height="20" viewBox="0 0 20 20" fill="none" xmlns="http://www.w3.org/2000/svg">
<g opacity="0.72" clip-path="url(#clip0_1531_2315)">
<path d="M13.6593 4.59998H5.25928V19H13.6593V4.59998Z" fill="#15171C" fill-opacity="0.87"/>
<path d="M4.55213 4.58513H14.5665C15.391 4.58513 16.0593 4.00485 16.0593 3.28905V2.29608C16.0593 1.58027 15.391 1 14.5665 1H4.55213C3.72767 1 3.05933 1.58027 3.05933 2.29608V3.28905C3.05933 4.00485 3.72768 4.58513 4.55213 4.58513ZM4.55213 9.23312H14.5665C15.391 9.23312 16.0593 8.65285 16.0593 7.93705V6.94408C16.0593 6.22827 15.391 5.648 14.5665 5.648H4.55213C3.72767 5.648 3.05933 6.22827 3.05933 6.94408V7.93705C3.05933 8.65285 3.72768 9.23312 4.55213 9.23312Z" fill="#15171C"/>
<path d="M14.4363 8.13111C14.8173 8.13111 15.1261 7.82229 15.1261 7.44135C15.1261 7.0604 14.8173 6.75159 14.4363 6.75159C14.0554 6.75159 13.7466 7.0604 13.7466 7.44135C13.7466 7.82229 14.0554 8.13111 14.4363 8.13111Z" fill="#EC6E62"/>
<path d="M12.4756 8.13111C12.8566 8.13111 13.1654 7.82229 13.1654 7.44135C13.1654 7.0604 12.8566 6.75159 12.4756 6.75159C12.0947 6.75159 11.7859 7.0604 11.7859 7.44135C11.7859 7.82229 12.0947 8.13111 12.4756 8.13111Z" fill="#85BD57"/>
<path d="M6.43634 8.13111C6.81729 8.13111 7.1261 7.82229 7.1261 7.44135C7.1261 7.0604 6.81729 6.75159 6.43634 6.75159C6.0554 6.75159 5.74658 7.0604 5.74658 7.44135C5.74658 7.82229 6.0554 8.13111 6.43634 8.13111Z" fill="#EC6E62"/>
<path d="M4.47565 8.13111C4.85659 8.13111 5.16541 7.82229 5.16541 7.44135C5.16541 7.0604 4.85659 6.75159 4.47565 6.75159C4.0947 6.75159 3.78589 7.0604 3.78589 7.44135C3.78589 7.82229 4.0947 8.13111 4.47565 8.13111Z" fill="#85BD57"/>
<path d="M14.4363 3.48279C14.8173 3.48279 15.1261 3.17398 15.1261 2.79303C15.1261 2.41209 14.8173 2.10327 14.4363 2.10327C14.0554 2.10327 13.7466 2.41209 13.7466 2.79303C13.7466 3.17398 14.0554 3.48279 14.4363 3.48279Z" fill="#EC6E62"/>
<path d="M12.4756 3.48279C12.8566 3.48279 13.1654 3.17398 13.1654 2.79303C13.1654 2.41209 12.8566 2.10327 12.4756 2.10327C12.0947 2.10327 11.7859 2.41209 11.7859 2.79303C11.7859 3.17398 12.0947 3.48279 12.4756 3.48279Z" fill="#85BD57"/>
<path d="M6.43634 3.48279C6.81729 3.48279 7.1261 3.17398 7.1261 2.79303C7.1261 2.41209 6.81729 2.10327 6.43634 2.10327C6.0554 2.10327 5.74658 2.41209 5.74658 2.79303C5.74658 3.17398 6.0554 3.48279 6.43634 3.48279Z" fill="#EC6E62"/>
<path d="M4.47565 3.48279C4.85659 3.48279 5.16541 3.17398 5.16541 2.79303C5.16541 2.41209 4.85659 2.10327 4.47565 2.10327C4.0947 2.10327 3.78589 2.41209 3.78589 2.79303C3.78589 3.17398 4.0947 3.48279 4.47565 3.48279Z" fill="#85BD57"/>
<path d="M4.55213 14.1851H14.5665C15.391 14.1851 16.0593 13.6048 16.0593 12.889V11.8961C16.0593 11.1802 15.391 10.6 14.5665 10.6H4.55213C3.72767 10.6 3.05933 11.1802 3.05933 11.8961V12.889C3.05933 13.6048 3.72768 14.1851 4.55213 14.1851ZM4.55213 18.8331H14.5665C15.391 18.8331 16.0593 18.2528 16.0593 17.537V16.5441C16.0593 15.8282 15.391 15.248 14.5665 15.248H4.55213C3.72767 15.248 3.05933 15.8282 3.05933 16.5441V17.537C3.05933 18.2528 3.72768 18.8331 4.55213 18.8331Z" fill="#15171C"/>
<path d="M14.4363 17.7311C14.8173 17.7311 15.1261 17.4223 15.1261 17.0413C15.1261 16.6604 14.8173 16.3516 14.4363 16.3516C14.0554 16.3516 13.7466 16.6604 13.7466 17.0413C13.7466 17.4223 14.0554 17.7311 14.4363 17.7311Z" fill="#EC6E62"/>
<path d="M12.4756 17.7311C12.8566 17.7311 13.1654 17.4223 13.1654 17.0413C13.1654 16.6604 12.8566 16.3516 12.4756 16.3516C12.0947 16.3516 11.7859 16.6604 11.7859 17.0413C11.7859 17.4223 12.0947 17.7311 12.4756 17.7311Z" fill="#85BD57"/>
<path d="M6.43634 17.7311C6.81729 17.7311 7.1261 17.4223 7.1261 17.0413C7.1261 16.6604 6.81729 16.3516 6.43634 16.3516C6.0554 16.3516 5.74658 16.6604 5.74658 17.0413C5.74658 17.4223 6.0554 17.7311 6.43634 17.7311Z" fill="#EC6E62"/>
<path d="M4.47565 17.7311C4.85659 17.7311 5.16541 17.4223 5.16541 17.0413C5.16541 16.6604 4.85659 16.3516 4.47565 16.3516C4.0947 16.3516 3.78589 16.6604 3.78589 17.0413C3.78589 17.4223 4.0947 17.7311 4.47565 17.7311Z" fill="#85BD57"/>
<path d="M14.4363 13.0828C14.8173 13.0828 15.1261 12.774 15.1261 12.393C15.1261 12.0121 14.8173 11.7032 14.4363 11.7032C14.0554 11.7032 13.7466 12.0121 13.7466 12.393C13.7466 12.774 14.0554 13.0828 14.4363 13.0828Z" fill="#EC6E62"/>
<path d="M12.4756 13.0828C12.8566 13.0828 13.1654 12.774 13.1654 12.393C13.1654 12.0121 12.8566 11.7032 12.4756 11.7032C12.0947 11.7032 11.7859 12.0121 11.7859 12.393C11.7859 12.774 12.0947 13.0828 12.4756 13.0828Z" fill="#85BD57"/>
<path d="M6.43634 13.0828C6.81729 13.0828 7.1261 12.774 7.1261 12.393C7.1261 12.0121 6.81729 11.7032 6.43634 11.7032C6.0554 11.7032 5.74658 12.0121 5.74658 12.393C5.74658 12.774 6.0554 13.0828 6.43634 13.0828Z" fill="#EC6E62"/>
<path d="M4.47565 13.0828C4.85659 13.0828 5.16541 12.774 5.16541 12.393C5.16541 12.0121 4.85659 11.7032 4.47565 11.7032C4.0947 11.7032 3.78589 12.0121 3.78589 12.393C3.78589 12.774 4.0947 13.0828 4.47565 13.0828Z" fill="#85BD57"/>
</g>
<defs>
<clipPath id="clip0_1531_2315">
<rect width="20" height="20" fill="white"/>
</clipPath>
</defs>
</svg>
