<svg xmlns="http://www.w3.org/2000/svg" width="20" height="20" viewBox="0 0 20 20" fill="none">
  <g clip-path="url(#clip0_612_12130)">
    <path d="M5.48502 8.31738H0.249023V11.6838H5.48502V8.31738Z" fill="#026DEB" fill-opacity="0.87"/>
    <path d="M0.222431 9.61524H5.51123C6.02968 9.61524 6.44997 9.19495 6.44997 8.6765V7.9573C6.44997 7.43884 6.02968 7.01855 5.51123 7.01855H0.222431C-0.296021 7.01855 -0.716309 7.43884 -0.716309 7.9573V8.6765C-0.716309 9.19495 -0.296021 9.61524 0.222431 9.61524ZM0.222431 12.9818H5.51123C6.02968 12.9818 6.44997 12.5615 6.44997 12.043V11.3238C6.44997 10.8054 6.02968 10.3851 5.51123 10.3851H0.222431C-0.296021 10.3851 -0.716309 10.8054 -0.716309 11.3238V12.043C-0.716309 12.5615 -0.296021 12.9818 0.222431 12.9818Z" fill="#026DEB"/>
    <path d="M5.06698 12.1828C5.3429 12.1828 5.56658 11.9591 5.56658 11.6832C5.56658 11.4073 5.3429 11.1836 5.06698 11.1836C4.79106 11.1836 4.56738 11.4073 4.56738 11.6832C4.56738 11.9591 4.79106 12.1828 5.06698 12.1828Z" fill="#EC6E62"/>
    <path d="M3.64657 12.1828C3.92249 12.1828 4.14617 11.9591 4.14617 11.6832C4.14617 11.4073 3.92249 11.1836 3.64657 11.1836C3.37065 11.1836 3.14697 11.4073 3.14697 11.6832C3.14697 11.9591 3.37065 12.1828 3.64657 12.1828Z" fill="#85BD57"/>
    <path d="M5.06698 8.81658C5.3429 8.81658 5.56658 8.5929 5.56658 8.31698C5.56658 8.04106 5.3429 7.81738 5.06698 7.81738C4.79106 7.81738 4.56738 8.04106 4.56738 8.31698C4.56738 8.5929 4.79106 8.81658 5.06698 8.81658Z" fill="#EC6E62"/>
    <path d="M3.64657 8.81658C3.92249 8.81658 4.14617 8.5929 4.14617 8.31698C4.14617 8.04106 3.92249 7.81738 3.64657 7.81738C3.37065 7.81738 3.14697 8.04106 3.14697 8.31698C3.14697 8.5929 3.37065 8.81658 3.64657 8.81658Z" fill="#85BD57"/>
    <path fill-rule="evenodd" clip-rule="evenodd" d="M19.6362 11.4949H12.3906C11.7941 11.4949 11.3105 11.0114 11.3105 10.4149V9.58739C11.3105 8.99088 11.7941 8.50732 12.3906 8.50732H19.6362C20.2327 8.50732 20.7163 8.99088 20.7163 9.58739V10.4149C20.7163 11.0114 20.2327 11.4949 19.6362 11.4949Z" fill="#026DEB"/>
    <path d="M19.1246 10.5754C19.4421 10.5754 19.6994 10.318 19.6994 10.0006C19.6994 9.68313 19.4421 9.42578 19.1246 9.42578C18.8072 9.42578 18.5498 9.68313 18.5498 10.0006C18.5498 10.318 18.8072 10.5754 19.1246 10.5754Z" fill="#EC6E62"/>
    <path d="M17.4908 10.5754C17.8083 10.5754 18.0656 10.318 18.0656 10.0006C18.0656 9.68313 17.8083 9.42578 17.4908 9.42578C17.1734 9.42578 16.916 9.68313 16.916 10.0006C16.916 10.318 17.1734 10.5754 17.4908 10.5754Z" fill="#85BD57"/>
    <path d="M19.6062 3.75H12.4214V8.5052H19.6062V3.75Z" fill="#026DEB" fill-opacity="0.87"/>
    <path d="M12.3906 3.74786H19.6362C20.2327 3.74786 20.7163 3.2643 20.7163 2.66779V1.84032C20.7163 1.24381 20.2327 0.760254 19.6362 0.760254H12.3906C11.7941 0.760254 11.3105 1.24381 11.3105 1.84032V2.66779C11.3105 3.2643 11.7941 3.74786 12.3906 3.74786ZM12.3906 7.62119H19.6362C20.2327 7.62119 20.7163 7.13763 20.7163 6.54113V5.71365C20.7163 5.11715 20.2327 4.63359 19.6362 4.63359H12.3906C11.7941 4.63359 11.3105 5.11715 11.3105 5.71365V6.54113C11.3105 7.13763 11.7941 7.62119 12.3906 7.62119Z" fill="#026DEB"/>
    <path d="M19.1246 6.70282C19.4421 6.70282 19.6994 6.44548 19.6994 6.12802C19.6994 5.81057 19.4421 5.55322 19.1246 5.55322C18.8072 5.55322 18.5498 5.81057 18.5498 6.12802C18.5498 6.44548 18.8072 6.70282 19.1246 6.70282Z" fill="#EC6E62"/>
    <path d="M17.4908 6.70282C17.8083 6.70282 18.0656 6.44548 18.0656 6.12802C18.0656 5.81057 17.8083 5.55322 17.4908 5.55322C17.1734 5.55322 16.916 5.81057 16.916 6.12802C16.916 6.44548 17.1734 6.70282 17.4908 6.70282Z" fill="#85BD57"/>
    <path d="M19.1246 2.82929C19.4421 2.82929 19.6994 2.57194 19.6994 2.25449C19.6994 1.93703 19.4421 1.67969 19.1246 1.67969C18.8072 1.67969 18.5498 1.93703 18.5498 2.25449C18.5498 2.57194 18.8072 2.82929 19.1246 2.82929Z" fill="#EC6E62"/>
    <path d="M17.4908 2.82929C17.8083 2.82929 18.0656 2.57194 18.0656 2.25449C18.0656 1.93703 17.8083 1.67969 17.4908 1.67969C17.1734 1.67969 16.916 1.93703 16.916 2.25449C16.916 2.57194 17.1734 2.82929 17.4908 2.82929Z" fill="#85BD57"/>
    <path d="M9.73822 10.1157L8.32393 11.53C8.18121 11.6727 7.94981 11.6727 7.80709 11.53C7.66446 11.3874 7.66437 11.1561 7.80689 11.0134L8.96115 9.85731L7.80675 8.70291C7.66425 8.56041 7.664 8.32946 7.80618 8.18665L7.8071 8.18573C7.94973 8.04248 8.18155 8.04222 8.32449 8.18516L9.73822 9.5989C9.88094 9.74161 9.88094 9.973 9.73822 10.1157Z" fill="#656766"/>
    <path fill-rule="evenodd" clip-rule="evenodd" d="M16.4 18.3C16.4 18.5761 16.6239 18.8 16.9 18.8C17.1761 18.8 17.4 18.5761 17.4 18.3V16.4H19.3C19.5761 16.4 19.8 16.1761 19.8 15.9C19.8 15.6239 19.5761 15.4 19.3 15.4H17.4V13.5C17.4 13.2239 17.1761 13 16.9 13C16.6239 13 16.4 13.2239 16.4 13.5V15.4H14.5C14.2239 15.4 14 15.6239 14 15.9C14 16.1761 14.2239 16.4 14.5 16.4H16.4V18.3Z" fill="#026DEB"/>
  </g>
  <defs>
    <clipPath id="clip0_612_12130">
      <rect width="20" height="20" fill="white"/>
    </clipPath>
  </defs>
</svg>