<svg width="20" height="20" viewBox="0 0 20 20" fill="none" xmlns="http://www.w3.org/2000/svg">
<g opacity="0.72" clip-path="url(#clip0_1531_4108)">
<g clip-path="url(#clip1_1531_4108)">
<path d="M5.48478 8.31714H0.248779V11.6835H5.48478V8.31714Z" fill="#fff" fill-opacity="0.87"/>
<path d="M0.222431 9.61548H5.51123C6.02968 9.61548 6.44997 9.1952 6.44997 8.67674V7.95754C6.44997 7.43909 6.02968 7.0188 5.51123 7.0188H0.222431C-0.296021 7.0188 -0.716309 7.43909 -0.716309 7.95754V8.67674C-0.716309 9.1952 -0.296021 9.61548 0.222431 9.61548ZM0.222431 12.982H5.51123C6.02968 12.982 6.44997 12.5617 6.44997 12.0433V11.3241C6.44997 10.8056 6.02968 10.3853 5.51123 10.3853H0.222431C-0.296021 10.3853 -0.716309 10.8056 -0.716309 11.3241V12.0433C-0.716309 12.5617 -0.296021 12.982 0.222431 12.982Z" fill="#fff"/>
<path d="M5.06674 12.1828C5.34266 12.1828 5.56634 11.9591 5.56634 11.6832C5.56634 11.4073 5.34266 11.1836 5.06674 11.1836C4.79082 11.1836 4.56714 11.4073 4.56714 11.6832C4.56714 11.9591 4.79082 12.1828 5.06674 12.1828Z" fill="#fff"/>
<path d="M3.64682 12.1828C3.92274 12.1828 4.14642 11.9591 4.14642 11.6832C4.14642 11.4073 3.92274 11.1836 3.64682 11.1836C3.3709 11.1836 3.14722 11.4073 3.14722 11.6832C3.14722 11.9591 3.3709 12.1828 3.64682 12.1828Z" fill="#fff"/>
<path d="M5.06674 8.81634C5.34266 8.81634 5.56634 8.59266 5.56634 8.31674C5.56634 8.04082 5.34266 7.81714 5.06674 7.81714C4.79082 7.81714 4.56714 8.04082 4.56714 8.31674C4.56714 8.59266 4.79082 8.81634 5.06674 8.81634Z" fill="#fff"/>
<path d="M3.64682 8.81634C3.92274 8.81634 4.14642 8.59266 4.14642 8.31674C4.14642 8.04082 3.92274 7.81714 3.64682 7.81714C3.3709 7.81714 3.14722 8.04082 3.14722 8.31674C3.14722 8.59266 3.3709 8.81634 3.64682 8.81634Z" fill="#fff"/>
<path fill-rule="evenodd" clip-rule="evenodd" d="M19.6362 11.4948H12.3906C11.7941 11.4948 11.3105 11.0112 11.3105 10.4147V9.58727C11.3105 8.99076 11.7941 8.5072 12.3906 8.5072H19.6362C20.2327 8.5072 20.7163 8.99076 20.7163 9.58727V10.4147C20.7163 11.0112 20.2327 11.4948 19.6362 11.4948Z" fill="#fff"/>
<path d="M19.1248 10.5754C19.4423 10.5754 19.6996 10.318 19.6996 10.0006C19.6996 9.68313 19.4423 9.42578 19.1248 9.42578C18.8074 9.42578 18.55 9.68313 18.55 10.0006C18.55 10.318 18.8074 10.5754 19.1248 10.5754Z" fill="#fff"/>
<path d="M17.4908 10.5754C17.8083 10.5754 18.0656 10.318 18.0656 10.0006C18.0656 9.68313 17.8083 9.42578 17.4908 9.42578C17.1734 9.42578 16.916 9.68313 16.916 10.0006C16.916 10.318 17.1734 10.5754 17.4908 10.5754Z" fill="#fff"/>
<path d="M19.6059 3.75H12.4211V8.5052H19.6059V3.75Z" fill="#fff" fill-opacity="0.87"/>
<path d="M12.3906 3.74774H19.6362C20.2327 3.74774 20.7163 3.26418 20.7163 2.66767V1.8402C20.7163 1.24369 20.2327 0.760132 19.6362 0.760132H12.3906C11.7941 0.760132 11.3105 1.24369 11.3105 1.8402V2.66767C11.3105 3.26418 11.7941 3.74774 12.3906 3.74774ZM12.3906 7.62107H19.6362C20.2327 7.62107 20.7163 7.13751 20.7163 6.541V5.71353C20.7163 5.11702 20.2327 4.63346 19.6362 4.63346H12.3906C11.7941 4.63346 11.3105 5.11702 11.3105 5.71353V6.541C11.3105 7.13751 11.7941 7.62107 12.3906 7.62107Z" fill="#fff"/>
<path d="M19.1248 6.7027C19.4423 6.7027 19.6996 6.44535 19.6996 6.1279C19.6996 5.81045 19.4423 5.5531 19.1248 5.5531C18.8074 5.5531 18.55 5.81045 18.55 6.1279C18.55 6.44535 18.8074 6.7027 19.1248 6.7027Z" fill="#fff"/>
<path d="M17.4908 6.7027C17.8083 6.7027 18.0656 6.44535 18.0656 6.1279C18.0656 5.81045 17.8083 5.5531 17.4908 5.5531C17.1734 5.5531 16.916 5.81045 16.916 6.1279C16.916 6.44535 17.1734 6.7027 17.4908 6.7027Z" fill="#fff"/>
<path d="M19.1248 2.82917C19.4423 2.82917 19.6996 2.57182 19.6996 2.25437C19.6996 1.93691 19.4423 1.67957 19.1248 1.67957C18.8074 1.67957 18.55 1.93691 18.55 2.25437C18.55 2.57182 18.8074 2.82917 19.1248 2.82917Z" fill="#fff"/>
<path d="M17.4908 2.82917C17.8083 2.82917 18.0656 2.57182 18.0656 2.25437C18.0656 1.93691 17.8083 1.67957 17.4908 1.67957C17.1734 1.67957 16.916 1.93691 16.916 2.25437C16.916 2.57182 17.1734 2.82917 17.4908 2.82917Z" fill="#fff"/>
<path d="M9.73798 10.1158L8.32368 11.5301C8.18096 11.6729 7.94957 11.6729 7.80685 11.5301C7.66421 11.3875 7.66413 11.1563 7.80665 11.0135L8.9609 9.85743L7.8065 8.70303C7.664 8.56053 7.66375 8.32958 7.80594 8.18677L7.80685 8.18585C7.94948 8.0426 8.18131 8.04235 8.32425 8.18529L9.73798 9.59902C9.88069 9.74173 9.88069 9.97313 9.73798 10.1158Z" fill="#656766"/>
<path fill-rule="evenodd" clip-rule="evenodd" d="M16.4 18.3C16.4 18.5761 16.6239 18.8 16.9 18.8C17.1761 18.8 17.4 18.5761 17.4 18.3V16.4H19.3C19.5761 16.4 19.8 16.1761 19.8 15.9C19.8 15.6239 19.5761 15.4 19.3 15.4H17.4V13.5C17.4 13.2239 17.1761 13 16.9 13C16.6239 13 16.4 13.2239 16.4 13.5V15.4H14.5C14.2239 15.4 14 15.6239 14 15.9C14 16.1761 14.2239 16.4 14.5 16.4H16.4V18.3Z" fill="#fff"/>
</g>
</g>
<defs>
<clipPath id="clip0_1531_4108">
<rect width="20" height="20" fill="white"/>
</clipPath>
<clipPath id="clip1_1531_4108">
<rect width="20" height="20" fill="white"/>
</clipPath>
</defs>
</svg>
