<svg xmlns="http://www.w3.org/2000/svg" width="20" height="20" viewBox="0 0 20 20" fill="none">
  <path d="M13.6595 4.59999H5.25952V19H13.6595V4.59999Z" fill="#026DEB" fill-opacity="0.66"/>
  <path d="M4.55225 4.58513H14.5666C15.3911 4.58513 16.0594 4.00485 16.0594 3.28905V2.29608C16.0594 1.58027 15.3911 1 14.5666 1H4.55225C3.7278 1 3.05945 1.58027 3.05945 2.29608V3.28905C3.05945 4.00485 3.7278 4.58513 4.55225 4.58513ZM4.55225 9.23312H14.5666C15.3911 9.23312 16.0594 8.65285 16.0594 7.93705V6.94408C16.0594 6.22827 15.3911 5.648 14.5666 5.648H4.55225C3.7278 5.648 3.05945 6.22827 3.05945 6.94408V7.93705C3.05945 8.65285 3.7278 9.23312 4.55225 9.23312Z" fill="#026DEB"/>
  <path d="M14.4366 8.13109C14.8175 8.13109 15.1263 7.82228 15.1263 7.44133C15.1263 7.06039 14.8175 6.75157 14.4366 6.75157C14.0556 6.75157 13.7468 7.06039 13.7468 7.44133C13.7468 7.82228 14.0556 8.13109 14.4366 8.13109Z" fill="#EC6E62"/>
  <path d="M12.4759 8.13109C12.8568 8.13109 13.1657 7.82228 13.1657 7.44133C13.1657 7.06039 12.8568 6.75157 12.4759 6.75157C12.0949 6.75157 11.7861 7.06039 11.7861 7.44133C11.7861 7.82228 12.0949 8.13109 12.4759 8.13109Z" fill="#85BD57"/>
  <path d="M6.43659 8.13109C6.81753 8.13109 7.12635 7.82228 7.12635 7.44133C7.12635 7.06039 6.81753 6.75157 6.43659 6.75157C6.05564 6.75157 5.74683 7.06039 5.74683 7.44133C5.74683 7.82228 6.05564 8.13109 6.43659 8.13109Z" fill="#EC6E62"/>
  <path d="M4.47589 8.13109C4.85684 8.13109 5.16565 7.82228 5.16565 7.44133C5.16565 7.06039 4.85684 6.75157 4.47589 6.75157C4.09495 6.75157 3.78613 7.06039 3.78613 7.44133C3.78613 7.82228 4.09495 8.13109 4.47589 8.13109Z" fill="#85BD57"/>
  <path d="M14.4366 3.48284C14.8175 3.48284 15.1263 3.17402 15.1263 2.79308C15.1263 2.41213 14.8175 2.10332 14.4366 2.10332C14.0556 2.10332 13.7468 2.41213 13.7468 2.79308C13.7468 3.17402 14.0556 3.48284 14.4366 3.48284Z" fill="#EC6E62"/>
  <path d="M12.4759 3.48284C12.8568 3.48284 13.1657 3.17402 13.1657 2.79308C13.1657 2.41213 12.8568 2.10332 12.4759 2.10332C12.0949 2.10332 11.7861 2.41213 11.7861 2.79308C11.7861 3.17402 12.0949 3.48284 12.4759 3.48284Z" fill="#85BD57"/>
  <path d="M6.43659 3.48284C6.81753 3.48284 7.12635 3.17402 7.12635 2.79308C7.12635 2.41213 6.81753 2.10332 6.43659 2.10332C6.05564 2.10332 5.74683 2.41213 5.74683 2.79308C5.74683 3.17402 6.05564 3.48284 6.43659 3.48284Z" fill="#EC6E62"/>
  <path d="M4.47589 3.48284C4.85684 3.48284 5.16565 3.17402 5.16565 2.79308C5.16565 2.41213 4.85684 2.10332 4.47589 2.10332C4.09495 2.10332 3.78613 2.41213 3.78613 2.79308C3.78613 3.17402 4.09495 3.48284 4.47589 3.48284Z" fill="#85BD57"/>
  <path d="M4.55225 14.1851H14.5666C15.3911 14.1851 16.0594 13.6049 16.0594 12.889V11.8961C16.0594 11.1803 15.3911 10.6 14.5666 10.6H4.55225C3.7278 10.6 3.05945 11.1803 3.05945 11.8961V12.889C3.05945 13.6049 3.7278 14.1851 4.55225 14.1851ZM4.55225 18.8331H14.5666C15.3911 18.8331 16.0594 18.2529 16.0594 17.537V16.5441C16.0594 15.8283 15.3911 15.248 14.5666 15.248H4.55225C3.7278 15.248 3.05945 15.8283 3.05945 16.5441V17.537C3.05945 18.2529 3.7278 18.8331 4.55225 18.8331Z" fill="#026DEB"/>
  <path d="M14.4366 17.7311C14.8175 17.7311 15.1263 17.4223 15.1263 17.0413C15.1263 16.6604 14.8175 16.3516 14.4366 16.3516C14.0556 16.3516 13.7468 16.6604 13.7468 17.0413C13.7468 17.4223 14.0556 17.7311 14.4366 17.7311Z" fill="#EC6E62"/>
  <path d="M12.4759 17.7311C12.8568 17.7311 13.1657 17.4223 13.1657 17.0413C13.1657 16.6604 12.8568 16.3516 12.4759 16.3516C12.0949 16.3516 11.7861 16.6604 11.7861 17.0413C11.7861 17.4223 12.0949 17.7311 12.4759 17.7311Z" fill="#85BD57"/>
  <path d="M6.43659 17.7311C6.81753 17.7311 7.12635 17.4223 7.12635 17.0413C7.12635 16.6604 6.81753 16.3516 6.43659 16.3516C6.05564 16.3516 5.74683 16.6604 5.74683 17.0413C5.74683 17.4223 6.05564 17.7311 6.43659 17.7311Z" fill="#EC6E62"/>
  <path d="M4.47589 17.7311C4.85684 17.7311 5.16565 17.4223 5.16565 17.0413C5.16565 16.6604 4.85684 16.3516 4.47589 16.3516C4.09495 16.3516 3.78613 16.6604 3.78613 17.0413C3.78613 17.4223 4.09495 17.7311 4.47589 17.7311Z" fill="#85BD57"/>
  <path d="M14.4366 13.0828C14.8175 13.0828 15.1263 12.774 15.1263 12.3931C15.1263 12.0121 14.8175 11.7033 14.4366 11.7033C14.0556 11.7033 13.7468 12.0121 13.7468 12.3931C13.7468 12.774 14.0556 13.0828 14.4366 13.0828Z" fill="#EC6E62"/>
  <path d="M12.4759 13.0828C12.8568 13.0828 13.1657 12.774 13.1657 12.3931C13.1657 12.0121 12.8568 11.7033 12.4759 11.7033C12.0949 11.7033 11.7861 12.0121 11.7861 12.3931C11.7861 12.774 12.0949 13.0828 12.4759 13.0828Z" fill="#85BD57"/>
  <path d="M6.43659 13.0828C6.81753 13.0828 7.12635 12.774 7.12635 12.3931C7.12635 12.0121 6.81753 11.7033 6.43659 11.7033C6.05564 11.7033 5.74683 12.0121 5.74683 12.3931C5.74683 12.774 6.05564 13.0828 6.43659 13.0828Z" fill="#EC6E62"/>
  <path d="M4.47589 13.0828C4.85684 13.0828 5.16565 12.774 5.16565 12.3931C5.16565 12.0121 4.85684 11.7033 4.47589 11.7033C4.09495 11.7033 3.78613 12.0121 3.78613 12.3931C3.78613 12.774 4.09495 13.0828 4.47589 13.0828Z" fill="#85BD57"/>
</svg>