<svg xmlns="http://www.w3.org/2000/svg" width="20" height="20" viewBox="0 0 20 20" fill="none">
  <path d="M9.43451 11.0156H10.5653V14.9808H9.43451V11.0156ZM3.68091 16.2128C3.68091 15.9008 3.93411 15.6476 4.24611 15.6476H15.7541C15.9015 15.6515 16.0415 15.7128 16.1443 15.8184C16.2471 15.924 16.3047 16.0656 16.3047 16.213C16.3047 16.3604 16.2471 16.502 16.1443 16.6076C16.0415 16.7132 15.9015 16.7745 15.7541 16.7784H4.24611C3.93411 16.7784 3.68091 16.5252 3.68091 16.2128Z" fill="#026DEB"/>
  <path d="M10.0001 18.224C11.1106 18.224 12.0109 17.3237 12.0109 16.2132C12.0109 15.1027 11.1106 14.2024 10.0001 14.2024C8.88952 14.2024 7.98926 15.1027 7.98926 16.2132C7.98926 17.3237 8.88952 18.224 10.0001 18.224Z" fill="#026DEB"/>
  <path d="M10 17.2336C10.5638 17.2336 11.0208 16.7766 11.0208 16.2128C11.0208 15.649 10.5638 15.192 10 15.192C9.43628 15.192 8.97925 15.649 8.97925 16.2128C8.97925 16.7766 9.43628 17.2336 10 17.2336Z" fill="#D2D2D2"/>
  <path d="M5.34717 4.09924H14.6528V10.122H5.34717V4.09924Z" fill="#026DEB" fill-opacity="0.6"/>
  <path d="M14.7001 7.79917H5.30012C5.07957 7.79911 4.86117 7.84251 4.65739 7.92687C4.45362 8.01124 4.26846 8.13492 4.11248 8.29085C3.95651 8.44679 3.83279 8.63192 3.74838 8.83567C3.66396 9.03943 3.62052 9.25782 3.62052 9.47837V10.7652C3.62052 10.9857 3.66396 11.2041 3.74838 11.4079C3.83279 11.6116 3.95651 11.7968 4.11248 11.9527C4.26846 12.1086 4.45362 12.2323 4.65739 12.3167C4.86117 12.401 5.07957 12.4444 5.30012 12.4444H14.7001C14.9207 12.4444 15.1391 12.401 15.3428 12.3167C15.5466 12.2323 15.7318 12.1086 15.8877 11.9527C16.0437 11.7968 16.1674 11.6116 16.2519 11.4079C16.3363 11.2041 16.3797 10.9857 16.3797 10.7652V9.47837C16.3797 9.25782 16.3363 9.03943 16.2519 8.83567C16.1674 8.63192 16.0437 8.44679 15.8877 8.29085C15.7318 8.13492 15.5466 8.01124 15.3428 7.92687C15.1391 7.84251 14.9207 7.79911 14.7001 7.79917ZM14.7001 1.77637H5.30012C5.07953 1.77626 4.86109 1.81962 4.65727 1.90396C4.45345 1.9883 4.26824 2.11197 4.11223 2.26791C3.95621 2.42385 3.83245 2.609 3.74802 2.81278C3.66358 3.01656 3.62012 3.23498 3.62012 3.45557V4.74237C3.62006 4.96295 3.66347 5.18138 3.74786 5.38518C3.83225 5.58899 3.95597 5.77417 4.11194 5.93014C4.26792 6.08612 4.4531 6.20983 4.6569 6.29422C4.8607 6.37861 5.07913 6.42202 5.29972 6.42197H14.6997C14.9203 6.42202 15.1387 6.37861 15.3425 6.29422C15.5463 6.20983 15.7315 6.08612 15.8875 5.93014C16.0435 5.77417 16.1672 5.58899 16.2516 5.38518C16.336 5.18138 16.3794 4.96295 16.3793 4.74237V3.45597C16.3793 3.23542 16.3359 3.01703 16.2515 2.81327C16.167 2.60952 16.0433 2.42439 15.8874 2.26845C15.7314 2.11252 15.5462 1.98884 15.3424 1.90447C15.1387 1.82011 14.9203 1.77671 14.6997 1.77677L14.7001 1.77637Z" fill="#026DEB"/>
  <path d="M6.09468 4.99344C6.58843 4.99344 6.98868 4.59319 6.98868 4.09944C6.98868 3.6057 6.58843 3.20544 6.09468 3.20544C5.60094 3.20544 5.20068 3.6057 5.20068 4.09944C5.20068 4.59319 5.60094 4.99344 6.09468 4.99344Z" fill="#EC6E62"/>
  <path d="M8.6357 4.99344C9.12944 4.99344 9.5297 4.59319 9.5297 4.09944C9.5297 3.6057 9.12944 3.20544 8.6357 3.20544C8.14196 3.20544 7.7417 3.6057 7.7417 4.09944C7.7417 4.59319 8.14196 4.99344 8.6357 4.99344Z" fill="#85BD57"/>
  <path d="M6.09468 11.0153C6.58843 11.0153 6.98868 10.615 6.98868 10.1213C6.98868 9.62755 6.58843 9.22729 6.09468 9.22729C5.60094 9.22729 5.20068 9.62755 5.20068 10.1213C5.20068 10.615 5.60094 11.0153 6.09468 11.0153Z" fill="#EC6E62"/>
  <path d="M8.6357 11.0153C9.12944 11.0153 9.5297 10.615 9.5297 10.1213C9.5297 9.62755 9.12944 9.22729 8.6357 9.22729C8.14196 9.22729 7.7417 9.62755 7.7417 10.1213C7.7417 10.615 8.14196 11.0153 8.6357 11.0153Z" fill="#85BD57"/>
</svg>