<svg xmlns="http://www.w3.org/2000/svg" width="20" height="20" viewBox="0 0 20 20" fill="none">
    <path d="M10.008 1.875C10.6205 1.88167 11.2297 1.9525 11.8264 2.08583C11.9535 2.11421 12.0686 2.18159 12.1555 2.27855C12.2425 2.37552 12.297 2.49722 12.3114 2.62667L12.453 3.89917C12.473 4.07868 12.5348 4.25099 12.6336 4.40223C12.7323 4.55347 12.8652 4.6794 13.0215 4.76988C13.1778 4.86037 13.3532 4.91287 13.5336 4.92317C13.7139 4.93347 13.8941 4.90127 14.0597 4.82917L15.2264 4.31667C15.3449 4.26446 15.4767 4.25037 15.6036 4.27634C15.7305 4.30232 15.8462 4.36708 15.9347 4.46167C16.778 5.36259 17.4059 6.44302 17.7714 7.62167C17.8097 7.74553 17.8085 7.87825 17.7681 8.00143C17.7276 8.1246 17.6498 8.23215 17.5455 8.30917L16.5105 9.0725C16.3649 9.17937 16.2464 9.31906 16.1648 9.48024C16.0832 9.64141 16.0408 9.81955 16.0408 10.0002C16.0409 10.1809 16.0836 10.359 16.1653 10.5201C16.2471 10.6812 16.3656 10.8208 16.5114 10.9275L17.5472 11.69C17.6517 11.7671 17.7295 11.8748 17.77 11.9981C17.8105 12.1215 17.8115 12.2544 17.773 12.3783C17.4077 13.5568 16.78 14.6372 15.9372 15.5383C15.8489 15.6329 15.7334 15.6977 15.6067 15.7238C15.4799 15.7499 15.3482 15.7361 15.2297 15.6842L14.058 15.17C13.8927 15.0973 13.7125 15.0647 13.5321 15.0746C13.3518 15.0845 13.1763 15.1368 13.0199 15.2273C12.8635 15.3177 12.7306 15.4436 12.632 15.595C12.5334 15.7463 12.4718 15.9188 12.4522 16.0983L12.3114 17.37C12.2972 17.4979 12.2439 17.6184 12.1588 17.7149C12.0736 17.8114 11.9607 17.8792 11.8355 17.9092C10.6285 18.1963 9.37091 18.1963 8.16387 17.9092C8.03854 17.8794 7.92547 17.8116 7.84015 17.7151C7.75482 17.6186 7.7014 17.498 7.6872 17.37L7.54554 16.1C7.52504 15.9212 7.46292 15.7497 7.36416 15.5992C7.26541 15.4488 7.13277 15.3236 6.97688 15.2336C6.82099 15.1437 6.64619 15.0915 6.46651 15.0814C6.28682 15.0712 6.10725 15.1032 5.9422 15.175L4.7697 15.6883C4.65119 15.7402 4.51948 15.7541 4.39275 15.728C4.26602 15.7019 4.15053 15.6371 4.0622 15.5425C3.21893 14.6404 2.59124 13.5589 2.22637 12.3792C2.18786 12.2552 2.18892 12.1223 2.22939 11.9989C2.26986 11.8756 2.34773 11.7679 2.4522 11.6908L3.48887 10.9275C3.63458 10.8207 3.75307 10.6811 3.83475 10.5199C3.91642 10.3588 3.95898 10.1807 3.95898 10C3.95898 9.81934 3.91642 9.64122 3.83475 9.48008C3.75307 9.31894 3.63458 9.17931 3.48887 9.0725L2.45304 8.31083C2.34842 8.23387 2.27038 8.12623 2.22976 8.00287C2.18913 7.87951 2.18795 7.74656 2.22637 7.6225C2.59205 6.44378 3.22031 5.36334 4.06387 4.4625C4.15229 4.36809 4.26784 4.30344 4.39456 4.27747C4.52128 4.2515 4.65293 4.26548 4.77137 4.3175L5.93804 4.83C6.10389 4.90189 6.28429 4.93388 6.46474 4.92341C6.6452 4.91293 6.82068 4.86027 6.9771 4.76966C7.13351 4.67906 7.26649 4.55303 7.36536 4.4017C7.46423 4.25037 7.52622 4.07797 7.54637 3.89833L7.68804 2.62667C7.70234 2.49696 7.75687 2.37499 7.844 2.27785C7.93113 2.1807 8.04648 2.11327 8.17387 2.085C8.7722 1.9525 9.38137 1.8825 10.008 1.875ZM11.313 6.66667H8.58637L11.1739 10L8.86304 12.9283C8.83389 12.9652 8.81574 13.0096 8.81065 13.0563C8.80557 13.103 8.81376 13.1503 8.8343 13.1925C8.85483 13.2348 8.88687 13.2705 8.92674 13.2954C8.96661 13.3203 9.01269 13.3334 9.0597 13.3333H11.313C11.3511 13.3333 11.3888 13.3246 11.423 13.3079C11.4572 13.2911 11.4872 13.2668 11.5105 13.2367L13.8255 10.2558C13.8824 10.1827 13.9133 10.0927 13.9133 10C13.9133 9.90733 13.8824 9.81731 13.8255 9.74417L11.5105 6.76333C11.4871 6.73312 11.457 6.7087 11.4226 6.69194C11.3882 6.67518 11.3505 6.66653 11.3122 6.66667H11.313ZM8.0647 7.33583L6.17804 9.74333C6.12911 9.80581 6.09904 9.88095 6.09136 9.95993C6.08369 10.0389 6.09872 10.1184 6.1347 10.1892L6.17804 10.2567L7.84637 12.3867L7.88804 12.4283C7.93217 12.4632 7.98678 12.4822 8.04304 12.4822C8.09929 12.4822 8.1539 12.4632 8.19804 12.4283L8.23887 12.3875L9.3522 10.9875C9.37998 10.9527 9.39795 10.9111 9.40425 10.867C9.41055 10.8229 9.40495 10.7779 9.38804 10.7367L9.35304 10.6783L8.82137 10L9.47137 9.17L8.0647 7.33583Z" fill="#15171C"/>
  </svg>