<svg xmlns="http://www.w3.org/2000/svg" width="20" height="20" viewBox="0 0 20 20" fill="none">
  <path d="M4.65656 4.51506C4.90406 4.7035 5.15831 4.88294 5.42212 5.04325C5.28768 5.36725 5.16843 5.70925 5.06156 6.0625H6.1455C6.20737 5.88137 6.26643 5.69744 6.33675 5.52531C6.83906 5.75537 7.36275 5.93087 7.89993 6.0625H12.1024C12.6463 5.93031 13.1779 5.75087 13.6841 5.51575C13.7544 5.69012 13.8129 5.878 13.8771 6.0625H14.9407C14.8344 5.70869 14.7157 5.36781 14.5802 5.04325C14.8451 4.88294 15.0999 4.7035 15.3452 4.51506C15.8177 4.97519 16.2294 5.4955 16.5709 6.0625H18.0829C16.6181 3.07113 13.5508 1 10.0009 1C6.44981 1 3.38362 3.07113 1.91943 6.0625H3.43031C3.77231 5.4955 4.18406 4.97406 4.65656 4.51506ZM14.5611 3.85356C14.4227 3.95256 14.2837 4.04987 14.1392 4.13987C13.9597 3.80969 13.7646 3.49638 13.5536 3.214C13.9091 3.39963 14.2432 3.61619 14.5611 3.85356ZM13.2589 4.61238C12.8044 4.82106 12.3364 4.98925 11.8549 5.10738C11.7204 4.13538 11.5264 3.19712 11.2502 2.47938C12.0276 2.87256 12.7161 3.61844 13.2589 4.61238ZM9.89849 2.33819C9.93281 2.33763 9.966 2.33369 10.0009 2.33369C10.0357 2.33369 10.0689 2.33763 10.1032 2.33819C10.3496 2.7415 10.6461 3.74837 10.8649 5.2795C10.5786 5.31325 10.2906 5.33462 10.0014 5.33462C9.71062 5.33462 9.42318 5.31325 9.138 5.2795C9.35568 3.74837 9.65212 2.7415 9.89849 2.33819ZM8.74593 2.49513C8.47312 3.21062 8.28075 4.14156 8.14687 5.10794C7.67268 4.99206 7.21256 4.82669 6.76706 4.62419C7.30762 3.63925 7.98656 2.89338 8.74593 2.49513ZM6.447 3.214C6.23662 3.49638 6.04256 3.81025 5.86087 4.13987C5.71687 4.05044 5.57793 3.95312 5.43956 3.85413C5.75793 3.61619 6.0915 3.39963 6.447 3.214Z" fill="#026DEB"/>
  <path d="M15.3445 15.4855C15.0981 15.2965 14.8416 15.1176 14.5795 14.9562C14.7128 14.6333 14.8326 14.2913 14.94 13.9375H13.8763C13.815 14.122 13.7548 14.3088 13.6845 14.4837C13.1777 14.2486 12.645 14.0708 12.1022 13.9375H7.90035C7.36316 14.0691 6.84004 14.2452 6.33772 14.4747C6.26629 14.302 6.20779 14.1175 6.14535 13.9375H5.06197C5.16829 14.2913 5.28754 14.6328 5.42197 14.9568C5.1576 15.1171 4.90391 15.2965 4.65641 15.4844C4.18447 15.0254 3.77272 14.5045 3.43185 13.9375H1.92041C3.3846 16.9278 6.45079 19 10.0013 19C13.5518 19 16.6185 16.9278 18.0827 13.9375H16.5707C16.2287 14.5045 15.817 15.0254 15.3445 15.4855ZM5.43885 16.147C5.57722 16.048 5.71672 15.9501 5.86016 15.8613C6.04185 16.1909 6.23591 16.5042 6.44629 16.7866C6.09079 16.6004 5.75722 16.3844 5.43885 16.147ZM6.76522 15.3769C7.21072 15.1767 7.67085 15.0096 8.14504 14.8943C8.27891 15.8613 8.47129 16.7888 8.7441 17.5071C7.98585 17.1072 7.30691 16.3602 6.76522 15.3769ZM10.1025 17.6618C10.0682 17.6629 10.035 17.6663 10.0002 17.6663C9.96529 17.6663 9.9321 17.6629 9.89779 17.6618C9.65141 17.2585 9.35441 16.2511 9.13616 14.7205C9.42135 14.6868 9.70935 14.6648 9.9996 14.6648C10.2904 14.6648 10.5778 14.6868 10.8636 14.7205C10.6437 16.2511 10.3489 17.2585 10.1025 17.6618ZM11.2495 17.5201C11.5257 16.8029 11.7197 15.8646 11.8542 14.8921C12.3357 15.0108 12.8037 15.1789 13.2582 15.3876C12.7153 16.3821 12.0268 17.128 11.2495 17.5201ZM13.5529 16.786C13.7638 16.5025 13.959 16.1886 14.1385 15.8601C14.283 15.9501 14.422 16.048 14.5603 16.147C14.2425 16.3844 13.9084 16.6004 13.5529 16.786Z" fill="#026DEB"/>
  <path d="M3.12644 12.0572L3.5362 10.6102C3.64491 10.2246 3.72853 9.84471 3.80379 9.33091H3.82052C3.90414 9.83565 3.9794 10.2071 4.07975 10.6102L4.46442 12.0572H5.66024L6.91459 7.94481H5.66924L5.31802 9.57616C5.22604 10.0479 5.14241 10.5099 5.08388 10.981H5.06715C4.98353 10.5093 4.87482 10.0485 4.76611 9.58457L4.35635 7.94481H3.35287L2.91802 9.63505C2.81768 10.0382 2.7006 10.5106 2.61698 10.981H2.60025C2.53335 10.5093 2.44973 10.055 2.36611 9.62599L2.03997 7.94287H0.743164L1.93062 12.0565L3.12644 12.0572Z" fill="#026DEB"/>
  <path d="M11.4899 9.57642C11.3966 10.0482 11.3149 10.5103 11.257 10.9821H11.2396C11.1566 10.5103 11.0472 10.0489 10.9391 9.58483L10.5274 7.94481H9.52367L9.08873 9.63531C8.98836 10.0392 8.87127 10.511 8.78762 10.9821H8.7709C8.70398 10.5103 8.62034 10.0553 8.5367 9.62625L8.2105 7.94287H6.91406L8.10177 12.0572H9.29783L9.70768 10.6107C9.81641 10.223 9.90005 9.84436 9.97533 9.33048H9.99206C10.0757 9.8353 10.1516 10.2068 10.252 10.6107L10.6367 12.0572H11.8328L13.0855 7.94287H11.8386L11.4899 9.57642Z" fill="#026DEB"/>
  <path d="M17.6626 9.57642C17.5699 10.0482 17.4869 10.5103 17.429 10.9821H17.4129C17.33 10.5103 17.22 10.0489 17.1112 9.58483L16.7014 7.94481H15.6966L15.261 9.63531C15.1613 10.0392 15.0436 10.511 14.9593 10.9821H14.9439C14.877 10.5103 14.794 10.0553 14.7103 9.62625L14.3835 7.94287H13.0859L14.2754 12.0572H15.4695L15.8812 10.6107C15.9893 10.223 16.0735 9.84436 16.1488 9.33048H16.1643C16.2472 9.8353 16.3225 10.2068 16.4229 10.6107L16.8076 12.0572H18.0035L19.2574 7.94287H18.0106L17.6626 9.57642Z" fill="#026DEB"/>
</svg>