<svg width="20" height="20" viewBox="0 0 20 20" fill="none" xmlns="http://www.w3.org/2000/svg">
<g opacity="0.72" clip-path="url(#clip0_1531_3329)">
<path d="M4.65631 4.51506C4.90381 4.7035 5.15806 4.88294 5.42188 5.04325C5.28744 5.36725 5.16819 5.70925 5.06131 6.0625H6.14525C6.20713 5.88137 6.26619 5.69744 6.3365 5.52531C6.83881 5.75537 7.3625 5.93087 7.89969 6.0625H12.1021C12.6461 5.93031 13.1776 5.75087 13.6839 5.51575C13.7542 5.69012 13.8127 5.878 13.8768 6.0625H14.9405C14.8342 5.70869 14.7155 5.36781 14.5799 5.04325C14.8449 4.88294 15.0997 4.7035 15.3449 4.51506C15.8174 4.97519 16.2292 5.4955 16.5706 6.0625H18.0826C16.6179 3.07113 13.5506 1 10.0006 1C6.44956 1 3.38338 3.07113 1.91919 6.0625H3.43006C3.77206 5.4955 4.18381 4.97406 4.65631 4.51506ZM14.5608 3.85356C14.4224 3.95256 14.2835 4.04987 14.1389 4.13987C13.9595 3.80969 13.7643 3.49638 13.5534 3.214C13.9089 3.39963 14.243 3.61619 14.5608 3.85356ZM13.2586 4.61238C12.8041 4.82106 12.3361 4.98925 11.8546 5.10738C11.7202 4.13538 11.5261 3.19712 11.2499 2.47938C12.0273 2.87256 12.7158 3.61844 13.2586 4.61238ZM9.89825 2.33819C9.93256 2.33763 9.96575 2.33369 10.0006 2.33369C10.0355 2.33369 10.0687 2.33763 10.103 2.33819C10.3494 2.7415 10.6458 3.74837 10.8646 5.2795C10.5783 5.31325 10.2903 5.33462 10.0012 5.33462C9.71038 5.33462 9.42294 5.31325 9.13775 5.2795C9.35544 3.74837 9.65188 2.7415 9.89825 2.33819ZM8.74569 2.49513C8.47288 3.21062 8.2805 4.14156 8.14663 5.10794C7.67244 4.99206 7.21231 4.82669 6.76681 4.62419C7.30738 3.63925 7.98631 2.89338 8.74569 2.49513ZM6.44675 3.214C6.23638 3.49638 6.04231 3.81025 5.86063 4.13987C5.71663 4.05044 5.57769 3.95312 5.43931 3.85413C5.75769 3.61619 6.09125 3.39963 6.44675 3.214Z" fill="#15171C"/>
<path d="M3.12595 12.0572L3.53571 10.6102C3.64442 10.2246 3.72804 9.84471 3.8033 9.33091H3.82003C3.90365 9.83565 3.97891 10.2071 4.07926 10.6102L4.46393 12.0572H5.65975L6.9141 7.94481H5.66876L5.31753 9.57616C5.22555 10.0479 5.14193 10.5099 5.08339 10.981H5.06666C4.98304 10.5093 4.87433 10.0485 4.76562 9.58457L4.35586 7.94481H3.35238L2.91754 9.63505C2.81719 10.0382 2.70011 10.5106 2.61649 10.981H2.59977C2.53287 10.5093 2.44924 10.055 2.36562 9.62599L2.03949 7.94287H0.742676L1.93013 12.0565L3.12595 12.0572Z" fill="#15171C"/>
<path d="M11.4896 9.57642C11.3963 10.0482 11.3146 10.5103 11.2567 10.9821H11.2394C11.1564 10.5103 11.047 10.0489 10.9389 9.58483L10.5271 7.94481H9.52342L9.08849 9.63531C8.98812 10.0392 8.87102 10.511 8.78738 10.9821H8.77065C8.70374 10.5103 8.6201 10.0553 8.53646 9.62625L8.21026 7.94287H6.91382L8.10152 12.0572H9.29759L9.70743 10.6107C9.81617 10.223 9.89981 9.84436 9.97508 9.33048H9.99181C10.0755 9.8353 10.1514 10.2068 10.2517 10.6107L10.6365 12.0572H11.8326L13.0852 7.94287H11.8384L11.4896 9.57642Z" fill="#15171C"/>
<path d="M17.6623 9.57642C17.5697 10.0482 17.4867 10.5103 17.4288 10.9821H17.4127C17.3297 10.5103 17.2197 10.0489 17.111 9.58483L16.7012 7.94481H15.6963L15.2608 9.63531C15.1611 10.0392 15.0433 10.511 14.9591 10.9821H14.9436C14.8767 10.5103 14.7937 10.0553 14.7101 9.62625L14.3833 7.94287H13.0857L14.2752 12.0572H15.4692L15.8809 10.6107C15.989 10.223 16.0733 9.84436 16.1486 9.33048H16.164C16.247 9.8353 16.3223 10.2068 16.4226 10.6107L16.8073 12.0572H18.0033L19.2571 7.94287H18.0104L17.6623 9.57642Z" fill="#15171C"/>
<path fill-rule="evenodd" clip-rule="evenodd" d="M12 17.0097C11.7613 17.217 11.5104 17.3885 11.2495 17.5201C11.5257 16.8029 11.7197 15.8646 11.8542 14.8921C11.9031 14.9041 11.9519 14.9167 12.0006 14.9298C12.0064 14.5902 12.0546 14.2608 12.1401 13.9469C12.1275 13.9437 12.1148 13.9406 12.1022 13.9375H7.90035C7.36316 14.0691 6.84004 14.2452 6.33772 14.4747C6.2837 14.3441 6.23708 14.2068 6.19056 14.0697C6.17556 14.0255 6.16057 13.9814 6.14535 13.9375H5.06197C5.16829 14.2913 5.28754 14.6328 5.42197 14.9568C5.1576 15.1171 4.90391 15.2965 4.65641 15.4844C4.18447 15.0254 3.77272 14.5045 3.43185 13.9375H1.92041C3.3846 16.9278 6.45079 19 10.0013 19C10.8213 19 11.6155 18.8895 12.3701 18.6826C12.1339 18.1739 12.0014 17.6072 12 17.0097ZM5.86016 15.8613C5.71672 15.9501 5.57722 16.048 5.43885 16.147C5.75722 16.3844 6.09079 16.6004 6.44629 16.7866C6.23591 16.5042 6.04185 16.1909 5.86016 15.8613ZM8.14504 14.8943C7.67085 15.0096 7.21072 15.1767 6.76522 15.3769C7.30691 16.3602 7.98585 17.1072 8.7441 17.5071C8.47129 16.7888 8.27891 15.8613 8.14504 14.8943ZM10.0617 17.6639C10.0753 17.6631 10.0888 17.6623 10.1025 17.6618C10.3489 17.2585 10.6437 16.2511 10.8636 14.7205C10.5778 14.6868 10.2904 14.6648 9.9996 14.6648C9.70935 14.6648 9.42135 14.6868 9.13616 14.7205C9.35441 16.2511 9.65141 17.2585 9.89779 17.6618C9.91151 17.6623 9.92506 17.6631 9.9386 17.6639C9.95892 17.6651 9.97924 17.6663 10.0002 17.6663C10.0211 17.6663 10.0414 17.6651 10.0617 17.6639Z" fill="#15171C"/>
<path fill-rule="evenodd" clip-rule="evenodd" d="M16.0001 18.9C16.0001 19.1761 16.224 19.4 16.5001 19.4C16.7762 19.4 17.0001 19.1761 17.0001 18.9V17H18.9001C19.1762 17 19.4001 16.7761 19.4001 16.5C19.4001 16.2238 19.1762 16 18.9001 16H17.0001V14.1C17.0001 13.8238 16.7762 13.6 16.5001 13.6C16.224 13.6 16.0001 13.8238 16.0001 14.1V16H14.1001C13.824 16 13.6001 16.2238 13.6001 16.5C13.6001 16.7761 13.824 17 14.1001 17H16.0001V18.9Z" fill="#15171C"/>
</g>
<defs>
<clipPath id="clip0_1531_3329">
<rect width="20" height="20" fill="white"/>
</clipPath>
</defs>
</svg>
