<svg xmlns="http://www.w3.org/2000/svg" width="20" height="20" viewBox="0 0 20 20" fill="none">
  <path d="M4.65631 4.51506C4.90381 4.7035 5.15806 4.88294 5.42188 5.04325C5.28744 5.36725 5.16819 5.70925 5.06131 6.0625H6.14525C6.20713 5.88137 6.26619 5.69744 6.3365 5.52531C6.83881 5.75537 7.3625 5.93087 7.89969 6.0625H12.1021C12.6461 5.93031 13.1776 5.75087 13.6839 5.51575C13.7542 5.69012 13.8127 5.878 13.8768 6.0625H14.9405C14.8342 5.70869 14.7155 5.36781 14.5799 5.04325C14.8449 4.88294 15.0997 4.7035 15.3449 4.51506C15.8174 4.97519 16.2292 5.4955 16.5706 6.0625H18.0826C16.6179 3.07113 13.5506 1 10.0006 1C6.44956 1 3.38338 3.07113 1.91919 6.0625H3.43006C3.77206 5.4955 4.18381 4.97406 4.65631 4.51506ZM14.5608 3.85356C14.4224 3.95256 14.2835 4.04987 14.1389 4.13987C13.9595 3.80969 13.7643 3.49638 13.5534 3.214C13.9089 3.39963 14.243 3.61619 14.5608 3.85356ZM13.2586 4.61238C12.8041 4.82106 12.3361 4.98925 11.8546 5.10738C11.7202 4.13538 11.5261 3.19712 11.2499 2.47938C12.0273 2.87256 12.7158 3.61844 13.2586 4.61238ZM9.89825 2.33819C9.93256 2.33763 9.96575 2.33369 10.0006 2.33369C10.0355 2.33369 10.0687 2.33763 10.103 2.33819C10.3494 2.7415 10.6458 3.74837 10.8646 5.2795C10.5783 5.31325 10.2903 5.33462 10.0012 5.33462C9.71038 5.33462 9.42294 5.31325 9.13775 5.2795C9.35544 3.74837 9.65188 2.7415 9.89825 2.33819ZM8.74569 2.49513C8.47288 3.21062 8.2805 4.14156 8.14663 5.10794C7.67244 4.99206 7.21231 4.82669 6.76681 4.62419C7.30738 3.63925 7.98631 2.89338 8.74569 2.49513ZM6.44675 3.214C6.23638 3.49638 6.04231 3.81025 5.86063 4.13987C5.71663 4.05044 5.57769 3.95312 5.43931 3.85413C5.75769 3.61619 6.09125 3.39963 6.44675 3.214Z" fill="#15171C"/>
  <path d="M15.3442 15.4855C15.0979 15.2965 14.8414 15.1176 14.5792 14.9562C14.7125 14.6333 14.8324 14.2913 14.9398 13.9375H13.8761C13.8148 14.122 13.7546 14.3088 13.6843 14.4837C13.1775 14.2486 12.6448 14.0708 12.102 13.9375H7.9001C7.36292 14.0691 6.83979 14.2452 6.33748 14.4747C6.26604 14.302 6.20754 14.1175 6.1451 13.9375H5.06173C5.16804 14.2913 5.28729 14.6328 5.42173 14.9568C5.15735 15.1171 4.90367 15.2965 4.65617 15.4844C4.18423 15.0254 3.77248 14.5045 3.4316 13.9375H1.92017C3.38435 16.9278 6.45054 19 10.001 19C13.5515 19 16.6183 16.9278 18.0825 13.9375H16.5705C16.2285 14.5045 15.8167 15.0254 15.3442 15.4855ZM5.4386 16.147C5.57698 16.048 5.71648 15.9501 5.85992 15.8613C6.0416 16.1909 6.23567 16.5042 6.44604 16.7866C6.09054 16.6004 5.75698 16.3844 5.4386 16.147ZM6.76498 15.3769C7.21048 15.1767 7.6706 15.0096 8.14479 14.8943C8.27867 15.8613 8.47104 16.7888 8.74385 17.5071C7.9856 17.1072 7.30667 16.3602 6.76498 15.3769ZM10.1023 17.6618C10.068 17.6629 10.0348 17.6663 9.99992 17.6663C9.96504 17.6663 9.93185 17.6629 9.89754 17.6618C9.65117 17.2585 9.35417 16.2511 9.13592 14.7205C9.4211 14.6868 9.7091 14.6648 9.99935 14.6648C10.2902 14.6648 10.5776 14.6868 10.8634 14.7205C10.6434 16.2511 10.3487 17.2585 10.1023 17.6618ZM11.2492 17.5201C11.5254 16.8029 11.7195 15.8646 11.8539 14.8921C12.3354 15.0108 12.8034 15.1789 13.2579 15.3876C12.7151 16.3821 12.0266 17.128 11.2492 17.5201ZM13.5527 16.786C13.7636 16.5025 13.9588 16.1886 14.1382 15.8601C14.2828 15.9501 14.4217 16.048 14.5601 16.147C14.2423 16.3844 13.9082 16.6004 13.5527 16.786Z" fill="#15171C"/>
  <path d="M3.12595 12.0572L3.53571 10.6102C3.64442 10.2246 3.72804 9.84471 3.8033 9.33091H3.82003C3.90365 9.83565 3.97891 10.2071 4.07926 10.6102L4.46393 12.0572H5.65975L6.9141 7.94481H5.66876L5.31753 9.57616C5.22555 10.0479 5.14193 10.5099 5.08339 10.981H5.06666C4.98304 10.5093 4.87433 10.0485 4.76562 9.58457L4.35586 7.94481H3.35238L2.91754 9.63505C2.81719 10.0382 2.70011 10.5106 2.61649 10.981H2.59977C2.53287 10.5093 2.44924 10.055 2.36562 9.62599L2.03949 7.94287H0.742676L1.93013 12.0565L3.12595 12.0572Z" fill="#15171C"/>
  <path d="M11.4896 9.57642C11.3963 10.0482 11.3146 10.5103 11.2567 10.9821H11.2394C11.1564 10.5103 11.047 10.0489 10.9389 9.58483L10.5271 7.94481H9.52342L9.08849 9.63531C8.98812 10.0392 8.87102 10.511 8.78738 10.9821H8.77065C8.70374 10.5103 8.6201 10.0553 8.53646 9.62625L8.21026 7.94287H6.91382L8.10152 12.0572H9.29759L9.70743 10.6107C9.81617 10.223 9.89981 9.84436 9.97508 9.33048H9.99181C10.0755 9.8353 10.1514 10.2068 10.2517 10.6107L10.6365 12.0572H11.8326L13.0852 7.94287H11.8384L11.4896 9.57642Z" fill="#15171C"/>
  <path d="M17.6623 9.57642C17.5697 10.0482 17.4867 10.5103 17.4288 10.9821H17.4127C17.3297 10.5103 17.2197 10.0489 17.111 9.58483L16.7012 7.94481H15.6963L15.2608 9.63531C15.1611 10.0392 15.0433 10.511 14.9591 10.9821H14.9436C14.8767 10.5103 14.7937 10.0553 14.7101 9.62625L14.3833 7.94287H13.0857L14.2752 12.0572H15.4692L15.8809 10.6107C15.989 10.223 16.0733 9.84436 16.1486 9.33048H16.164C16.247 9.8353 16.3223 10.2068 16.4226 10.6107L16.8073 12.0572H18.0033L19.2571 7.94287H18.0104L17.6623 9.57642Z" fill="#15171C"/>
</svg>