<svg width="55" height="54" viewBox="0 0 55 54" fill="none" xmlns="http://www.w3.org/2000/svg">
<g clip-path="url(#clip0_1_9546)">
<path d="M30.4248 27.4222C29.6252 27.4334 30.5761 27.8342 31.6199 27.9948C31.9082 27.7697 32.1699 27.5419 32.4031 27.3203C31.7529 27.4796 31.0913 27.4831 30.4248 27.4222Z" fill="#A80030"/>
<path d="M34.7153 26.3523C35.1914 25.6951 35.5385 24.9755 35.6608 24.2316C35.5541 24.762 35.2662 25.2199 34.9952 25.703C33.5006 26.6441 34.8546 25.1442 34.9943 24.5742C33.3871 26.597 34.7736 25.7872 34.7153 26.3523Z" fill="#A80030"/>
<path d="M36.2998 22.2341C36.3963 20.7943 36.0164 21.2494 35.8887 21.799C36.0377 21.8764 36.1556 22.8139 36.2998 22.2341Z" fill="#A80030"/>
<path d="M27.3926 2.55444C27.8192 2.63097 28.3145 2.68971 28.2451 2.7916C28.7118 2.68926 28.8177 2.59493 27.3926 2.55444Z" fill="#A80030"/>
<path d="M28.2431 2.79297L27.9414 2.85526L28.2221 2.83035L28.2431 2.79297Z" fill="#A80030"/>
<path d="M41.5506 22.7798C41.5982 24.0728 41.1724 24.7002 40.7884 25.8108L40.0974 26.1561C39.5319 27.2542 40.1521 26.8534 39.7472 27.7268C38.8644 28.5117 37.0681 30.183 36.4932 30.3356C36.0736 30.3263 36.7776 29.8403 36.8697 29.6499C35.6879 30.4615 35.9215 30.8681 34.1141 31.3612L34.0611 31.2437C29.6035 33.3408 23.4118 29.1849 23.4929 23.5144C23.4452 23.8743 23.3576 23.7845 23.2589 23.93C23.0288 21.0124 24.6062 18.0819 27.2666 16.8855C29.8686 15.5973 32.9193 16.1259 34.7834 17.863C33.7596 16.5219 31.7217 15.1003 29.3064 15.2333C26.9406 15.2707 24.7274 16.7742 23.9888 18.4063C22.7767 19.1694 22.6361 21.3479 22.108 21.7466C21.3974 26.9691 23.4446 29.2254 26.9077 31.8794C27.4528 32.247 27.0612 32.3025 27.1351 32.5825C25.9844 32.0436 24.9307 31.2303 24.0644 30.2344C24.524 30.9072 25.0202 31.5613 25.6614 32.0752C24.5766 31.7077 23.1273 29.4464 22.7042 29.3543C24.5743 32.7026 30.2916 35.2264 33.2852 33.9743C31.9 34.0255 30.1402 34.0027 28.5838 33.4274C27.9301 33.091 27.0411 32.3943 27.2 32.2639C31.2855 33.7901 35.5058 33.4199 39.0412 30.5859C39.9405 29.8856 40.923 28.694 41.2069 28.6775C40.7793 29.3205 41.2799 28.9868 40.9515 29.5545C41.8476 28.1093 40.5621 28.9663 41.8779 27.0588L42.3638 27.728C42.1831 26.5284 43.8535 25.0716 43.6839 23.1743C44.067 22.5941 44.1116 23.7986 43.7049 25.1335C44.269 23.6526 43.8535 23.4146 43.9985 22.1928C44.1552 22.6034 44.3607 23.0399 44.4662 23.4733C44.0986 22.0423 44.8435 21.0634 45.0277 20.2318C44.8461 20.1513 44.4604 20.8645 44.3723 19.1742C44.3852 18.44 44.5765 18.7892 44.6504 18.6086C44.5062 18.5258 44.128 17.963 43.8979 16.8835C44.0648 16.6299 44.3438 17.5412 44.5707 17.5785C44.4248 16.7202 44.1734 16.0657 44.1631 15.4072C43.5002 14.0216 43.9286 15.5918 43.3907 14.8122C42.685 12.6111 43.9763 14.3014 44.0635 13.3012C45.1332 14.851 45.7432 17.2528 46.0231 18.2477C45.8095 17.0348 45.4642 15.8597 45.0429 14.7228C45.3677 14.8594 44.5196 12.227 45.4651 13.9704C44.4551 10.2541 41.1423 6.78171 38.0948 5.15193C38.4677 5.4932 38.9385 5.9217 38.7694 5.98888C37.2539 5.08655 37.5204 5.01621 37.3033 4.63489C36.0685 4.13254 35.9875 4.67539 35.1697 4.63578C32.8426 3.40144 32.3941 3.53273 30.2525 2.75942L30.3499 3.21461C28.8081 2.70113 28.5537 3.4095 26.8873 3.21639C26.7859 3.13719 27.4213 2.92984 27.9441 2.85375C26.4535 3.05042 26.5234 2.56008 25.0647 2.90803C25.4243 2.65574 25.8043 2.48889 26.1878 2.27441C24.9722 2.34828 23.2858 2.98189 23.8064 2.40568C21.8237 3.29023 18.3023 4.53215 16.3263 6.38494L16.264 5.9698C15.3585 7.05687 12.3154 9.21622 12.073 10.624L11.8309 10.6806C11.3596 11.4784 11.0549 12.3825 10.6811 13.2035C10.0649 14.2536 9.77782 13.6075 9.8655 13.7721C8.65345 16.2296 8.05144 18.2947 7.53125 19.9882C7.9019 20.5422 7.54015 23.3231 7.68031 25.5488C7.07161 36.541 15.3953 47.2136 24.493 49.6779C25.8266 50.1549 27.8098 50.1367 29.4966 50.1856C27.5063 49.6165 27.2491 49.884 25.3105 49.2081C23.912 48.5496 23.6053 47.7976 22.6149 46.9379L23.0069 47.6307C21.0642 46.9433 21.8771 46.7799 20.2967 46.2793L20.7154 45.7325C20.0858 45.6849 19.0477 44.6713 18.7638 44.1102L18.075 44.1373C17.2474 43.1162 16.8065 42.3802 16.8385 41.8102L16.616 42.2067C16.3637 41.7737 13.5711 38.377 15.0199 39.1676C14.7508 38.9215 14.393 38.7671 14.005 38.0624L14.3 37.7251C13.6027 36.828 13.0167 35.6783 13.0612 35.2951C13.4333 35.7975 13.6913 35.8915 13.9467 35.9773C12.186 31.6087 12.0872 35.7366 10.7537 31.5304L11.0358 31.5077C10.8195 31.182 10.6883 30.8283 10.5143 30.4812L10.6371 29.2576C9.36946 27.7919 10.2825 23.0255 10.4654 20.4113C10.5922 19.3484 11.5235 18.2168 12.2319 16.4423L11.8002 16.368C12.6252 14.929 16.5106 10.5889 18.31 10.8123C19.1816 9.71727 18.1369 10.8083 17.9664 10.5324C19.8811 8.551 20.4831 9.1326 21.7753 8.77619C23.1688 7.949 20.5792 9.09874 21.24 8.4607C23.6489 7.84533 22.9472 7.06175 26.09 6.74941C26.4215 6.93807 25.3207 7.04086 25.0444 7.28558C27.0516 6.3036 31.3961 6.52691 34.2179 7.83064C37.4923 9.36088 41.1712 13.8843 41.3163 18.1406L41.4813 18.185C41.3977 19.8768 41.7403 21.8333 41.1467 23.6304L41.5506 22.7798Z" fill="#A80030"/>
<path d="M21.6961 28.5205L21.584 29.0812C22.1094 29.7949 22.5263 30.5682 23.1973 31.1262C22.7146 30.1838 22.3559 29.7944 21.6961 28.5205Z" fill="#A80030"/>
<path d="M22.9394 28.4752C22.6613 28.1678 22.4967 27.7976 22.3125 27.4287C22.4887 28.077 22.8496 28.6342 23.1855 29.2006L22.9394 28.4752Z" fill="#A80030"/>
<path d="M44.9208 23.7002L44.8033 23.9947C44.588 25.5245 44.123 27.0382 43.4102 28.4416C44.1977 26.9608 44.7073 25.3412 44.9208 23.7002Z" fill="#A80030"/>
<path d="M27.5501 2.16863C28.0907 1.97063 28.8792 2.06006 29.4527 1.92969C28.7052 1.99243 27.9612 2.0298 27.2266 2.12458L27.5501 2.16863Z" fill="#A80030"/>
<path d="M8.56871 12.2578C8.69324 13.4111 7.70097 13.8588 8.78849 13.0983C9.37136 11.7853 8.56068 12.7357 8.56871 12.2578Z" fill="#A80030"/>
<path d="M7.29239 17.6004C7.5429 16.8316 7.58829 16.3697 7.68395 15.9248C6.9916 16.8098 7.36537 16.9984 7.29239 17.6004Z" fill="#A80030"/>
</g>
<defs>
<clipPath id="clip0_1_9546">
<rect width="54" height="54" fill="white" transform="translate(0.5)"/>
</clipPath>
</defs>
</svg>
