<svg width="55" height="54" viewBox="0 0 55 54" fill="none" xmlns="http://www.w3.org/2000/svg">
<g clip-path="url(#clip0_1_9611)">
<path d="M27.5232 49.2192C39.7826 49.2192 49.7202 39.2808 49.7202 27.0222C49.7202 14.7628 39.7818 4.8252 27.5232 4.8252C15.2638 4.8252 5.32617 14.7636 5.32617 27.0222C5.32617 39.2816 15.2646 49.2192 27.5232 49.2192Z" fill="#DD4814"/>
<path d="M12.428 29.9879C14.0645 29.9879 15.3912 28.6613 15.3912 27.0247C15.3912 25.3882 14.0645 24.0615 12.428 24.0615C10.7915 24.0615 9.46484 25.3882 9.46484 27.0247C9.46484 28.6613 10.7915 29.9879 12.428 29.9879Z" fill="white"/>
<path d="M20.3796 37.7326C17.7462 35.9764 15.8509 33.313 15.0547 30.2495C15.5343 29.8592 15.9208 29.3671 16.1863 28.8087C16.4519 28.2504 16.5897 27.6399 16.5897 27.0216C16.5897 26.4033 16.4519 25.7928 16.1863 25.2345C15.9208 24.6761 15.5343 24.1839 15.0547 23.7937C15.8509 20.7302 17.7462 18.0667 20.3796 16.3105L22.5472 19.9393C21.4098 20.7374 20.4813 21.7976 19.8403 23.0304C19.1993 24.2631 18.8647 25.6322 18.8647 27.0216C18.8647 28.411 19.1993 29.78 19.8403 31.0128C20.4813 32.2455 21.4098 33.3057 22.5472 34.1038L20.3796 37.7326Z" fill="white"/>
<path d="M35.0697 16.9157C36.7061 16.9157 38.0328 15.589 38.0328 13.9525C38.0328 12.3159 36.7061 10.9893 35.0697 10.9893C33.4331 10.9893 32.1064 12.3159 32.1064 13.9525C32.1064 15.589 33.4331 16.9157 35.0697 16.9157Z" fill="white"/>
<path d="M21.8173 15.4824C24.6551 14.0805 27.9094 13.7712 30.9607 14.6132C31.0591 15.2235 31.2922 15.8043 31.6431 16.3133C31.9939 16.8223 32.4538 17.2468 32.9892 17.5559C33.5246 17.865 34.1221 18.0509 34.7384 18.1002C35.3547 18.1496 35.9742 18.0611 36.5519 17.8411C38.8065 20.0623 40.1655 23.0351 40.3702 26.1934L36.1415 26.256C36.0188 24.8719 35.5645 23.5379 34.8174 22.3665C34.0701 21.1951 33.0519 20.2208 31.8486 19.526C30.6453 18.8312 29.2925 18.4364 27.9044 18.3748C26.5163 18.3132 25.1339 18.5867 23.8738 19.1722L21.8173 15.4824Z" fill="white"/>
<path d="M35.0696 43.0592C36.7061 43.0592 38.0328 41.7326 38.0328 40.096C38.0328 38.4595 36.7061 37.1328 35.0696 37.1328C33.4331 37.1328 32.1064 38.4595 32.1064 40.096C32.1064 41.7326 33.4331 43.0592 35.0696 43.0592Z" fill="white"/>
<path d="M40.3704 27.8547C40.1657 31.0131 38.8067 33.9859 36.5521 36.2071C35.9744 35.987 35.3549 35.8985 34.7386 35.9478C34.1223 35.9971 33.5248 36.1831 32.9894 36.4922C32.454 36.8013 31.9941 37.2257 31.6433 37.7348C31.2923 38.2438 31.0593 38.8245 30.9609 39.4349C27.9097 40.2769 24.6555 39.9675 21.8174 38.5657L23.8769 34.8758C25.1369 35.4613 26.5194 35.7348 27.9075 35.6732C29.2956 35.6117 30.6484 35.2167 31.8516 34.522C33.0549 33.8272 34.0731 32.8529 34.8204 31.6815C35.5677 30.5101 36.0219 29.176 36.1447 27.792L40.3704 27.8547Z" fill="white"/>
</g>
<defs>
<clipPath id="clip0_1_9611">
<rect width="54" height="54" fill="white" transform="translate(0.5)"/>
</clipPath>
</defs>
</svg>
